<?xml version="1.0" encoding="utf-8"?>
<!-- Generator: Adobe Illustrator 18.0.0, SVG Export Plug-In . SVG Version: 6.00 Build 0)  -->
<!DOCTYPE svg PUBLIC "-//W3C//DTD SVG 1.1//EN" "http://www.w3.org/Graphics/SVG/1.1/DTD/svg11.dtd">
<svg version="1.1" id="Layer_1" xmlns="http://www.w3.org/2000/svg" xmlns:xlink="http://www.w3.org/1999/xlink" x="0px" y="0px"
	 viewBox="0 0 2335.7 2335.5" enable-background="new 0 0 2335.7 2335.5" xml:space="preserve">
<path fill="#88EADB" stroke="#000000" stroke-width="5" stroke-miterlimit="10" d="M410.6,409.9c-416.4,416.4-416.4,1091.5,0,1507.9
	s1091.5,416.4,1507.9,0s416.4-1091.5,0-1507.9S827-6.5,410.6,409.9z M1792.9,1792c-347,347-909.6,347-1256.6,0s-347-909.6,0-1256.6
	s909.6-347,1256.6,0S2139.9,1445,1792.9,1792z"/>
<path fill="#F9A0BB" stroke="#000000" stroke-width="5" stroke-miterlimit="10" d="M484.3,251.6c-64.1,0-116.1,51.5-116.4,115.6
	c-64,0.3-115.8,52.8-115.8,116.9c0,64.3,52.1,116.9,116.4,116.9h232.1V368h0.2C600.4,304,548.4,251.6,484.3,251.6z"/>
<path fill="#F9A0BB" stroke="#000000" stroke-width="5" stroke-miterlimit="10" d="M2083.8,1850.9c0,64.1-51.6,116.1-115.6,116.4
	c-0.3,64-52.7,115.8-116.8,115.8c-64.3,0-116.8-52.1-116.8-116.4V1735h233v-0.5C2031.5,1734.8,2083.8,1786.8,2083.8,1850.9z"/>
<path fill="#F9A0BB" stroke="#000000" stroke-width="5" stroke-miterlimit="10" d="M2083.8,483.8c0-64.1-51.6-116.1-115.6-116.4
	c-0.3-64-52.7-115.8-116.8-115.8c-64.3,0-116.8,52.1-116.8,116.4v233h233v-0.8C2031.5,599.9,2083.8,547.9,2083.8,483.8z"/>
<path fill="#F9A0BB" stroke="#000000" stroke-width="5" stroke-miterlimit="10" d="M484.3,2083.7c-64.1,0-116.1-51.8-116.4-115.9
	c-64-0.3-115.8-52.3-115.8-116.4c0-64.3,52.1-116.5,116.4-116.5h232.1v233h0.2C600.4,2032,548.4,2083.7,484.3,2083.7z"/>
<path fill="#F9A0BB" stroke="#000000" stroke-width="5" stroke-miterlimit="10" d="M2299.1,1332c45.3-45.3,45.4-118.7,0.4-164.2
	c45.1-45.5,44.9-118.9-0.4-164.3c-45.5-45.5-119.2-45.5-164.7-0.1L1969.8,1168l164.8,164.8l0.4-0.4
	C2180.4,1377.4,2253.8,1377.3,2299.1,1332z"/>
<path fill="#F9A0BB" stroke="#000000" stroke-width="5" stroke-miterlimit="10" d="M36.6,1331.9c-45.3-45.3-45.5-118.7-0.4-164.2
	c-45.1-45.5-44.8-119,0.5-164.3c45.5-45.5,119.3-45.6,164.7-0.1L366.1,1168l-164.8,164.8l-0.5-0.5
	C155.4,1377.3,81.9,1377.2,36.6,1331.9z"/>
<path fill="#F9A0BB" stroke="#000000" stroke-width="5" stroke-miterlimit="10" d="M1003.5,2298.9c45.3,45.3,118.7,45.5,164.2,0.4
	c45.5,45.1,119,44.8,164.4-0.5c45.5-45.5,45.6-119.3,0.2-164.8L1168,1969.9l-164.8,164.8l-0.1-0.1
	C958.1,2180,958.1,2253.5,1003.5,2298.9z"/>
<path fill="#F9A0BB" stroke="#000000" stroke-width="5" stroke-miterlimit="10" d="M1003.6,36.7c45.3-45.3,118.6-45.6,164.1-0.5
	c45.5-45.1,119.2-44.7,164.5,0.7c45.5,45.5,45.7,119.4,0.3,164.9L1168,366.1l-164.8-164.8l0.3-0.3C958.4,155.7,958.3,82,1003.6,36.7
	z"/>
<g>
	<path fill="#85ACDD" stroke="#000000" stroke-width="5" stroke-miterlimit="10" d="M1411.2,251.5c-1.4,3.3-12.4,7-28.5,14.6
		c-16.9,8-32.7,52.7-26.4,92.2s24.2,63.6,46.2,67.9c22,4.3,27.5,6.5,22.2-6.2c-5.2-12.7-7.7-29.5-5.3-41.8
		c2.4-12.2,5.2-7.8,11.1,11.8c5.9,19.6,1.5,41.6,10.9,20.3c9.4-21.3,25.4-29.9,12.8-55.5s-17.6-52.8-30.2-64.5
		c-12.6-11.8,16-39,16-39"/>
	<path fill="#85ACDD" stroke="#000000" stroke-width="5" stroke-miterlimit="10" d="M1649.2,305.8c7.6,0.5,22.7,26.7,17.2,57
		s-11.9,77.8-43.9,97.8c-32.1,20-72.8,18.4-77.9,13.2c-5.1-5.2,9.3-21.1,27.7-39.3c18.4-18.2-10.4-4.1-18.4,3.5
		c-7.9,7.6-19.3,13.8,0.8-18.3s24.6-47.2,52.8-65s30.3-21.3,28.9-31.8s-4.2-21.6-4.2-21.6"/>
	<path fill="#FCC56B" stroke="#000000" stroke-width="5" stroke-miterlimit="10" d="M1576.1,262.8c6.1,0.9,33.1,26.5,37.4,40.2
		c4.3,13.6,8.6,13.8,23,20s22.5,2.7,20.8-13.5s-10.2-16-23.9-33.1c-13.7-17.1-51.9-48.3-51.9-48.3"/>
	<path fill="#FCC56B" stroke="#000000" stroke-width="5" stroke-miterlimit="10" d="M1513.4,234c0,0-20.8,4.2-38.3,14.6
		s-37.1,24.1-44.2,24.6s-21.7-3.5-27.3-7.8c-5.6-4.3,6.7-28.6,22.7-36.7s37.9-9.3,47.9-10.7c10-1.4,49.5-9.2,49.5-9.2"/>
</g>
<circle id="Face" fill="#85ACDD" stroke="#000000" stroke-width="5" stroke-miterlimit="10" cx="1572.5" cy="181.8" r="99.1"/>
<ellipse id="L_Eye" transform="matrix(0.9517 0.3071 -0.3071 0.9517 117.4764 -472.3372)" fill="#231F20" stroke="#231F20" stroke-miterlimit="10" cx="1559.7" cy="137.2" rx="10.7" ry="29.4"/>
<ellipse id="R_Eye" transform="matrix(0.9517 0.3071 -0.3071 0.9517 125.0328 -487.2803)" fill="#231F20" stroke="#231F20" stroke-miterlimit="10" cx="1611" cy="153.7" rx="10.7" ry="29.4"/>
<g id="Mouth">
	<path fill="#231F20" d="M1633.2,206.7c-11.2,33.4-48.8,47-80.9,37c-32.3-10.1-53.9-44.4-43.6-77.5c1.3-4.3-5.4-6.2-6.7-1.9
		c-11.4,36.8,12.3,73.3,47.1,85.7c35.9,12.8,78.5-4.5,90.9-41.5C1641.4,204.3,1634.6,202.4,1633.2,206.7L1633.2,206.7z"/>
</g>
<g id="L_Dimple">
	<path fill="#231F20" d="M1498.7,168.4c3.6-1.4,7.8,0.1,11,1.9c3.9,2.3,7.4-3.8,3.5-6c-4.7-2.7-11.1-4.7-16.4-2.6
		C1492.7,163.2,1494.5,170,1498.7,168.4L1498.7,168.4z"/>
</g>
<g id="R_Dimple">
	<path fill="#231F20" d="M1645.7,209.2c-3.4-5.1-9.7-7.3-15.5-7.9c-4.5-0.4-4.5,6.6,0,7c2.9,0.3,5.5,1.2,7.8,2.9
		c0.5,0.4,1,0.9,1.5,1.4c0.7,0.8-0.3-0.5,0.1,0.2C1642.2,216.5,1648.2,213,1645.7,209.2L1645.7,209.2z"/>
</g>
<g>
	<path fill="#85ACDD" stroke="#000000" stroke-width="5" stroke-miterlimit="10" d="M1989.5,690.6c-3.3,1.3-13.7-3.8-30.4-10
		c-17.6-6.4-60.4,13.8-84.1,46.1c-23.7,32.3-28.2,61.9-15.8,80.6c12.5,18.7,14.7,24.1,20.1,11.4c5.3-12.7,15.6-26.2,26-33.1
		c10.4-6.9,9.2-1.8-0.6,16.1s-28.5,30.3-6.8,22s39.1-2.9,48.5-30c9.3-27,25.1-49.6,24.6-66.8s39-16.1,39-16.1"/>
	<path fill="#85ACDD" stroke="#000000" stroke-width="5" stroke-miterlimit="10" d="M2118.3,898c5,5.7-3,34.9-28.5,52.3
		s-63.6,46.3-100.4,37.5c-36.8-8.7-64.3-38.8-64.1-46.1c0.1-7.3,21.5-8.2,47.4-7.9s-4.4-10.3-15.4-10.6c-11-0.3-23.4-4,13.6-12.3
		c37-8.3,50.9-15.8,83.3-8.1c32.5,7.6,36.4,6.5,42.9-1.8c6.5-8.3,12.4-18.2,12.4-18.2"/>
	<path fill="#FCC56B" stroke="#000000" stroke-width="5" stroke-miterlimit="10" d="M2097.5,815.8c3.7,4.9,4.4,42.2-2.3,54.8
		s-3.8,15.8,2,30.4c5.8,14.6,13.9,17.9,24.2,5.3c10.3-12.6,4.2-18.5,6.7-40.3c2.6-21.8-2.2-70.9-2.2-70.9"/>
	<path fill="#FCC56B" stroke="#000000" stroke-width="5" stroke-miterlimit="10" d="M2073.8,750.9c0,0-17.6-11.9-37.4-17
		c-19.8-5.1-43.2-9.4-48.5-14.1c-5.3-4.7-12.8-17.9-13.7-24.9s25-15.3,42.1-9.7c17.1,5.6,33.2,20.4,41.3,26.5
		c8.1,6.1,41.3,28.7,41.3,28.7"/>
</g>
<circle id="Face_1_" fill="#85ACDD" stroke="#000000" stroke-width="5" stroke-miterlimit="10" cx="2152.4" cy="756.2" r="99.1"/>
<ellipse id="L_Eye_1_" transform="matrix(0.4511 0.8925 -0.8925 0.4511 1832.6981 -1548.476)" fill="#231F20" stroke="#231F20" stroke-miterlimit="10" cx="2175.3" cy="715.8" rx="10.7" ry="29.4"/>
<ellipse id="R_Eye_1_" transform="matrix(0.4511 0.8925 -0.8925 0.4511 1888.9403 -1543.7782)" fill="#231F20" stroke="#231F20" stroke-miterlimit="10" cx="2199.6" cy="763.8" rx="10.7" ry="29.4"/>
<g id="Mouth_1_">
	<path fill="#231F20" d="M2177.4,816.9c-31.1,15.3-66.8-1.1-82.5-30.2c-16.3-30.2-7.4-70.5,23.8-86.8c4-2.1,0.5-8.1-3.5-6
		c-35.2,18.3-43.8,62.7-26.4,96.4c17.1,33,58.1,49.5,92.1,32.8C2185,821,2181.5,814.9,2177.4,816.9L2177.4,816.9z"/>
</g>
<g id="L_Dimple_1_">
	<path fill="#231F20" d="M2110.2,694.3c1.3,0.6,1.4,0.8,2.4,1.7c2.1,2,3.3,4.7,4,7.6c1.1,4.4,7.9,2.5,6.8-1.9
		c-1.3-5.1-4.5-11.1-9.6-13.4c-1.7-0.8-3.8-0.5-4.8,1.3C2108,691.1,2108.4,693.5,2110.2,694.3L2110.2,694.3z"/>
</g>
<g id="R_Dimple_1_">
	<path fill="#231F20" d="M2184.5,827.6c1.3-6-1.6-12-5.3-16.6c-2.8-3.5-7.8,1.5-4.9,4.9c1.7,2,3.1,4.6,3.4,7.2
		c0.1,0.7,0.1,1.5,0.1,2.2c0,1.2,0.1-0.2,0,0.3C2176.9,830.1,2183.6,832,2184.5,827.6L2184.5,827.6z"/>
</g>
<g>
	<path fill="#85ACDD" stroke="#000000" stroke-width="5" stroke-miterlimit="10" d="M2083.8,1410.6c-3.3-1.4-7-12.4-14.7-28.5
		c-8-16.9-52.7-32.7-92.2-26.4c-39.5,6.3-63.6,24.2-67.8,46.2c-4.3,22-6.5,27.5,6.2,22.2c12.7-5.3,29.5-7.7,41.8-5.3
		c12.2,2.4,7.8,5.2-11.8,11.1c-19.6,5.9-41.6,1.5-20.3,10.9c21.3,9.3,29.9,25.4,55.5,12.8c25.6-12.6,52.7-17.6,64.5-30.2
		c11.7-12.6,39,15.9,39,15.9"/>
	<path fill="#85ACDD" stroke="#000000" stroke-width="5" stroke-miterlimit="10" d="M2029.6,1648.6c-0.5,7.6-26.7,22.7-57,17.2
		s-77.8-11.8-97.8-43.9c-20-32.1-18.4-72.8-13.2-77.9c5.2-5.1,21.1,9.3,39.3,27.7c18.2,18.4,4.1-10.4-3.5-18.4
		c-7.6-7.9-13.8-19.3,18.3,0.8c32.2,20.1,47.3,24.6,65,52.8c17.7,28.3,21.3,30.2,31.8,28.9c10.5-1.4,21.6-4.2,21.6-4.2"/>
	<path fill="#FCC56B" stroke="#000000" stroke-width="5" stroke-miterlimit="10" d="M2072.5,1575.5c-0.9,6.1-26.5,33.1-40.2,37.4
		c-13.6,4.3-13.8,8.6-20,23c-6.1,14.4-2.7,22.5,13.5,20.8c16.2-1.7,16-10.2,33.1-23.9c17.1-13.7,48.3-52,48.3-52"/>
	<path fill="#FCC56B" stroke="#000000" stroke-width="5" stroke-miterlimit="10" d="M2101.4,1512.7c0,0-4.2-20.8-14.7-38.3
		c-10.5-17.5-24.1-37.1-24.6-44.1c-0.5-7,3.5-21.7,7.8-27.3s28.6,6.7,36.8,22.7c8.2,16,9.3,37.9,10.8,47.9c1.4,10,9.2,49.5,9.2,49.5
		"/>
</g>
<circle id="Face_2_" fill="#85ACDD" stroke="#000000" stroke-width="5" stroke-miterlimit="10" cx="2153.5" cy="1571.8" r="99.1"/>
<ellipse id="L_Eye_2_" transform="matrix(-0.3067 0.9518 -0.9518 -0.3067 4356.2163 -55.2)" fill="#231F20" stroke="#231F20" stroke-miterlimit="10" cx="2198.2" cy="1559" rx="10.7" ry="29.4"/>
<ellipse id="R_Eye_2_" transform="matrix(-0.3067 0.9518 -0.9518 -0.3067 4383.4341 27.5174)" fill="#231F20" stroke="#231F20" stroke-miterlimit="10" cx="2181.7" cy="1610.3" rx="10.7" ry="29.4"/>
<g id="Mouth_3_">
	<path fill="#231F20" d="M2128.7,1632.5c-33.4-11.2-47.1-48.7-37.1-80.9c10-32.3,44.4-53.9,77.5-43.6c4.3,1.3,6.2-5.4,1.9-6.7
		c-36.8-11.4-73.3,12.3-85.6,47.1c-12.7,36,4.5,78.5,41.5,90.9C2131.1,1640.7,2133,1633.9,2128.7,1632.5L2128.7,1632.5z"/>
</g>
<g id="L_Dimple_3_">
	<path fill="#231F20" d="M2167,1498c1.4,3.6-0.1,7.8-1.9,11c-2.3,3.9,3.8,7.4,6,3.5c2.7-4.7,4.7-11.1,2.6-16.4
		C2172.1,1492,2165.4,1493.8,2167,1498L2167,1498z"/>
</g>
<g id="R_Dimple_3_">
	<path fill="#231F20" d="M2126.2,1645.1c5.1-3.4,7.3-9.7,7.9-15.5c0.4-4.5-6.6-4.5-7,0c-0.3,2.9-1.2,5.5-2.8,7.8
		c-0.4,0.5-0.9,1-1.4,1.5c-0.8,0.7,0.5-0.3-0.2,0.1C2118.9,1641.5,2122.4,1647.5,2126.2,1645.1L2126.2,1645.1z"/>
</g>
<g>
	<path fill="#85ACDD" stroke="#000000" stroke-width="5" stroke-miterlimit="10" d="M1646.9,1991.5c-1.3-3.3,4-13.7,10.2-30.4
		c6.6-17.5-13.3-60.6-45.3-84.5s-61.6-28.8-80.4-16.5c-18.8,12.3-24.2,14.5-11.6,20c12.6,5.5,26.1,15.8,32.9,26.3
		c6.8,10.4,1.7,9.2-16.1-0.7s-30-28.7-21.9-7s2.6,39.2,29.5,48.7c26.9,9.6,49.4,25.6,66.6,25.2c17.2-0.4,15.8,39.1,15.8,39.1"/>
	<path fill="#85ACDD" stroke="#000000" stroke-width="5" stroke-miterlimit="10" d="M1438.4,2118.5c-5.8,5-34.9-3.3-52.1-28.9
		c-17.2-25.6-45.7-64-36.7-100.7c9.1-36.7,39.3-63.9,46.6-63.7c7.3,0.2,8.1,21.6,7.5,47.5s10.4-4.3,10.7-15.3
		c0.4-11,4.2-23.4,12.2,13.7s15.3,51,7.4,83.4c-7.9,32.4-6.8,36.4,1.4,42.9c8.3,6.5,18.1,12.5,18.1,12.5"/>
	<path fill="#FCC56B" stroke="#000000" stroke-width="5" stroke-miterlimit="10" d="M1520.8,2098.4c-5,3.6-42.2,4-54.8-2.8
		c-12.6-6.8-15.8-3.9-30.4,1.7c-14.6,5.6-18,13.7-5.5,24.2c12.6,10.4,18.5,4.3,40.2,7.1s70.9-1.6,70.9-1.6"/>
	<path fill="#FCC56B" stroke="#000000" stroke-width="5" stroke-miterlimit="10" d="M1585.9,2075.4c0,0,12-17.5,17.3-37.2
		c5.2-19.7,9.8-43.1,14.5-48.4c4.7-5.3,18-12.6,25-13.5c7-0.9,15.1,25.1,9.3,42.2s-20.7,33.1-26.9,41.1s-29.1,41.1-29.1,41.1"/>
</g>
<circle id="Face_3_" fill="#85ACDD" stroke="#000000" stroke-width="5" stroke-miterlimit="10" cx="1579.9" cy="2153.9" r="99.1"/>
<ellipse id="L_Eye_3_" transform="matrix(-0.8964 0.4433 -0.4433 -0.8964 4037.5762 3410.2859)" fill="#231F20" stroke="#231F20" stroke-miterlimit="10" cx="1620.2" cy="2177.1" rx="10.7" ry="29.4"/>
<ellipse id="R_Eye_3_" transform="matrix(-0.8964 0.4433 -0.4433 -0.8964 3956.5964 3476.9763)" fill="#231F20" stroke="#231F20" stroke-miterlimit="10" cx="1571.9" cy="2201" rx="10.7" ry="29.4"/>
<g id="Mouth_5_">
	<path fill="#231F20" d="M1519,2178.3c-15-31.3,1.8-66.7,31-82.2c30.3-16.1,70.6-6.8,86.6,24.6c2,4,8.1,0.5,6-3.5
		c-18-35.4-62.3-44.3-96.1-27.2c-33.2,16.8-49.9,57.7-33.5,91.8C1514.9,2185.9,1520.9,2182.4,1519,2178.3L1519,2178.3z"/>
</g>
<g id="L_Dimple_5_">
	<path fill="#231F20" d="M1642.2,2112.2c-0.6,1.3-0.8,1.4-1.7,2.4c-2.1,2.1-4.8,3.3-7.6,3.9c-4.4,1.1-2.5,7.8,1.9,6.8
		c5.2-1.3,11.1-4.4,13.5-9.5C1650.1,2111.6,1644.1,2108.1,1642.2,2112.2L1642.2,2112.2z"/>
</g>
<g id="R_Dimple_5_">
	<path fill="#231F20" d="M1508.3,2185.4c6,1.3,12-1.5,16.6-5.2c3.5-2.8-1.5-7.7-4.9-4.9c-2.1,1.6-4.6,3-7.3,3.3
		c-0.7,0.1-1.5,0.1-2.2,0.1c-1.2,0,0.2,0.1-0.3,0C1505.7,2177.6,1503.9,2184.4,1508.3,2185.4L1508.3,2185.4z"/>
</g>
<g>
	<path fill="#85ACDD" stroke="#000000" stroke-width="5" stroke-miterlimit="10" d="M924.4,2085.1c1.4-3.3,12.3-7.2,28.4-14.9
		c16.8-8.1,32.2-53,25.6-92.4c-6.6-39.5-24.7-63.4-46.8-67.4c-22.1-4.1-27.5-6.2-22.2,6.4c5.4,12.7,7.9,29.5,5.7,41.7
		c-2.3,12.3-5.1,7.8-11.2-11.7c-6-19.5-1.9-41.5-11-20.2c-9.2,21.4-25.2,30.1-12.3,55.6c12.9,25.5,18.1,52.6,30.8,64.2
		s-15.6,39.2-15.6,39.2"/>
	<path fill="#85ACDD" stroke="#000000" stroke-width="5" stroke-miterlimit="10" d="M685.9,2032.9c-7.6-0.4-22.9-26.5-17.7-56.9
		s11.2-77.9,43.1-98.2c31.9-20.3,72.6-19.1,77.7-13.9c5.1,5.2-9.1,21.2-27.4,39.5c-18.3,18.3,10.5,4,18.3-3.6
		c7.9-7.7,19.2-14-0.6,18.3c-19.8,32.3-24.1,47.5-52.2,65.4s-30.1,21.6-28.6,32c1.5,10.4,4.4,21.6,4.4,21.6"/>
	<path fill="#FCC56B" stroke="#000000" stroke-width="5" stroke-miterlimit="10" d="M759.4,2075.2c-6.1-0.8-33.3-26.2-37.7-39.9
		s-8.7-13.8-23.2-19.8c-14.5-6-22.5-2.5-20.7,13.7c1.9,16.2,10.4,15.9,24.2,32.9c13.8,17,52.4,47.8,52.4,47.8"/>
	<path fill="#FCC56B" stroke="#000000" stroke-width="5" stroke-miterlimit="10" d="M822.3,2103.5c0,0,20.8-4.3,38.2-15
		c17.4-10.6,36.9-24.4,43.9-25c7-0.6,21.7,3.3,27.4,7.5c5.7,4.2-6.4,28.6-22.4,36.9s-37.8,9.6-47.8,11.2c-10,1.5-49.4,9.6-49.4,9.6"
		/>
</g>
<circle id="Face_4_" fill="#85ACDD" stroke="#000000" stroke-width="5" stroke-miterlimit="10" cx="763.8" cy="2156.2" r="99.1"/>
<ellipse id="L_Eye_4_" transform="matrix(-0.9544 -0.2985 0.2985 -0.9544 861.4042 4533.0825)" fill="#231F20" stroke="#231F20" stroke-miterlimit="10" cx="776.9" cy="2200.8" rx="10.7" ry="29.4"/>
<ellipse id="R_Eye_4_" transform="matrix(-0.9544 -0.2985 0.2985 -0.9544 765.7258 4486.3096)" fill="#231F20" stroke="#231F20" stroke-miterlimit="10" cx="725.5" cy="2184.7" rx="10.7" ry="29.4"/>
<g id="Mouth_7_">
	<path fill="#231F20" d="M702.8,2131.9c10.9-33.5,48.3-47.5,80.5-37.8c32.3,9.8,54.3,43.9,44.3,77.1c-1.3,4.3,5.5,6.2,6.7,1.9
		c11.1-36.9-12.9-73.2-47.8-85.3c-36-12.4-78.5,5.1-90.5,42.2C694.6,2134.3,701.4,2136.2,702.8,2131.9L702.8,2131.9z"/>
</g>
<g id="L_Dimple_7_">
	<path fill="#231F20" d="M837.6,2169c-3.6,1.4-7.8,0-11-1.8c-3.9-2.2-7.5,3.8-3.5,6c4.7,2.7,11.1,4.6,16.4,2.5
		C843.7,2174.1,841.8,2167.4,837.6,2169L837.6,2169z"/>
</g>
<g id="R_Dimple_7_">
	<path fill="#231F20" d="M690.2,2129.4c3.4,5.1,9.7,7.3,15.5,7.8c4.5,0.4,4.5-6.6,0-7c-2.9-0.2-5.5-1.1-7.9-2.8
		c-0.5-0.3-1-0.9-1.5-1.4c-0.1-0.2-0.3-0.3-0.4-0.5c0.7,0.8,0.4,0.6,0.3,0.3C693.8,2122.2,687.7,2125.7,690.2,2129.4L690.2,2129.4z"
		/>
</g>
<g>
	<path fill="#85ACDD" stroke="#000000" stroke-width="5" stroke-miterlimit="10" d="M348,1643.5c3.3-1.3,13.7,3.8,30.5,9.8
		c17.6,6.4,60.4-14,84-46.4c23.6-32.3,28-62,15.5-80.6c-12.5-18.6-14.8-24-20.1-11.4c-5.3,12.7-15.5,26.3-25.9,33.2
		c-10.3,6.9-9.2,1.8,0.5-16.2c9.7-18,28.4-30.4,6.7-22c-21.7,8.4-39.1,3.1-48.4,30.1c-9.2,27-24.9,49.7-24.4,66.9
		c0.6,17.2-38.9,16.3-38.9,16.3"/>
	<path fill="#85ACDD" stroke="#000000" stroke-width="5" stroke-miterlimit="10" d="M218.4,1436.6c-5-5.7,2.9-34.9,28.3-52.4
		c25.4-17.5,63.5-46.5,100.3-37.9c36.8,8.6,64.4,38.5,64.3,45.8c-0.1,7.3-21.5,8.3-47.4,8.1s4.4,10.3,15.4,10.5
		c11,0.3,23.4,3.9-13.5,12.4s-50.8,16-83.3,8.4s-36.4-6.4-42.9,2c-6.4,8.4-12.3,18.2-12.3,18.2"/>
	<path fill="#FCC56B" stroke="#000000" stroke-width="5" stroke-miterlimit="10" d="M239.6,1518.7c-3.7-4.9-4.6-42.2,2.1-54.9
		s3.8-15.8-2.1-30.4c-5.8-14.5-14-17.9-24.2-5.2c-10.3,12.7-4.1,18.5-6.6,40.3c-2.5,21.8,2.5,70.9,2.5,70.9"/>
	<path fill="#FCC56B" stroke="#000000" stroke-width="5" stroke-miterlimit="10" d="M263.4,1583.5c0,0,17.7,11.8,37.4,16.8
		c19.8,5,43.3,9.3,48.6,13.9c5.3,4.6,12.8,17.8,13.8,24.8c0.9,7-25,15.4-42.1,9.9c-17.1-5.6-33.3-20.3-41.4-26.3
		c-8.1-6.1-41.5-28.6-41.5-28.6"/>
</g>
<circle id="Face_5_" fill="#85ACDD" stroke="#000000" stroke-width="5" stroke-miterlimit="10" cx="184.8" cy="1578.5" r="99.1"/>
<ellipse id="L_Eye_5_" transform="matrix(-0.4544 -0.8908 0.8908 -0.4544 -1206.4807 2499.1101)" fill="#231F20" stroke="#231F20" stroke-miterlimit="10" cx="162.1" cy="1619" rx="10.7" ry="29.4"/>
<ellipse id="R_Eye_5_" transform="matrix(-0.4544 -0.8908 0.8908 -0.4544 -1199.3318 2407.5181)" fill="#231F20" stroke="#231F20" stroke-miterlimit="10" cx="137.6" cy="1571.1" rx="10.7" ry="29.4"/>
<g id="Mouth_9_">
	<path fill="#231F20" d="M159.6,1517.9c31.1-15.4,66.8,0.9,82.6,29.9c16.5,30.1,7.7,70.5-23.5,86.9c-4,2.1-0.5,8.1,3.5,6
		c35.1-18.4,43.6-62.8,26-96.4c-17.2-32.9-58.3-49.3-92.2-32.4C152,1513.9,155.5,1519.9,159.6,1517.9L159.6,1517.9z"/>
</g>
<g id="L_Dimple_9_">
	<path fill="#231F20" d="M227.3,1640.2c-0.3-0.1-0.6-0.3-0.8-0.4c-0.9-0.6-0.7-0.5-1.6-1.2c-2.1-2-3.3-4.7-4.1-7.5
		c-1.1-4.4-7.9-2.5-6.7,1.9c1.3,5.1,4.5,11.1,9.7,13.4c1.7,0.8,3.7,0.5,4.8-1.3C229.5,1643.5,229.1,1641,227.3,1640.2L227.3,1640.2z
		"/>
</g>
<g id="R_Dimple_9_">
	<path fill="#231F20" d="M152.5,1507.2c-1.2,6,1.6,12,5.3,16.6c2.9,3.5,7.8-1.5,4.9-4.9c-1.8-2.3-3-4.7-3.5-7.6
		c-0.1-0.6-0.1-1.2,0-1.8c0-1.2-0.1,0.2,0-0.3C160.1,1504.7,153.4,1502.8,152.5,1507.2L152.5,1507.2z"/>
</g>
<g>
	<path fill="#85ACDD" stroke="#000000" stroke-width="5" stroke-miterlimit="10" d="M250.3,923.5c3.3,1.4,7,12.4,14.6,28.5
		c8,16.9,52.6,32.7,92.2,26.5s63.6-24.1,67.9-46.1s6.5-27.5-6.2-22.2s-29.6,7.6-41.8,5.2s-7.8-5.2,11.8-11
		c19.6-5.9,41.6-1.5,20.3-10.8c-21.3-9.4-29.9-25.5-55.5-12.8s-52.8,17.5-64.5,30.1s-39-16-39-16"/>
	<path fill="#85ACDD" stroke="#000000" stroke-width="5" stroke-miterlimit="10" d="M304.9,685.6c0.5-7.6,26.7-22.6,57.1-17.1
		c30.3,5.5,77.8,11.9,97.7,44s18.4,72.8,13.1,77.9c-5.2,5.1-21.1-9.3-39.2-27.8c-18.1-18.5-4.1,10.4,3.5,18.4
		c7.6,7.9,13.8,19.3-18.3-0.8s-47.2-24.6-64.9-52.9c-17.7-28.3-21.3-30.3-31.7-28.9c-10.5,1.4-21.6,4.2-21.6,4.2"/>
	<path fill="#FCC56B" stroke="#000000" stroke-width="5" stroke-miterlimit="10" d="M261.8,758.6c0.9-6.1,26.6-33.1,40.2-37.3
		c13.7-4.3,13.8-8.6,20-23c6.2-14.4,2.7-22.5-13.5-20.8s-16,10.2-33.1,23.9c-17.1,13.6-48.3,51.9-48.3,51.9"/>
	<path fill="#FCC56B" stroke="#000000" stroke-width="5" stroke-miterlimit="10" d="M232.9,821.3c0,0,4.1,20.9,14.6,38.4
		c10.5,17.5,24.1,37.1,24.6,44.2c0.5,7-3.5,21.7-7.8,27.3s-28.6-6.7-36.7-22.7c-8.2-16-9.3-37.9-10.7-47.9
		c-1.4-10-9.1-49.5-9.1-49.5"/>
</g>
<circle id="Face_6_" fill="#85ACDD" stroke="#000000" stroke-width="5" stroke-miterlimit="10" cx="180.8" cy="762.2" r="99.1"/>
<ellipse id="L_Eye_6_" transform="matrix(0.3079 -0.9514 0.9514 0.3079 -643.0726 665.7876)" fill="#231F20" stroke="#231F20" stroke-miterlimit="10" cx="136.1" cy="774.9" rx="10.7" ry="29.4"/>
<ellipse id="R_Eye_6_" transform="matrix(0.3079 -0.9514 0.9514 0.3079 -582.8333 646.097)" fill="#231F20" stroke="#231F20" stroke-miterlimit="10" cx="152.7" cy="723.7" rx="10.7" ry="29.4"/>
<g id="Mouth_11_">
	<path fill="#231F20" d="M205.7,701.5c33.4,11.2,47,48.8,37,80.9c-10.1,32.3-44.4,53.8-77.6,43.5c-4.3-1.3-6.2,5.4-1.9,6.7
		c36.8,11.5,73.3-12.2,85.7-47c12.8-35.9-4.4-78.5-41.4-90.9C203.3,693.3,201.4,700.1,205.7,701.5L205.7,701.5z"/>
</g>
<g id="L_Dimple_11_">
	<path fill="#231F20" d="M167.2,835.9c-1.4-3.6,0.1-7.8,2-11c2.3-3.9-3.8-7.4-6-3.5c-2.7,4.7-4.7,11.1-2.7,16.4
		C162.1,842,168.8,840.2,167.2,835.9L167.2,835.9z"/>
</g>
<g id="R_Dimple_11_">
	<path fill="#231F20" d="M208.2,689c-5.1,3.4-7.3,9.7-7.9,15.5c-0.4,4.5,6.6,4.5,7,0c0.3-2.9,1.2-5.5,2.9-7.8c0.4-0.5,0.9-1,1.4-1.5
		c0.8-0.7-0.5,0.3,0.2-0.1C215.5,692.6,212,686.5,208.2,689L208.2,689z"/>
</g>
<g>
	<path fill="#85ACDD" stroke="#000000" stroke-width="5" stroke-miterlimit="10" d="M688.8,345.4c1.3,3.3-4,13.6-10.4,30.3
		c-6.7,17.5,13,60.6,44.9,84.8c31.9,24.1,61.5,29.1,80.3,16.9c18.8-12.2,24.3-14.4,11.7-19.9c-12.6-5.5-26-16-32.8-26.4
		c-6.8-10.5-1.7-9.2,16.1,0.8c17.8,10,29.9,28.9,21.9,7.1c-8-21.8-2.4-39.2-29.3-48.9s-49.3-25.8-66.5-25.5
		c-17.2,0.3-15.6-39.2-15.6-39.2"/>
	<path fill="#85ACDD" stroke="#000000" stroke-width="5" stroke-miterlimit="10" d="M898,219.4c5.8-4.9,34.8,3.5,51.9,29.2
		s45.4,64.3,36.2,100.9c-9.2,36.7-39.7,63.7-46.9,63.5c-7.3-0.2-8-21.6-7.3-47.5c0.7-25.9-10.4,4.3-10.8,15.2
		c-0.4,11-4.3,23.4-12.1-13.8c-7.8-37.1-15.1-51.1-7-83.4s7-36.3-1.2-42.9c-8.2-6.6-18-12.6-18-12.6"/>
	<path fill="#FCC56B" stroke="#000000" stroke-width="5" stroke-miterlimit="10" d="M815.5,239.2c5-3.6,42.2-3.8,54.8,3
		c12.6,6.9,15.8,4,30.4-1.5c14.6-5.6,18.1-13.7,5.6-24.2c-12.5-10.5-18.5-4.4-40.2-7.3s-70.9,1.2-70.9,1.2"/>
	<path fill="#FCC56B" stroke="#000000" stroke-width="5" stroke-miterlimit="10" d="M750.3,261.9c0,0-12.1,17.5-17.5,37.1
		c-5.3,19.7-10,43.1-14.8,48.3c-4.7,5.2-18,12.5-25.1,13.3c-7,0.8-15-25.2-9.1-42.2c5.9-17,20.8-33,27.1-41c6.2-8,29.3-41,29.3-41"
		/>
</g>
<circle id="Face_7_" fill="#85ACDD" stroke="#000000" stroke-width="5" stroke-miterlimit="10" cx="756.7" cy="183.4" r="99.1"/>
<ellipse id="L_Eye_7_" transform="matrix(0.8986 -0.4389 0.4389 0.8986 2.4721 330.6675)" fill="#231F20" stroke="#231F20" stroke-miterlimit="10" cx="716.5" cy="160" rx="10.7" ry="29.4"/>
<ellipse id="R_Eye_7_" transform="matrix(0.8986 -0.4389 0.4389 0.8986 17.7566 349.5112)" fill="#231F20" stroke="#231F20" stroke-miterlimit="10" cx="764.9" cy="136.3" rx="10.7" ry="29.4"/>
<g id="Mouth_13_">
	<path fill="#231F20" d="M817.7,159.2c14.9,31.3-2.1,66.7-31.4,82.1c-30.4,15.9-70.6,6.4-86.4-25.1c-2-4-8.1-0.5-6,3.5
		c17.8,35.5,62.1,44.6,96,27.6c33.2-16.6,50.2-57.4,34-91.7C821.8,151.6,815.8,155.2,817.7,159.2L817.7,159.2z"/>
</g>
<g id="L_Dimple_13_">
	<path fill="#231F20" d="M694.2,224.8c0.6-1.3,0.8-1.4,1.7-2.3c2.1-2.1,4.8-3.2,7.6-3.9c4.4-1.1,2.5-7.8-1.9-6.7
		c-5.2,1.2-11.2,4.4-13.6,9.5C686.3,225.3,692.3,228.8,694.2,224.8L694.2,224.8z"/>
</g>
<g id="R_Dimple_13_">
	<path fill="#231F20" d="M828.4,152.3c-6-1.3-12,1.5-16.6,5.1c-3.5,2.8,1.4,7.7,4.9,4.9c2.1-1.6,4.6-3,7.3-3.3
		c0.7-0.1,1.5-0.1,2.2-0.1c1.2,0.1-0.2-0.1,0.3,0C830.9,160,832.8,153.2,828.4,152.3L828.4,152.3z"/>
</g>
</svg>
