<?xml version="1.0" encoding="utf-8"?>
<!-- Generator: Adobe Illustrator 18.0.0, SVG Export Plug-In . SVG Version: 6.00 Build 0)  -->
<!DOCTYPE svg PUBLIC "-//W3C//DTD SVG 1.1//EN" "http://www.w3.org/Graphics/SVG/1.1/DTD/svg11.dtd">
<svg version="1.1" id="Layer_1" xmlns="http://www.w3.org/2000/svg" xmlns:xlink="http://www.w3.org/1999/xlink" x="0px" y="0px"
	 viewBox="0 0 3000 3000" enable-background="new 0 0 3000 3000" xml:space="preserve">
<path fill="#E494A9" stroke="#000000" stroke-width="10" stroke-miterlimit="10" d="M1794.3,247.2c-24,11.1-390.8,185.7-454.5,286.1
	c-63.7,100.4,14,113.9-120.1,171.1c-133.9,57.5-214.8,82.9-228.6,214c-13.8,131.2,43.5,140.6,88.5,95
	c45.1-45.3,25.4-132.5,97.7-152.5s134.4-44.3,146.8,30s0,276.9-33.2,366c-31,83.4,77.7,98.2,108,35.9c0,0,0.8,1.1,1.9,2.7l11.6,14
	c10.8,11.9,27.3,25.9,44.8,27.5h8.4c11.3-1.6,22.9-8.9,34-25.9c1.6-2.4,3.2-5.4,5.1-8.6l4.6-4l16.7-8.4c8.4,11.1,22.4,27,38.6,33.5
	l5.7,1.9c10.8,2.7,22.1,0.5,33.5-9.4l1.1-0.3l0.5-1.1c5.9-5.9,12.1-14,17.8-25.4c0,0,73.1,76.9,128.5-41.6
	c55.3-118.5,103.9-316.3,107.4-423.7s-98.5-266.6-48.6-351.7c50.2-85.3,175.7-137.1,175.7-137.1l-49.4-156.8L1794.3,247.2z"/>
<path fill="#7B95BD" stroke="#000000" stroke-width="10" stroke-miterlimit="10" d="M1717.4,162.7c-24,11.1-390.8,185.7-454.5,286.1
	c-63.7,100.4,14,113.9-120.1,171.1c-133.9,57.5-214.8,82.9-228.6,214s43.5,140.6,88.5,95c45.1-45.3,25.4-132.5,97.7-152.5
	s134.4-44.3,146.8,30s0,276.9-33.2,366c-31,83.4,77.7,98.2,108,35.9c0,0,0.8,1.1,1.9,2.7l11.6,14c10.8,11.9,27.3,25.9,44.8,27.5h8.4
	c11.3-1.6,22.9-8.9,34-25.9c1.6-2.4,3.2-5.4,5.1-8.6l4.6-4l16.7-8.4c8.4,11.1,22.4,27,38.6,33.5l5.7,1.9c10.8,2.7,22.1,0.5,33.5-9.4
	l1.1-0.3l0.5-1.1c5.9-5.9,12.1-14,17.8-25.4c0,0,73.1,76.9,128.5-41.6c55.3-118.5,103.9-316.3,107.4-423.7s-98.5-266.6-48.6-351.7
	c50.2-85.3,175.7-137.1,175.7-137.1l-49.4-156.8L1717.4,162.7z"/>
<g>
	<path fill="#EBDC92" d="M1218.6,976.7l31,156.5l59.6,36.7l46.7-41l17.5-8.6l40.5,36.7l37.2-10.5l45.1-88.3l64.5-250.2l-75.3-169.2
		l-164.1-24.6c0,0-52.1-7.3-67.5,109.8s-10.5,165.2-10.5,165.2L1218.6,976.7z"/>
</g>
<g>
	<path fill="#EBDC92" stroke="#000000" stroke-width="10" stroke-miterlimit="10" d="M1469.9,1120.3c0,0,73.1,76.9,128.5-41.6
		c55.3-118.5,103.9-316.3,107.4-423.7s-98.5-266.6-48.6-351.7c49.9-85,176-137.1,176-137.1L1783.8,9.4l-143.3,68.8
		c-24,11.1-390.8,185.7-454.5,286.1c-63.7,100.4,14,113.9-120.1,171.1c-134.1,57.2-214.8,82.9-228.6,214
		c-13.8,131.2,43.5,140.6,88.5,95c45.1-45.3,25.4-132.5,97.7-152.5s134.4-44.3,146.8,30s0,276.9-33.2,366
		c-33.2,89.1,93.1,100.1,113.1,22.1c20-78,102.3-324.7,65-426.7"/>
	<path fill="#EBDC92" stroke="#000000" stroke-width="10" stroke-miterlimit="10" d="M1364.7,1109.5c0,0,58.8,100.4,105.3,10.8
		c46.4-89.6,103.4-301.7,101.7-435.6c-1.6-133.9-21.1-270.4-21.1-270.4"/>
	<path fill="#EBDC92" stroke="#000000" stroke-width="10" stroke-miterlimit="10" d="M1245.6,1124.1c0,0,56.7,86.4,100.4,18.4
		c20.5-31.8,75.3-163.5,83.1-263.9c7.8-100.4,5.4-260.7,3.5-296.3"/>
</g>
<polyline fill="none" stroke="#000000" stroke-width="10" stroke-linecap="round" stroke-linejoin="round" stroke-miterlimit="10" points="
	1197.1,991.3 1253.7,947 1209.7,920 1255.4,894.9 "/>
<polyline fill="none" stroke="#000000" stroke-width="10" stroke-linecap="round" stroke-linejoin="round" stroke-miterlimit="10" points="
	1235.9,822.6 1279.9,805.3 1228.6,774 1276.1,753.8 "/>
<polyline fill="none" stroke="#000000" stroke-width="10" stroke-linecap="round" stroke-linejoin="round" stroke-miterlimit="10" points="
	1334.2,972.4 1380.8,950.5 1335.5,943.8 1380.3,911.1 "/>
<path fill="none" stroke="#000000" stroke-width="10" stroke-linecap="round" stroke-linejoin="round" stroke-miterlimit="10" d="
	M1370.1,831.8c0,0,38.9-22.1,35.9-25.4c-2.7-3.2-33.2-20.5-33.2-20.5l29.4-32.4"/>
<polyline fill="none" stroke="#000000" stroke-width="10" stroke-linecap="round" stroke-linejoin="round" stroke-miterlimit="10" points="
	1451,971.3 1494.2,922.2 1460.2,913.3 1508.2,867.7 "/>
<polyline fill="none" stroke="#000000" stroke-width="10" stroke-linecap="round" stroke-linejoin="round" stroke-miterlimit="10" points="
	1481.8,785.6 1514.7,742.2 1467.7,727.6 1527.4,670.9 "/>
<polyline fill="none" stroke="#000000" stroke-width="10" stroke-linecap="round" stroke-linejoin="round" stroke-miterlimit="10" points="
	1580.6,940.3 1624.3,900.9 1580.8,899.5 1633.5,854.4 "/>
<polyline fill="none" stroke="#000000" stroke-width="10" stroke-linecap="round" stroke-linejoin="round" stroke-miterlimit="10" points="
	1610.5,746.8 1656.7,708.7 1628.1,691.2 1656.7,657.4 "/>
<polyline fill="none" stroke="#000000" stroke-width="10" stroke-linecap="round" stroke-linejoin="round" stroke-miterlimit="10" points="
	899.1,694.9 949.3,681.5 919.4,663.1 959.8,643.4 "/>
<circle fill="#E494A9" stroke="#000000" stroke-width="10" stroke-miterlimit="10" cx="892.6" cy="779.1" r="35.6"/>
<circle fill="#E494A9" stroke="#000000" stroke-width="10" stroke-miterlimit="10" cx="1198.4" cy="1082.8" r="30.8"/>
<circle fill="#E494A9" stroke="#000000" stroke-width="10" stroke-miterlimit="10" cx="1295.3" cy="1083.8" r="32.4"/>
<g>
	<path d="M1976.7,1850.6c-22.9-17.3-47.8-33.2-73.1-47.5c-94.2-52.4-201.1-79.9-309-79.9c-16.5,0-33.2,0.5-49.9,1.9
		c-31.6,2.4-63.2,7.3-93.9,14.3c-89.9,20.8-172.7,60.2-246.4,117.1c-16.2,12.4-31.8,25.9-46.7,39.7
		c-55.1,51.8-100.1,112.3-134.1,179.5c-11.6,23.2-21.9,47-30.5,71.2c-24.6,69.1-37,141.1-37,214.6c0,30.8,2.2,62.1,6.7,92.8
		c6.2,42.9,17,85.6,31.8,126c68.5,187.3,223.2,333.6,413.5,391.9c23.2,7,47.2,13,71,17.3c37.8,7,76.6,10.5,115.2,10.5
		c143.8,0,279.9-47,393.2-135.8c13.8-10.8,27.8-22.7,41-35.1c100.4-93.4,167.1-213.2,192.7-346.8c3.8-20.2,6.7-41,8.6-61.5
		c1.9-20,2.7-39.9,2.7-59.4c0-102-23.5-199.7-69.9-290.1C2119,1985.2,2054.5,1908.9,1976.7,1850.6z"/>
	<path fill="#E494A9" d="M1455.3,1758.8l3-2.2l3.5-0.8c43.5-9.4,88.3-14.3,132.8-14.3c9.4,0,19.2,0.3,28.6,0.5
		c23.7,1.1,47.2,3.5,70.4,7.3c23.2,3.8,46.4,8.9,69.1,15.4c4.6,1.3,9.2,2.7,13.5,4c13.5,4,27,8.9,40.2,14l62.1,23.7l-66.1,8.1
		c-30.5,3.8-61.8,8.4-96.3,13.8c-25.6,4-51.8,8.6-76.9,13.2c-83.7,14.8-170.3,30-256.4,33.7l-33.7,1.3l19.4-27.5
		C1394.3,1812.8,1423.5,1782.3,1455.3,1758.8z"/>
	<path fill="#E494A9" d="M1071.6,2028.7c8.6-13.5,17.5-26.4,27-39.1c28.6-38.1,61.3-72.6,98-103.4l5.9-5.1l7.8,1.3
		c26.7,5.1,55.1,8.4,83.9,10.3l24.8,1.3l-10.8,22.4c-6.7,14.3-13.5,29.1-19.4,44.5c-6.2,15.4-11.6,31.3-17,47.8l-3.2,10.5l-10.8,1.1
		c-58.6,5.7-115,16.7-167.1,32.9l-43.5,13.5L1071.6,2028.7z"/>
	<path fill="#E494A9" d="M1357.6,2934.4c-96.6-40.2-182.4-104.7-248-186.8c-66.4-83.4-110.4-182.7-127.4-287.2l-0.5-3.2l0.8-3.2
		c31.8-138.2,97.4-221.3,195.1-246.7c12.4-3.2,25.6-5.4,38.9-6.5l19.2-1.6l-1.1,19.2c-2.2,32.9-3,68.6-3,112
		c0,121.7,12.4,227,38.1,322.2c17.5,65.6,44.8,127.1,71.5,183.8c12.7,27,25.1,51.5,37.5,75l21.9,40.8L1357.6,2934.4z"/>
	<path fill="#E494A9" d="M2208.8,2444.3c-19.7,147.6-92.8,283.6-205.4,382.7l-9.2,8.1l-10.5-6.5c-44.5-27.3-86.9-60.2-125.8-98
		c-12.7-12.4-25.1-25.1-36.7-38.3c-7.8-8.9-15.4-17.8-22.9-26.7c-7.6-9.2-14.8-18.4-21.9-27.5c-7.3-9.2-14.3-18.6-21.1-28.1
		c-5.9-8.4-11.9-16.7-17.8-24.8c-17.5-25.1-34.5-50.5-51.3-75.6l-8.6-13c-51.3-76.4-109-155.2-185.7-213.7
		c-73.4-56.1-147.6-89.3-220.8-98.2l-16.5-1.9l1.9-16.5c1.1-10,2.4-20,4-30c4.6-30,10.8-59.4,18.6-88.3l3.2-11.6l11.9-0.8
		c17.5-1.1,35.6-1.6,53.4-1.6c69.4,0,140.1,7.8,210.8,22.9c100.1,21.6,199.7,59.4,296.1,111.7c54.5,29.7,106.1,64.5,155.2,100.9
		c9.4,7,18.9,14.3,28.3,21.3c28.1,21.6,55.1,43.5,81.5,65.3c4.3,3.5,8.4,7,12.4,10.5c25.1,21.1,49.1,42.1,71.8,62.9l6.2,5.9
		L2208.8,2444.3z"/>
	<path fill="#E494A9" d="M1218.1,1867l39.1-25.4c26.2-17,53.4-32.1,81.8-44.8c4-1.9,8.1-3.5,12.1-5.4l61-26.2l-41.6,51.8
		c-12.4,15.7-24.6,32.7-35.6,50.7l-5.1,8.1l-9.7-0.3c-9.4-0.3-18.9-0.8-28.3-1.3c-4.6-0.3-9.2-0.5-14-1.1c-4.6-0.3-9.2-0.8-13.8-1.3
		L1218.1,1867L1218.1,1867L1218.1,1867z"/>
	<path fill="#E494A9" d="M970.6,2401.7l5.1-79.9c4.9-77.2,24-151.9,56.7-221.8l2.7-5.7l5.7-2.4c12.4-5.7,23.7-10.3,34.8-14
		c48.6-17,99.6-29.4,156.8-36.4l25.1-3.2l0,0h2.7l-5.7,23.2v0.3l0,0h1.3c-0.8,3.5-1.1,7-1.9,10.8h0.3c-7,30.2-12.1,61.5-15.7,95.8
		l-1.3,14.3l-14.3,0.5c-25.4,0.8-49.9,5.7-73.1,14.3c-5.1,1.9-10.3,4-15.1,6.2c-7.6,3.5-14.8,7.3-21.9,11.3c-2.4,1.3-4.9,3-7,4.3
		c-4.6,3-9.2,6.2-13.8,9.4c-24.8,18.4-47,41.6-65.6,69.6c-6.7,10.3-13,21.1-18.9,32.4L970.6,2401.7L970.6,2401.7L970.6,2401.7z"/>
	<path fill="#E494A9" d="M1959.7,2862.1c-106.6,78-232.9,119.3-365.1,119.3c-55.1,0-109.6-7.3-162.5-21.6l-6.5-1.9l-3.5-5.9
		c-24.8-42.4-46.4-86.4-62.6-119.8c-11.9-24.8-22.7-49.1-32.4-73.1c-9.7-24-18.6-47.8-26.2-71.2c-3.8-11.6-7.6-23.5-10.8-35.1
		c-10.3-34.8-18.1-69.4-23.7-103.6c-9.7-56.9-14-114.7-15.7-168.4c-0.3-7.3-0.3-14.3-0.5-21.3c0-7-0.3-14-0.3-20.8
		c0-3.5,0-6.7,0-10.3c0-3.5,0-6.7,0-10c0.3-36.4,1.3-67.5,3-96.1l1.1-17.8l0,0l17.8-0.3c60.5,7.8,125.8,34.8,194.3,82.6
		c83.9,58.6,144.7,142.8,194.9,217.5l5.4,7.8c4.9,7.3,10,14.6,15.1,22.1c50.2,74.5,103.1,150.1,168.1,212.9
		c33.5,32.4,70.7,61.8,110.1,87.2l20.2,13L1959.7,2862.1z"/>
	<path fill="#E494A9" d="M2097.1,1999c11.6,16.2,22.7,32.7,32.7,49.9c55.3,94.5,84.7,202.7,84.7,312.5c0,5.4,0,11.1-0.3,16.5
		l-0.8,35.6l-26.7-23.5c-19.4-17.3-40.2-34.8-61.8-52.6c-69.6-57.2-152.2-121.7-242.1-173.5c-5.9-3.5-12.1-6.7-18.1-10.3
		c-163.3-90.1-341.7-137.6-516.6-137.6c-12.1,0-24.3,0.3-36.4,0.8l-24.3,0.8l8.1-22.9c7-19.7,14.6-38.9,22.7-56.7
		c5.4-11.9,11.1-23.5,17.3-34.8l4.6-8.6h9.7c12.7,0,25.1-0.5,37.8-1.1c18.9-0.8,38.1-2.4,56.9-4.3c6.2-0.5,12.7-1.3,18.9-1.9
		c63.4-7,126.8-18.4,188.9-29.1c14.8-2.7,29.7-5.1,44.5-7.8c4.9-0.8,9.4-1.6,14.3-2.4c70.2-11.9,129.8-19.2,186.2-23.5l5.1-0.3
		l4.6,2.7c5.7,3.2,11.3,6.7,17,10.3c61.8,38.9,116.3,88.5,160.8,146.3C2089.3,1988.5,2093.1,1993.6,2097.1,1999z"/>
</g>
<circle fill="#E494A9" stroke="#000000" stroke-width="10" stroke-miterlimit="10" cx="1419.7" cy="1077.4" r="32.7"/>
<circle fill="#E494A9" stroke="#000000" stroke-width="10" stroke-miterlimit="10" cx="1525" cy="1079.5" r="31.6"/>
<g>
	<path d="M1868.8,1769.6c-22.9-17.3-47.8-33.2-73.1-47.5c-94.2-52.4-201.1-79.9-309-79.9c-16.5,0-33.2,0.5-49.9,1.9
		c-31.6,2.4-63.2,7.3-93.9,14.3c-89.9,20.8-172.7,60.2-246.4,117.1c-16.2,12.4-31.8,25.9-46.7,39.7
		c-55.1,51.8-100.1,112.3-134.1,179.5c-11.6,23.2-21.9,47-30.5,71.2c-24.6,69.1-37,141.1-37,214.6c0,30.8,2.2,62.1,6.7,92.8
		c6.2,42.9,17,85.6,31.8,126c68.5,187.3,223.2,333.6,413.5,391.9c23.2,7,47.2,13,71,17.3c37.8,7,76.6,10.5,115.2,10.5
		c143.8,0,279.9-47,393.2-135.8c13.8-10.8,27.8-22.7,41-35.1c100.4-93.4,167.1-213.2,192.7-346.8c3.8-20.2,6.7-41,8.6-61.5
		c1.9-20,2.7-39.9,2.7-59.4c0-102-23.5-199.7-69.9-290.1C2011,1904.3,1946.5,1827.9,1868.8,1769.6z"/>
	<path fill="#7B95BD" d="M1347.4,1677.9l3-2.2l3.5-0.8c43.5-9.4,88.3-14.3,132.8-14.3c9.4,0,19.2,0.3,28.6,0.5
		c23.7,1.1,47.2,3.5,70.4,7.3c23.2,3.8,46.4,8.9,69.1,15.4c4.6,1.3,9.2,2.7,13.5,4c13.5,4,27,8.9,40.2,14l62.1,23.7l-66.1,8.1
		c-30.5,3.8-61.8,8.4-96.3,13.8c-25.6,4-51.8,8.6-76.9,13.2c-83.7,14.8-170.3,30-256.4,33.7l-33.7,1.3l19.4-27.5
		C1286.4,1731.8,1315.5,1701.3,1347.4,1677.9z"/>
	<path fill="#7B95BD" d="M963.6,1947.7c8.6-13.5,17.5-26.4,27-39.1c28.6-38.1,61.3-72.6,98-103.4l5.9-5.1l7.8,1.3
		c26.7,5.1,55.1,8.4,83.9,10.3l24.8,1.3l-10.8,22.4c-6.7,14.3-13.5,29.1-19.4,44.5c-6.2,15.4-11.6,31.3-17,47.8l-3.2,10.5l-10.8,1.1
		c-58.6,5.7-115,16.7-167.1,32.9l-43.5,13.5L963.6,1947.7z"/>
	<path fill="#7B95BD" d="M1249.7,2853.5c-96.6-40.2-182.4-104.7-248-186.8c-66.4-83.4-110.4-182.7-127.1-287.4l-0.5-3.2l0.8-3.2
		c31.8-138.2,97.4-221.3,195.1-246.7c12.4-3.2,25.6-5.4,38.9-6.5l19.2-1.6l-1.1,19.2c-2.2,32.9-3,68.5-3,112
		c0,121.7,12.4,227,38.1,322.2c17.5,65.6,44.8,127.1,71.5,183.8c12.7,27,25.1,51.5,37.5,75l21.9,40.8L1249.7,2853.5z"/>
	<path fill="#7B95BD" d="M2100.9,2363.4c-19.7,147.6-92.8,283.6-205.4,382.7l-9.2,8.1l-10.5-6.5c-44.5-27.3-86.9-60.2-125.8-98
		c-12.7-12.4-25.1-25.1-36.7-38.3c-7.8-8.9-15.4-17.8-22.9-26.7c-7.6-9.2-14.8-18.4-21.9-27.5c-7.3-9.2-14.3-18.6-21.1-28.1
		c-5.9-8.4-11.9-16.7-17.8-24.8c-17.5-25.1-34.5-50.5-51.3-75.6l-8.6-13c-51.3-76.4-109-155.2-185.7-213.7
		c-73.4-56.1-147.6-89.3-220.8-98.2l-16.5-1.9l1.9-16.5c1.1-10,2.4-20,4-30c4.6-30,10.8-59.4,18.6-88.3l3.2-11.6l11.9-0.8
		c17.5-1.1,35.6-1.6,53.4-1.6c69.4,0,140.1,7.8,210.8,22.9c100.1,21.6,199.7,59.4,296.1,111.7c54.5,29.7,106.1,64.5,155.2,100.9
		c9.4,7,18.9,14.3,28.3,21.3c28.1,21.6,55.1,43.5,81.5,65.3c4.3,3.5,8.4,7,12.4,10.5c25.1,21.1,49.1,42.1,71.8,62.9l6.2,5.9
		L2100.9,2363.4z"/>
	<path fill="#7B95BD" d="M1110.2,1786.1l39.1-25.4c26.2-17,53.4-32.1,81.8-44.8c4-1.9,8.1-3.5,12.1-5.4l61-26.2l-41.6,51.8
		c-12.4,15.7-24.6,32.7-35.6,50.7l-5.1,8.1l-9.7-0.3c-9.4-0.3-18.9-0.8-28.3-1.3c-4.6-0.3-9.2-0.5-14-1.1c-4.6-0.3-9.2-0.8-13.8-1.3
		L1110.2,1786.1L1110.2,1786.1L1110.2,1786.1z"/>
	<path fill="#7B95BD" d="M862.7,2320.7l5.1-79.9c4.9-77.2,24-151.9,56.7-221.8l2.7-5.7l5.7-2.4c12.4-5.7,23.7-10.3,34.8-14
		c48.6-17,100.9-29.4,158.2-36.4l26.4-3.2l0,0h1.3l-4.9,23.2l0.8,0.3l0,0l0,0c-0.8,3.5-1.9,7-2.7,10.8l0,0
		c-7,30.2-12.1,61.5-15.9,95.8l-1.6,14.3l-14.3,0.5c-25.4,0.8-49.9,5.7-73.1,14.3c-5.1,1.9-10.3,4-15.1,6.2
		c-7.6,3.5-14.8,7.3-21.9,11.3c-2.4,1.3-4.9,3-7,4.3c-4.6,3-9.2,6.2-13.8,9.4c-24.8,18.4-47,41.6-65.6,69.6
		c-6.7,10.3-13,21.1-18.9,32.4L862.7,2320.7L862.7,2320.7L862.7,2320.7z"/>
	<path fill="#7B95BD" d="M1851.8,2781.1c-106.6,78-232.9,119.3-365.1,119.3c-55.1,0-109.6-7.3-162.5-21.6l-6.5-1.9l-3.5-5.9
		c-24.8-42.4-46.4-86.4-62.6-119.8c-11.9-24.8-22.7-49.1-32.4-73.1c-9.7-24-18.6-47.8-26.2-71.2c-3.8-11.6-7.6-23.5-10.8-35.1
		c-10.3-34.8-18.1-69.4-23.7-103.6c-9.7-56.9-14-114.7-15.7-168.4c-0.3-7.3-0.3-14.3-0.5-21.3c0-7-0.3-14-0.3-20.8
		c0-3.5,0-6.7,0-10.3c0-3.5,0-6.7,0-10c0.3-36.4,1.3-68.8,3-97.4l1.1-19.2l0,0l17.8,1.1c60.5,7.8,125.8,35.6,194.3,83.1
		c83.9,58.6,144.7,143,194.9,218.1l5.4,7.8c4.9,7.3,10,14.8,15.1,22.1c50.2,74.5,103.1,150.1,168.1,212.9
		c33.5,32.4,70.7,61.8,110.1,87.2l20.2,13L1851.8,2781.1z"/>
	<path fill="#7B95BD" d="M1989.2,1918c11.6,16.2,22.7,32.7,32.7,49.9c55.3,94.5,84.7,202.7,84.7,312.5c0,5.4,0,11.1-0.3,16.5
		l-0.8,35.6l-26.7-23.5c-19.4-17.3-40.2-34.8-61.8-52.6c-69.6-57.2-152.2-121.7-242.1-173.5c-5.9-3.5-12.1-6.7-18.1-10.3
		c-163.3-90.1-341.7-137.6-516.6-137.6c-12.1,0-24.3,0.3-36.4,0.8l-24.3,0.8l8.1-22.9c7-19.7,14.6-38.9,22.7-56.7
		c5.4-11.9,11.1-23.5,17.3-34.8l4.6-8.6h9.7c12.7,0,25.1-0.5,37.8-1.1c18.9-0.8,38.1-2.4,56.9-4.3c6.2-0.5,12.7-1.3,18.9-1.9
		c63.4-7,126.8-18.4,188.9-29.1c14.8-2.7,29.7-5.1,44.5-7.8c4.9-0.8,9.4-1.6,14.3-2.4c70.2-11.9,129.8-19.2,186.2-23.5l5.1-0.3
		l4.6,2.7c5.7,3.2,11.3,6.7,17,10.3c61.8,38.9,116.3,88.5,160.8,146.3C1981.3,1907.5,1985.1,1912.6,1989.2,1918z"/>
</g>
<g>
	<path d="M1787.8,1688.6c-22.9-17.3-47.8-33.2-73.1-47.5c-94.2-52.4-201.1-79.9-309-79.9c-16.5,0-33.2,0.5-49.9,1.9
		c-31.6,2.4-63.2,7.3-93.9,14.3c-89.9,20.8-172.7,60.2-246.4,117.1c-16.2,12.4-31.8,25.9-46.7,39.7
		c-55.1,51.8-100.1,112.3-134.1,179.5c-11.6,23.2-21.9,47-30.5,71.2c-24.6,69.1-37,141.1-37,214.6c0,30.8,2.2,62.1,6.7,92.8
		c6.2,42.9,17,85.6,31.8,126c68.5,187.3,223.2,333.6,413.5,391.9c23.2,7,47.2,13,71,17.3c37.8,7,76.6,10.5,115.2,10.5
		c143.8,0,279.9-47,393.2-135.8c13.8-10.8,27.8-22.7,41-35.1c100.4-93.4,167.1-213.2,192.7-346.8c3.8-20.2,6.7-41,8.6-61.5
		c1.9-20,2.7-39.9,2.7-59.4c0-102-23.5-199.7-69.9-290.1C1930.1,1823.3,1865.6,1746.9,1787.8,1688.6z"/>
	<path fill="#FCC56B" d="M1266.4,1596.9l3-2.2l3.5-0.8c43.5-9.4,88.3-14.3,132.8-14.3c9.4,0,19.2,0.3,28.6,0.5
		c23.7,1.1,47.2,3.5,70.4,7.3c23.2,3.8,46.4,8.9,69.1,15.4c4.6,1.3,9.2,2.7,13.5,4c13.5,4,27,8.9,40.2,14l62.1,23.7l-66.1,8.1
		c-30.5,3.8-61.8,8.4-96.3,13.8c-25.6,4-51.8,8.6-76.9,13.2c-83.7,14.8-170.3,30-256.4,33.7l-33.7,1.3l19.4-27.5
		C1205.4,1650.9,1234.6,1620.4,1266.4,1596.9z"/>
	<path fill="#FCC56B" d="M882.6,1866.8c8.6-13.5,17.5-26.4,27-39.1c28.6-38.1,61.3-72.6,98-103.4l5.9-5.1l7.8,1.3
		c26.7,5.1,55.1,8.4,83.9,10.3l24.8,1.3l-10.8,22.4c-6.7,14.3-13.5,29.1-19.4,44.5c-6.2,15.4-11.6,31.3-17,47.8l-3.2,10.5l-10.8,1.1
		c-58.6,5.7-115,16.7-167.1,32.9l-43.5,13.5L882.6,1866.8z"/>
	<path fill="#FCC56B" d="M1168.7,2772.5c-96.6-40.2-182.4-104.7-248-186.8c-66.4-83.4-110.4-182.7-127.1-287.4l-0.5-3.2l0.8-3.2
		c31.8-138.2,97.4-221.3,195.1-246.7c12.4-3.2,25.6-5.4,38.9-6.5l19.2-1.6l-1.1,19.2c-2.2,32.9-3,68.6-3,112
		c0,121.7,12.4,227,38.1,322.2c17.5,65.6,44.8,127.1,71.5,183.8c12.7,27,25.1,51.5,37.5,75l21.9,40.8L1168.7,2772.5z"/>
	<path fill="#FCC56B" d="M2019.9,2282.4c-19.7,147.6-92.8,283.6-205.4,382.7l-9.2,8.1l-10.5-6.5c-44.5-27.3-86.9-60.2-125.8-98
		c-12.7-12.4-25.1-25.1-36.7-38.3c-7.8-8.9-15.4-17.8-22.9-26.7c-7.6-9.2-14.8-18.4-21.9-27.5c-7.3-9.2-14.3-18.6-21.1-28.1
		c-5.9-8.4-11.9-16.7-17.8-24.8c-17.5-25.1-34.5-50.5-51.3-75.6l-8.6-13c-51.3-76.4-109-155.2-185.7-213.7
		c-73.4-56.1-147.6-89.3-220.8-98.2l-16.5-1.9l1.9-16.5c1.1-10,2.4-20,4-30c4.6-30,10.8-59.4,18.6-88.3l3.2-11.6l11.9-0.8
		c17.5-1.1,35.6-1.6,53.4-1.6c69.4,0,140.1,7.8,210.8,22.9c100.1,21.6,199.7,59.4,296.1,111.7c54.5,29.7,106.1,64.5,155.2,100.9
		c9.4,7,18.9,14.3,28.3,21.3c28.1,21.6,55.1,43.5,81.5,65.3c4.3,3.5,8.4,7,12.4,10.5c25.1,21.1,49.1,42.1,71.8,62.9l6.2,5.9
		L2019.9,2282.4z"/>
	<path fill="#FCC56B" d="M1029.2,1705.1l39.1-25.4c26.2-17,53.4-32.1,81.8-44.8c4-1.9,8.1-3.5,12.1-5.4l61-26.2l-41.6,51.8
		c-12.4,15.7-24.6,32.7-35.6,50.7l-5.1,8.1l-9.7-0.3c-9.4-0.3-18.9-0.8-28.3-1.3c-4.6-0.3-9.2-0.5-14-1.1c-4.6-0.3-9.2-0.8-13.8-1.3
		L1029.2,1705.1L1029.2,1705.1L1029.2,1705.1z"/>
	<path fill="#FCC56B" d="M781.7,2239.7l5.1-79.9c4.9-77.2,24-151.9,56.7-221.8l2.7-5.7l5.7-2.4c12.4-5.7,23.7-10.3,34.8-14
		c48.6-17,102.3-29.4,159.5-36.4l27.8-3.2l0,0l0,0l-4.3,23.2l1.3,0.3l0,0h-1.3c-0.8,3.5-2.4,7-3.2,10.8h-0.3
		c-7,30.2-12.4,61.5-16.2,95.8l-1.6,14.3l-14.3,0.5c-25.4,0.8-49.9,5.7-73.1,14.3c-5.1,1.9-10.3,4-15.1,6.2
		c-7.6,3.5-14.8,7.3-21.9,11.3c-2.4,1.3-4.9,3-7,4.3c-4.6,3-9.2,6.2-13.8,9.4c-24.8,18.4-47,41.6-65.6,69.6
		c-6.7,10.3-13,21.1-18.9,32.4L781.7,2239.7L781.7,2239.7L781.7,2239.7z"/>
	<path fill="#FCC56B" d="M1770.8,2700.2c-106.6,78-232.9,119.3-365.1,119.3c-55.1,0-109.6-7.3-162.5-21.6l-6.5-1.9l-3.5-5.9
		c-24.8-42.4-46.4-86.4-62.6-119.8c-11.9-24.8-22.7-49.1-32.4-73.1c-9.7-24-18.6-47.8-26.2-71.2c-3.8-11.6-7.6-23.5-10.8-35.1
		c-10.3-34.8-18.1-69.4-23.7-103.6c-9.7-56.9-14-114.7-15.7-168.4c-0.3-7.3-0.3-14.3-0.5-21.3c-0.3-7-0.3-14-0.3-20.8
		c0-3.5,0-6.7,0-10.3c0-3.5,0-6.7,0-10c0.3-36.4,1.3-70.2,3-98.8l1.1-20.5l0,0l17.8,2.4c60.5,7.8,125.8,36.2,194.3,83.9
		c83.9,58.6,144.7,143.3,194.9,218.3l5.4,8.1c4.9,7.3,10,14.8,15.1,22.4c50.2,74.5,103.1,150.1,168.1,213.2
		c33.5,32.4,70.7,61.8,110.1,87.2l20.2,13L1770.8,2700.2z"/>
	<path fill="#FCC56B" d="M1908.2,1837.1c11.6,16.2,22.7,32.7,32.7,49.9c55.3,94.5,84.7,202.7,84.7,312.5c0,5.4,0,11.1-0.3,16.5
		l-0.8,35.6l-26.7-23.5c-19.4-17.3-40.2-34.8-61.8-52.6c-69.6-57.2-152.2-121.7-242.1-173.5c-5.9-3.5-12.1-6.7-18.1-10.3
		c-163.3-90.1-341.7-137.6-516.6-137.6c-12.1,0-24.3,0.3-36.4,0.8l-24.3,0.8l8.1-22.9c7-19.7,14.6-38.9,22.7-56.7
		c5.4-11.9,11.1-23.5,17.3-34.8l4.6-8.6h9.7c12.7,0,25.1-0.5,37.8-1.1c18.9-0.8,38.1-2.4,56.9-4.3c6.2-0.5,12.7-1.3,18.9-1.9
		c63.4-7,126.8-18.4,188.9-29.1c14.8-2.7,29.7-5.1,44.5-7.8c4.9-0.8,9.4-1.6,14.3-2.4c70.2-11.9,129.8-19.2,186.2-23.5l5.1-0.3
		l4.6,2.7c5.7,3.2,11.3,6.7,17,10.3c61.8,38.9,116.3,88.5,160.8,146.3C1900.4,1826.6,1904.1,1831.7,1908.2,1837.1z"/>
</g>
</svg>
