<?xml version="1.0" encoding="utf-8"?>
<!-- Generator: Adobe Illustrator 18.0.0, SVG Export Plug-In . SVG Version: 6.00 Build 0)  -->
<!DOCTYPE svg PUBLIC "-//W3C//DTD SVG 1.1//EN" "http://www.w3.org/Graphics/SVG/1.1/DTD/svg11.dtd">
<svg version="1.1" id="Layer_1" xmlns="http://www.w3.org/2000/svg" xmlns:xlink="http://www.w3.org/1999/xlink" x="0px" y="0px"
	 viewBox="0 0 523.7 511.2" enable-background="new 0 0 523.7 511.2" xml:space="preserve">
<g>
	<g>
		<path fill="#F9A0BB" d="M331.6,160.8c0,0-2.3-21-12.2-31.9s-10.3-27.8,2.9-15.9s25.7,46.9,25.7,46.9"/>
		<path d="M329.1,161.1c0-0.2-2.4-20.3-11.5-30.5c-7.8-8.6-9.6-19.1-6-22.7c1.9-1.9,5.6-2.9,12.5,3.3c13.5,12.2,25.9,46.5,26.4,47.9
			l-4.7,1.7c-0.1-0.3-12.5-34.6-25-45.9c-4.1-3.7-5.7-3.4-5.7-3.4c-1,1,0.1,8.9,6.3,15.8c10.2,11.4,12.7,32.4,12.8,33.3L329.1,161.1
			z"/>
	</g>
	<g>
		<path fill="#F9A0BB" d="M305.7,129.8c0.4-2.5-8.9-19.5-13.8-29.3c-4.9-9.8-21.5-36.4-23.2-41.1c-2.6-7.6,9.1-4.1,15.5,4.2
			s12.8,22.7,18.2,29.5s6.8,15.8,12,29.9"/>
		<path d="M308.1,130.2l-4.9-0.9c0,0.2,0,0.3,0,0.3c-0.2-2.1-5.6-12.6-9.2-19.6c-1.6-3.1-3.1-6-4.3-8.5c-2.3-4.6-7.2-12.9-11.9-21
			c-6.5-11-10.5-17.8-11.4-20.4c-1.6-4.6,1-6.4,1.8-6.9c4.6-2.5,13.3,2.6,18.1,8.8c3.4,4.4,6.8,10.4,10,16.2
			c2.9,5.2,5.7,10.2,8.2,13.3c3.9,5,5.9,11.1,8.4,18.7c1.1,3.5,2.4,7.5,4,11.9l-4.7,1.7c-1.7-4.5-3-8.5-4.1-12.1
			c-2.4-7.5-4.2-12.9-7.5-17.2c-2.7-3.4-5.6-8.6-8.6-14c-3.1-5.6-6.4-11.4-9.6-15.6c-4-5.2-9.6-7.6-11.4-7.5c0,0.2,0.1,0.5,0.2,0.9
			c0.8,2.2,6.2,11.4,10.9,19.5c4.8,8.1,9.8,16.6,12.1,21.3c1.2,2.5,2.7,5.4,4.3,8.4C306.3,123,308.5,127.8,308.1,130.2z"/>
	</g>
	<g>
		<path fill="#F9A0BB" d="M98.7,252.8c-2.5-2.5-14.1-1.7-31.9-2.5c-18.7-0.8-50.5-35.9-60.1-74.8s-2.3-68,16.3-80.4
			s22.8-16.6,22.9-2.9c0.1,13.7,4.4,30.2,11.3,40.6c6.9,10.4,7.8,5.2,5.6-15.1S48.1,78.7,65,94.7s35,17.7,33.3,46.2
			s4.2,55.4-2.9,71.2s29.8,29.8,29.8,29.8"/>
		<path d="M96.9,254.6c-1.3-1.1-8.9-1.2-16.4-1.4c-4.1-0.1-8.7-0.2-14-0.4c-19.8-0.9-52.5-36.4-62.4-76.7
			c-9.4-38.5-2.9-69.6,17.4-83.1c1.7-1.1,3.2-2.2,4.6-3.1c10.3-7,15-10.1,18.7-8.2c2.8,1.5,3.4,5.1,3.4,10.5
			c0.1,13.8,4.5,29.6,10.9,39.2c0.9,1.3,1.6,2.2,2.1,2.8c0.2-2.3,0-7.1-1-16.3c-0.8-7.2-2.9-14.3-4.5-19.5c-2.1-7-3.1-10.1-0.5-11.7
			c2.4-1.5,5.1,0.3,11.3,6.3c4.4,4.2,8.9,7.4,13.3,10.5c11.9,8.4,22.1,15.6,20.8,37.8c-0.7,10.8-0.2,21.1,0.2,31.2
			c0.7,16.4,1.3,30.6-3.3,40.9c-0.9,2-0.9,4,0,6.2c3.8,9.1,21.8,17.7,28.4,20.2l-1.8,4.7c-1.1-0.4-25.9-10-31.3-23
			c-1.4-3.5-1.4-6.9,0.1-10.2c4.1-9.2,3.5-22.8,2.9-38.6c-0.4-10.2-0.9-20.7-0.2-31.7c1.2-19.4-7.1-25.3-18.6-33.4
			c-4.3-3-9.2-6.4-13.9-10.9c-1.6-1.5-2.8-2.6-3.7-3.4c0.3,1.2,0.7,2.5,1.1,3.8c1.6,5.4,3.9,12.8,4.7,20.4c1.8,17,1.4,21.7-1.9,22.9
			c-3.1,1.1-5.8-2.4-8.3-6.1c-6.9-10.3-11.6-27.2-11.7-41.9c0-4.6-0.6-5.8-0.8-6.1C41,85.9,34.9,90,29.1,94c-1.4,1-3,2-4.7,3.1
			C5.9,109.5,0.2,138.5,9.1,174.9c4.3,17.5,13.8,36,26.1,50.7c11.2,13.3,23.3,21.9,31.6,22.2c5.2,0.2,9.8,0.3,13.8,0.4
			c11.5,0.2,17.2,0.3,19.7,2.8L96.9,254.6L96.9,254.6z"/>
	</g>
	<g>
		<path fill="#F9A0BB" d="M262.3,99.7c5.3-5.5-1.3-35-25.8-53.7S175.2-3.4,138,3.5S71.9,39.1,71.7,46.4s21.1,9.3,47,10.2
			s-4.9,10.1-15.9,9.8c-11-0.3-23.6,2.8,13,13s50,18.3,82.8,12.2c32.8-6,36.7-4.7,42.8,3.9c6.1,8.6,11.5,18.8,11.5,18.8"/>
		<path d="M250.6,115.5c-0.1-0.1-5.4-10.1-11.3-18.5c-5.2-7.4-7.6-8.9-40.3-2.9c-26.8,4.9-41,0.6-64.4-6.5
			c-5.7-1.7-12.2-3.7-19.6-5.8c-19.9-5.5-26.7-9-26.1-13.3c0.2-1.2,0.7-4.9,13.9-4.6c6,0.1,16.3-2.4,21.1-4.4
			c-1.2-0.2-3-0.3-5.4-0.4C81.9,57.8,69,54.4,69.2,46.3c0.3-9.2,30.9-38.3,68.4-45.2c35.9-6.7,70.3,19.8,95.5,39.2
			c1.7,1.3,3.3,2.6,4.9,3.8c18.1,13.8,27.5,34.1,28.4,47.2c0.3,3.3,0.1,7.8-2.3,10.2l-3.6-3.5c0.6-0.6,1.2-2.7,0.9-6.4
			c-0.9-12-9.6-30.7-26.5-43.6c-1.6-1.2-3.2-2.5-4.9-3.8C205.6,25.4,172.2-0.3,138.5,6C100.6,13,74.4,41.5,74.2,46.4
			c0,0.3,0.2,2.9,11.6,5c7.3,1.3,17.4,2.1,32.9,2.7c7.8,0.3,12.6,1.2,12.5,5c0,1.3-0.1,4-11.9,7.3c-6.1,1.7-12.6,2.7-16.6,2.6
			c-3.6-0.1-6.1,0.2-7.6,0.5c2.2,1.3,7.6,3.8,21.3,7.5c7.4,2,13.9,4,19.7,5.8c22.7,6.9,36.4,11.1,62,6.4c32.2-5.9,38.1-5.3,45.2,5
			c6.1,8.7,11.4,18.6,11.6,19L250.6,115.5z"/>
	</g>
	<g>
		<path fill="#FFEB97" d="M237.4,180.7c3.9-4.8,6.5-41.9,0.4-54.9c-6.1-13-3-16,3.5-30.3c6.5-14.3,14.8-17.2,24.5-4.1
			s3.3,18.7,4.7,40.6s-5.7,70.7-5.7,70.7"/>
		<path d="M267.3,203.1l-4.9-0.7c0.1-0.5,7.1-48.8,5.7-70.2c-0.5-8-0.1-13.9,0.3-18.6c0.7-8.3,1.1-12.9-4.6-20.6
			c-2.6-3.6-6.6-7.8-10.4-7.4c-3.3,0.3-6.7,4.1-9.8,11c-0.8,1.7-1.5,3.2-2.1,4.6c-4.9,10.4-6.2,13.2-1.3,23.6
			c6.4,13.7,4,51.7-0.8,57.5l-3.9-3.2c2.8-3.4,6-39.5,0.1-52.2c-5.8-12.5-3.7-17,1.3-27.8c0.7-1.4,1.4-2.9,2.1-4.5
			c3.9-8.7,8.6-13.3,13.8-13.9c4.9-0.5,9.9,2.6,14.9,9.4c6.8,9.2,6.3,15.4,5.6,24c-0.4,4.6-0.9,10.3-0.3,17.9
			C274.5,153.8,267.6,201.1,267.3,203.1z"/>
	</g>
	<g>
		<path fill="#FFEB97" d="M199.7,229.4c0,0-20.8,4.2-41,1.3s-43.5-7.9-50.2-5.6c-6.7,2.3-18.6,11.6-22.2,17.7
			c-3.5,6.1,17.2,23.8,35.2,25.1s38.5-6.1,48.3-8.6c9.8-2.6,49.2-10.7,49.2-10.7"/>
		<path d="M125.9,270.6c-1.6,0-3.1-0.1-4.6-0.2c-14.5-1.1-31.9-12.7-36.6-21.6c-1.9-3.5-1.3-5.9-0.5-7.2c3.7-6.5,16-16.3,23.5-18.9
			c5.6-1.9,19.5,0.4,35.7,3c5.2,0.8,10.6,1.7,15.7,2.5c19.5,2.8,40-1.3,40.2-1.3l1,4.9c-0.9,0.2-21.5,4.3-41.9,1.4
			c-5.2-0.7-10.6-1.6-15.8-2.5c-14.2-2.3-28.9-4.7-33.3-3.2c-6.4,2.2-17.7,11.2-20.8,16.6c-0.1,0.2-0.1,1,0.6,2.4
			c3.7,6.9,18.9,17.9,32.6,19c14.3,1.1,30.5-3.7,41.3-6.8c2.4-0.7,4.5-1.3,6.3-1.8c9.8-2.5,47.7-10.4,49.3-10.7l1,4.9
			c-0.4,0.1-39.5,8.2-49.1,10.7c-1.7,0.4-3.8,1-6.1,1.7C154.3,266.4,139.7,270.6,125.9,270.6z"/>
	</g>
	<g>
		<path fill="#FFEB97" d="M514.8,353.9c11,11,7.5,32.5-7.9,47.9c-15.4,15.4-36.8,18.9-47.9,7.9s-12.6-37.6,2.8-53
			C477.2,341.3,503.8,342.8,514.8,353.9z"/>
		<path d="M475.9,418.6c-7.5,0-13.9-2.5-18.6-7.2c-12.2-12.2-13.6-40.1,2.8-56.5c7.7-7.7,18.8-12.1,30.6-12.1
			c10.4,0,20.1,3.5,25.9,9.3c5.9,5.9,8.3,14.6,6.7,24.5c-1.6,9.6-6.7,19.1-14.6,26.9C499.3,413,487,418.6,475.9,418.6z M490.7,347.9
			c-10.5,0-20.3,3.9-27.1,10.6c-15.2,15.2-12.2,40-2.8,49.4c3.7,3.7,8.9,5.7,15.1,5.7c9.8,0,20.8-5.1,29.3-13.6
			c7.1-7.1,11.8-15.7,13.2-24.2c1.4-8.2-0.5-15.4-5.3-20.1C508.2,350.8,499.8,347.9,490.7,347.9z"/>
	</g>
	<g>
		<path fill="#FFEB97" d="M422.2,446.5c11,11,7.5,32.5-7.9,47.9s-36.8,18.9-47.9,7.9s-12.6-37.6,2.8-53S411.1,435.5,422.2,446.5z"/>
		<path d="M383.2,511.2c-7.5,0-13.9-2.5-18.6-7.2c-12.2-12.2-13.6-40.1,2.8-56.5c7.7-7.7,18.8-12.1,30.6-12.1
			c10.4,0,20.1,3.5,25.9,9.3c5.9,5.9,8.3,14.6,6.7,24.5c-1.6,9.6-6.7,19.1-14.6,26.9C406.6,505.6,394.4,511.2,383.2,511.2z
			 M398,440.5c-10.5,0-20.3,3.9-27.1,10.6c-15.2,15.2-12.2,40-2.8,49.4c3.7,3.7,8.9,5.7,15.1,5.7c9.8,0,20.8-5.1,29.3-13.6
			c7.1-7.1,11.8-15.7,13.2-24.2c1.4-8.2-0.5-15.4-5.3-20.1C415.5,443.4,407.2,440.5,398,440.5z"/>
	</g>
	<g>
		
			<ellipse transform="matrix(0.7071 -0.7071 0.7071 0.7071 -169.7043 429.9859)" fill="#FFEB97" cx="434.2" cy="419.8" rx="45.4" ry="43"/>
		<path d="M431.8,466.6c-12,0-23.2-4.6-31.5-12.9c-17.8-17.8-17-47.4,1.7-66.1c9.4-9.4,21.7-14.5,34.6-14.5c12,0,23.2,4.6,31.5,12.9
			c17.8,17.8,17,47.4-1.7,66.1C457,461.4,444.7,466.6,431.8,466.6z M436.6,378.1c-11.6,0-22.6,4.6-31.1,13.1
			c-16.7,16.7-17.5,43.2-1.7,59c7.4,7.4,17.3,11.4,28,11.4c11.6,0,22.6-4.6,31.1-13.1c16.7-16.7,17.5-43.2,1.7-59
			C457.2,382.1,447.3,378.1,436.6,378.1z"/>
	</g>
	<g>
		<path fill="#F9A0BB" d="M446.2,399.4c0,0,12.2-23.4,35.4-19c23.2,4.4,39.3,19.2,20.5,36c-18.8,16.8-33.3,21.8-42.7,11.1
			S441.6,406.8,446.2,399.4z"/>
		<path d="M471.5,435.6c-5.4,0-10.1-2.2-13.8-6.5c-9.4-10.8-19.1-21.9-13.5-30.9c0.9-1.7,11.6-20.8,31.9-20.8c2,0,4.1,0.2,6.2,0.6
			c16.1,3,27.7,10.6,30.2,19.8c1.3,4.7,0.9,12.1-8.5,20.5C490.7,429.9,480.1,435.6,471.5,435.6z M476,382.4
			c-17.8,0-27.4,18-27.5,18.2l-0.1,0.2c-3.5,5.5,3.5,14.2,13,25.1c2.8,3.2,6.1,4.8,10.1,4.8c7.3,0,17.1-5.4,29-16.1
			c6-5.4,8.4-10.6,7.1-15.4c-2-7.2-12.3-13.5-26.3-16.2C479.4,382.6,477.7,382.4,476,382.4z"/>
	</g>
	<g>
		<path fill="#F9A0BB" d="M413.2,432.5c0,0-23.4,12.2-19,35.4c4.4,23.2,19.2,39.3,36,20.5c16.8-18.8,21.8-33.3,11.1-42.7
			C430.4,436.4,420.5,427.9,413.2,432.5z"/>
		<path d="M415.5,499.3C415.4,499.3,415.4,499.3,415.5,499.3c-10.9,0-20.2-12.1-23.8-30.8c-1.9-10.3,1-20.2,8.5-28.6
			c5.2-5.9,10.9-9.1,11.8-9.5c1.8-1.1,3.7-1.6,5.8-1.6c7.8,0,16.6,7.7,25.1,15.2c4,3.5,6.2,7.8,6.5,12.6c0.5,8.9-5.1,19.9-17.3,33.6
			C426.6,496.2,421,499.3,415.5,499.3z M417.7,433.7c-1.2,0-2.2,0.3-3.2,0.9l-0.2,0.1c-0.9,0.5-21.7,11.8-17.7,32.8
			c3,16,10.6,26.8,18.8,26.8c0,0,0,0,0,0c4.1,0,8.4-2.6,12.8-7.5c11.1-12.5,16.5-22.6,16.1-30c-0.2-3.6-1.8-6.6-4.8-9.2
			C432.1,441.1,423.6,433.7,417.7,433.7z"/>
	</g>
	<g>
		<path fill="#F9A0BB" d="M364.9,392.5c0.3,1.7,5.2,20.3,14.5,26.9s17.6-3.8,26.9-11.7c9.3-7.9,26.9-28.9,27.6-34.5s-6.2-20-22-27.6
			"/>
		<path d="M385.4,424c-2.4,0-4.9-0.7-7.4-2.5c-10.7-7.6-15.4-28.2-15.5-28.4l4.9-1c0.6,3,5.4,19.6,13.5,25.3
			c5.9,4.1,11.2-0.2,19.4-7.7c1.4-1.3,2.9-2.6,4.4-3.9c9.7-8.3,26.2-28.5,26.7-32.9c0.5-3.9-5.1-17.6-20.6-25l2.2-4.5
			c17.1,8.2,24.3,23.7,23.5,30.1c-0.9,7-19.8,28.7-28.4,36c-1.4,1.2-2.9,2.5-4.3,3.8C398.1,418.5,392,424,385.4,424z"/>
	</g>
	<g>
		<path fill="#FFEB97" d="M350.8,378.4c0.3,1.7,5.2,20.3,14.5,26.9c9.3,6.5,17.6-3.8,26.9-11.7c9.3-7.9,26.9-28.9,27.6-34.5
			c0.7-5.5-6.2-20-22-27.6"/>
		<path d="M371.3,409.8c-2.4,0-4.9-0.7-7.4-2.5c-10.6-7.4-15.4-28.2-15.5-28.4l4.9-1c0.6,3,5.4,19.6,13.5,25.3
			c5.9,4.1,11.2-0.2,19.4-7.7c1.4-1.3,2.9-2.6,4.4-3.9c9.7-8.3,26.2-28.5,26.7-32.9c0.5-3.9-5.1-17.6-20.6-25l2.2-4.5
			c17.1,8.2,24.3,23.7,23.5,30.1c-0.9,7-19.8,28.7-28.4,36c-1.4,1.2-2.9,2.5-4.3,3.8C383.9,404.3,377.8,409.8,371.3,409.8z"/>
	</g>
	<g>
		<path fill="#F9A0BB" d="M336.7,364.2c0.3,1.7,5.2,20.3,14.5,26.9s17.6-3.8,26.9-11.7c9.3-7.9,26.9-28.9,27.6-34.5s-6.2-20-22-27.6
			"/>
		<path d="M357.1,395.7c-2.4,0-4.9-0.7-7.4-2.5c-10.7-7.6-15.4-28.2-15.5-28.4l4.9-1c0.6,3,5.4,19.6,13.5,25.3
			c5.9,4.1,11.2-0.2,19.4-7.7c1.4-1.3,2.9-2.6,4.4-3.9c9.7-8.3,26.2-28.5,26.7-32.9c0.5-3.9-5.1-17.6-20.6-25l2.2-4.5
			c17.1,8.2,24.3,23.7,23.5,30.1c-0.9,7-19.8,28.7-28.4,36c-1.4,1.2-2.9,2.5-4.3,3.8C369.8,390.2,363.7,395.7,357.1,395.7z"/>
	</g>
	<g>
		<path fill="#FFEB97" d="M322.5,350.1c0.3,1.7,5.2,20.3,14.5,26.9c9.3,6.5,17.6-3.8,26.9-11.7c9.3-7.9,26.9-28.9,27.6-34.5
			c0.7-5.5-6.2-20-22-27.6"/>
		<path d="M343,381.6c-2.4,0-4.9-0.7-7.4-2.5c-10.7-7.6-15.4-28.2-15.5-28.4l4.9-1c0.6,3,5.4,19.6,13.5,25.3
			c5.9,4.1,11.2-0.2,19.4-7.7c1.4-1.3,2.9-2.6,4.4-3.9c9.7-8.3,26.2-28.5,26.7-32.9c0.5-3.9-5.1-17.6-20.6-25l2.2-4.5
			c17.1,8.2,24.3,23.7,23.5,30.1c-0.9,7-19.8,28.7-28.4,36c-1.4,1.2-2.9,2.5-4.3,3.8C355.6,376,349.6,381.6,343,381.6z"/>
	</g>
	<g>
		<path fill="#F9A0BB" d="M308.4,336c0.3,1.7,5.2,20.3,14.5,26.9s17.6-3.8,26.9-11.7c9.3-7.9,26.9-28.9,27.6-34.5s-6.2-20-22-27.6"
			/>
		<path d="M328.8,367.4c-2.4,0-4.9-0.7-7.4-2.5c-10.7-7.6-15.4-28.2-15.5-28.4l4.9-1c0.6,3,5.4,19.6,13.5,25.3
			c5.9,4.1,11.2-0.2,19.4-7.7c1.4-1.3,2.9-2.6,4.4-3.9c9.7-8.3,26.2-28.5,26.7-32.9c0.5-3.9-5.1-17.6-20.6-25l2.2-4.5
			c17.1,8.2,24.3,23.7,23.5,30.1c-0.9,7-19.8,28.7-28.4,36c-1.4,1.2-2.9,2.5-4.3,3.8C341.5,361.9,335.4,367.4,328.8,367.4z"/>
	</g>
	<g>
		<path fill="#FFEB97" d="M294.2,321.8c0.3,1.7,5.2,20.3,14.5,26.9c9.3,6.5,17.6-3.8,26.9-11.7c9.3-7.9,26.9-28.9,27.6-34.5
			c0.7-5.5-6.2-20-22-27.6"/>
		<path d="M314.7,353.3c-2.4,0-4.9-0.7-7.4-2.5c-10.7-7.6-15.4-28.2-15.5-28.4l4.9-1c0.6,3,5.4,19.6,13.5,25.3
			c5.9,4.1,11.2-0.2,19.4-7.7c1.4-1.3,2.9-2.6,4.4-3.9c9.7-8.3,26.2-28.5,26.7-32.9c0.5-3.9-5.1-17.6-20.6-25l2.2-4.5
			c17.1,8.2,24.3,23.7,23.5,30.1c-0.9,7-19.8,28.7-28.4,36c-1.4,1.2-2.9,2.5-4.3,3.8C327.4,347.7,321.3,353.3,314.7,353.3z"/>
	</g>
	<g>
		<path fill="#F9A0BB" d="M371.4,200.6c1.5-4.9,10-23,9.8-28.8c-0.2-5.8-24.9-46.9-14.9-40.4c9.9,6.5,11.4,11.5,19.6,23.9
			c8.2,12.4,9.2,26.9,6.7,33.7s-13.4,19.3-13.4,19.3"/>
		<path d="M381,209.9l-3.8-3.3c3-3.4,11-13.2,13-18.5c2.1-5.8,1.5-19.4-6.5-31.4c-1.8-2.8-3.3-5.1-4.6-7.3
			c-4.1-6.5-6.3-10.2-11.8-14.2c1.7,4.6,5.6,12.2,8.3,17.8c5.1,10.2,7.9,16.1,8,18.7c0.2,4.3-3.1,12.8-7.2,22.7
			c-1.2,3-2.3,5.6-2.7,6.9l-4.8-1.5c0.5-1.5,1.5-4.1,2.8-7.3c2.6-6.4,7-17.1,6.8-20.6c-0.1-1.8-4.4-10.4-7.5-16.7
			c-9.3-18.8-11.4-23.8-8.7-26.2c0.9-0.8,2.5-1.4,5.1,0.3c8.2,5.4,11,9.9,15.7,17.5c1.3,2.1,2.8,4.4,4.5,7.1c8.4,12.8,9.9,28,7,35.9
			C392.2,197.1,381.4,209.4,381,209.9z"/>
	</g>
	<g>
		<path fill="#F9A0BB" d="M401.7,262c0,0,12.2,13,18,19.3c5.8,6.2,19,10.9,20.8,7.5c1.8-3.4,2.7-12.1-4.9-14s-34.3-23.9-34.3-23.9"
			/>
		<path d="M437.6,292.3c-5.8,0-15.1-4.4-19.7-9.4c-5.7-6.2-17.9-19.1-18-19.2l3.6-3.4c0.1,0.1,12.3,13.1,18,19.3
			c5,5.4,14.7,8.4,16.9,7.7c0.8-1.6,1.3-4.8,0.2-7.3c-0.7-1.5-1.9-2.4-3.6-2.9c-7.9-2-32.5-22.1-35.3-24.4l3.2-3.9
			c10.6,8.7,28.1,22.1,33.3,23.4c3.3,0.8,5.7,2.8,7,5.7c1.7,3.9,1,8.9-0.5,11.9c-0.5,0.9-1.6,2.1-3.9,2.4
			C438.4,292.3,438,292.3,437.6,292.3z"/>
	</g>
	<g>
		<path fill="#F9A0BB" d="M261.2,376.3c0,0,1.6,20.8,0.6,30.1c-1,9.4-3.8,16.1-3,25.5c0.7,9.4,6.8,15.4,12,5.9s1.7-24.2,2.6-33.7
			c0.9-9.5-0.8-32.2-0.8-32.2"/>
		<path d="M265.1,445.2c-0.5,0-0.9-0.1-1.2-0.1c-4-0.9-7.1-6-7.7-12.9c-0.5-6.3,0.5-11.4,1.5-16.8c0.6-2.9,1.1-5.9,1.5-9.1
			c1-9-0.6-29.5-0.6-29.7l5-0.4c0.1,0.9,1.6,21.1,0.6,30.6c-0.4,3.5-1,6.6-1.6,9.6c-1,5-1.9,9.8-1.5,15.5c0.4,5,2.4,8.1,3.7,8.4
			c0.7,0.2,2-0.7,3.6-3.5c3.2-5.8,2.7-14.3,2.4-21.8c-0.2-4-0.4-7.7-0.1-11c0.8-9.2-0.8-31.6-0.8-31.8l5-0.4
			c0.1,0.9,1.7,23,0.8,32.6c-0.3,2.9-0.1,6.5,0.1,10.3c0.4,8.2,0.8,17.4-3,24.4C270.2,444.1,267.2,445.2,265.1,445.2z"/>
	</g>
	<g>
		<path fill="#F9A0BB" d="M220.7,348.6c0,0-11.7,16.2-23,17.9s-27.4-11-29.3-1.6s9.4,10.2,19.8,11.1s18.7-1.5,25.1-6.1
			c6.4-4.7,18.4-14.3,18.4-14.3"/>
		<path d="M192.4,378.7c-1.4,0-2.9-0.1-4.4-0.2l-0.2,0c-8.2-0.7-16.6-1.4-20.3-6.2c-1.6-2.1-2.1-4.7-1.5-7.8c0.4-2.1,1.4-3.7,3-4.6
			c3.4-2,8.3-0.4,14,1.5c4.8,1.6,10.2,3.4,14.3,2.7c10.1-1.5,21.2-16.8,21.3-16.9l4,2.9c-0.5,0.7-12.5,17.1-24.6,18.9
			c-5.4,0.8-11.4-1.2-16.7-2.9c-3.7-1.2-8.4-2.8-9.9-1.9c-0.1,0.1-0.4,0.3-0.6,1.2c-0.4,2.2,0.1,3.2,0.6,3.8
			c2.3,3.1,10,3.7,16.7,4.3l0.2,0c9.4,0.8,17.3-1.1,23.5-5.7c6.3-4.6,18.2-14.1,18.3-14.2l3.1,3.9c-0.1,0.1-12.1,9.7-18.5,14.4
			C208.6,376.5,201.1,378.7,192.4,378.7z"/>
	</g>
	<g>
		<path fill="#F9A0BB" d="M182.8,336.9c0,0-19.2,5.9-30,0.3c-10.8-5.6-34.1-21.2-38-16.4c-3.9,4.8,6.6,14.4,13.5,18.7
			c6.8,4.2,31.6,9.5,38.7,11c11.1,2.4,21.5-8,21.5-8"/>
		<path d="M170.3,353.3c-1.3,0-2.6-0.1-4-0.4l-1.6-0.4c-14.5-3.2-31.9-7.3-37.9-11c-5.6-3.5-14.4-10.9-15.4-17.1
			c-0.3-2,0.1-3.8,1.3-5.3c4.1-5,14.9,0.8,32.2,10.8c3.3,1.9,6.5,3.8,8.9,5c9.8,5.1,28-0.4,28.1-0.5l1.5,4.8
			c-0.8,0.3-20.3,6.2-31.9,0.1c-2.5-1.3-5.7-3.2-9.1-5.1c-7.4-4.3-22.8-13.1-25.9-11.9c-0.2,0.2-0.3,0.6-0.2,1.2
			c0.6,3.7,7.3,10.1,13.1,13.7c6,3.7,28.8,8.7,36.3,10.4l1.6,0.4c9.6,2.1,19.1-7.2,19.2-7.3l3.5,3.5
			C189.7,344.6,180.9,353.3,170.3,353.3z"/>
	</g>
	<g>
		<path fill="#F9A0BB" d="M153.1,299.7c0,0-18.7,7.6-28.2,4.4c-9.4-3.2-41.4-16.2-47-20.1s-8.2,4.8-1.7,10.4
			c6.5,5.6,41.5,20.7,51.4,21.2s32.8-8.5,32.8-8.5"/>
		<path d="M128.4,318.1c-0.3,0-0.5,0-0.8,0c-10.4-0.5-45.9-15.7-53-21.8c-5.2-4.5-5.7-10.6-3.3-13.7c1.4-1.9,4.4-3.1,8.1-0.6
			c5.1,3.6,36.5,16.4,46.4,19.7c7,2.4,21.4-2.3,26.4-4.3l1.9,4.6c-0.8,0.3-19.7,7.9-29.9,4.4c-9.5-3.2-41.7-16.2-47.6-20.4
			c-0.7-0.5-1.2-0.5-1.2-0.5c0,0-0.3,0.3-0.4,1.1c-0.1,1.5,0.6,3.8,2.9,5.9c6.3,5.5,40.7,20.2,49.9,20.6c9.3,0.4,31.6-8.2,31.8-8.3
			l1.8,4.7C160.5,309.8,139,318.1,128.4,318.1z"/>
	</g>
	<g>
		<path fill="#FFEB97" d="M226.4,272.1c0,0-58.1,23.6-69.4,26.2s-4.3,9.5,0.4,12.5s68.4-20.9,77.2-26.2
			C243.5,279.2,226.4,272.1,226.4,272.1z"/>
		<path d="M158.9,313.6C158.9,313.6,158.9,313.6,158.9,313.6c-1.2,0-2.1-0.2-2.8-0.7c-2-1.3-8.5-5.8-7.6-11c0.5-3,3.2-5,7.9-6.1
			c10.9-2.5,68.4-25.8,69-26l1-0.4l1,0.4c2.8,1.2,11.9,5.4,12.3,10.9c0.1,1.6-0.4,4-3.7,6C227.7,291.8,170.2,313.6,158.9,313.6z
			 M158.6,308.5c0.1,0,0.2,0,0.3,0c9.5,0,66-21,74.5-26.1c0.9-0.6,1.3-1.1,1.3-1.3c-0.1-1.6-4.3-4.5-8.3-6.3
			c-7.9,3.2-58.1,23.4-68.8,25.9c-3.1,0.7-4,1.6-4.1,2.1C153.3,303.9,155.3,306.4,158.6,308.5z"/>
	</g>
	<g>
		<path fill="#FFEB97" d="M236.7,286.6c-1.8,5.6-11.3,26.4-25.6,33.7c-14.3,7.3-28.5,9.3-28.3,16.6c0.2,7.2,8.6,7.5,18.9,0.7
			c10.3-6.8,28-15.1,34.9-25.4c6.9-10.4,11.9-21.4,11.9-21.4L236.7,286.6z"/>
		<path d="M188.8,345C188.8,345,188.8,345,188.8,345c-5.1,0-8.4-3.1-8.5-8c-0.2-6.6,7.1-9.5,16.3-13.1c4.1-1.6,8.8-3.4,13.4-5.8
			c13.8-7.1,22.8-27.6,24.3-32.3l0.8-2.5l16.8,5.9l-1.1,2.5c-0.2,0.5-5.1,11.3-12.1,21.7c-5.4,8.1-16.6,14.7-26.5,20.6
			c-3.3,2-6.5,3.8-9.1,5.6C197.7,343.1,192.8,345,188.8,345z M238.2,289.7c-3.1,7.7-12.2,25.7-25.9,32.8c-4.8,2.5-9.6,4.4-13.8,6
			c-7.1,2.8-13.2,5.2-13.1,8.2c0,1.6,0.5,3.2,3.5,3.2c3,0,7.2-1.7,11.5-4.5c2.7-1.8,5.9-3.7,9.3-5.7c9.4-5.5,20.1-11.8,24.9-19
			c4.8-7.2,8.7-14.8,10.5-18.5L238.2,289.7z"/>
	</g>
	<g>
		<path fill="#FFEB97" d="M269.6,315.3c0,0-3.2,14.5-11,18.8c-7.8,4.3-32.8,10.4-36.3,12.1c-3.5,1.7-2.5,12.8,3.1,15.1
			s22.8-5.5,32.8-12c10-6.5,16.6-11.4,20.6-20.6C282.8,319.4,269.6,315.3,269.6,315.3z"/>
		<path d="M227.9,364.2C227.9,364.2,227.9,364.2,227.9,364.2c-1.3,0-2.4-0.2-3.4-0.6c-4.3-1.7-6.5-7.1-6.7-11.6
			c-0.2-3.9,1.1-6.9,3.4-8c1.4-0.7,5-1.8,11.3-3.6c8.6-2.5,20.3-5.9,25-8.5c5.6-3.1,9-13.4,9.8-17.2l0.6-2.6l2.6,0.8
			c0.8,0.3,8.2,2.7,10.8,8.4c1.2,2.6,1.1,5.5-0.1,8.4c-4.4,10-11.4,15.1-21.5,21.7C251.4,356.7,236.2,364.2,227.9,364.2z
			 M271.3,318.7c-1.4,4.7-5,14-11.5,17.6c-5.1,2.9-16.7,6.2-26,8.9c-4.6,1.3-9.3,2.7-10.4,3.2c-0.3,0.2-0.9,2-0.5,4.7
			c0.4,2.9,1.8,5.2,3.4,5.8c0.2,0.1,0.7,0.2,1.5,0.2c6.3,0,20-6.2,28.9-12c9.4-6.1,15.9-10.8,19.7-19.5c0.7-1.6,0.7-3,0.2-4.3
			C275.7,321.3,273.3,319.7,271.3,318.7z"/>
	</g>
	<g>
		<path fill="#FFEB97" d="M289.6,330c0,0-18.6,30.7-22.9,35s-8.8,14.3-2.2,14.9s12.2-9.7,17.6-17.5s16.4-26.2,15.6-29.5
			C297.1,329.4,289.6,330,289.6,330z"/>
		<path d="M265.1,382.3C265.1,382.3,265.1,382.3,265.1,382.3c-0.3,0-0.5,0-0.8,0c-3.5-0.3-4.8-2.4-5.2-3.7
			c-1.7-4.6,2.3-11.9,5.9-15.4c2.9-2.9,15.1-22.2,22.5-34.5l0.7-1.1l1.3-0.1c0,0,0.6,0,1.4,0c7.3,0,9.1,3,9.4,4.8
			c1.3,5.8-15.8,31.2-16,31.5c-0.8,1.1-1.6,2.3-2.4,3.5C276.9,374.6,271.8,382.3,265.1,382.3z M291,332.4
			c-3.8,6.2-18.6,30.3-22.5,34.3c-2.9,2.9-5.4,8.3-4.7,10.2c0,0.1,0.1,0.4,0.9,0.4c0.1,0,0.2,0,0.3,0c4.1,0,8.6-6.8,12.6-12.9
			c0.8-1.2,1.6-2.4,2.4-3.6c7.6-11,15-24.8,15.2-27.6C295.1,333,293.7,332.4,291,332.4z"/>
	</g>
	<g>
		<path fill="#FFEB97" d="M333.4,260.3c2-2.3,29.2-39.7,33.1-51.4s4.3-15.6,12.1-12.1c7.8,3.5,6.9,6.1,0.4,15.1
			c-6.5,9.1-31.3,47-40.8,56.6C328.6,278,333.4,260.3,333.4,260.3z"/>
		<path d="M333.8,273.7c-1.2,0-2.3-0.5-3-1.5c-2.1-2.7-0.8-9.1,0.1-12.6l0.2-0.6l0.4-0.4c1.9-2.2,28.9-39.5,32.6-50.5
			c0.3-1,0.6-1.9,0.9-2.8c2.5-7.6,4-12.2,9.2-12.2c1.5,0,3.2,0.5,5.4,1.4c3.1,1.4,6,3,6.8,6c1,3.6-1.5,7.4-5.4,12.8
			c-1.6,2.2-4.1,6-7.4,10.8c-10.5,15.4-26.3,38.7-33.7,46.1C337.5,272.6,335.6,273.7,333.8,273.7z M335.7,261.4
			c-0.6,2.5-1,5.2-1,6.8c0.4-0.3,1-0.8,1.7-1.5c7.1-7.1,23.3-31,33.1-45.3c3.3-4.9,5.9-8.7,7.5-10.9c1.9-2.6,5.1-7.1,4.6-8.6
			c-0.1-0.5-1-1.4-4-2.8c-1.5-0.7-2.6-1-3.4-1c-1.4,0-2.3,2.4-4.4,8.8c-0.3,0.9-0.6,1.8-0.9,2.9
			C364.9,221.4,339.6,256.4,335.7,261.4z"/>
	</g>
	<g>
		<path fill="#FFEB97" d="M339.1,277c0,0,19.5-19.4,28.9-25.4c9.5-6,31.5-3.9,36.7,1.3s2.6,12.1-3,9.1s-18.9-7.8-26.5-3.2
			c-7.6,4.5-29.3,21.8-29.3,21.8L339.1,277z"/>
		<path d="M346.2,283.4l-11.4-5.8l2.4-2.4c0.8-0.8,19.8-19.7,29.4-25.8c5.5-3.5,13.6-4,18-4c8,0,17.9,1.8,21.9,5.7
			c3.2,3.2,4.3,7.3,3,10.6c-0.9,2.2-2.9,3.5-5.2,3.5c-1.2,0-2.5-0.3-3.8-1c-3.3-1.8-10.7-4.8-17.4-4.8c-2.7,0-4.9,0.5-6.6,1.5
			c-7.4,4.4-28.8,21.4-29,21.6L346.2,283.4z M343.3,276.3l2.3,1.2c4.8-3.8,21.6-17,28.3-21c2.5-1.5,5.6-2.2,9.2-2.2
			c7.2,0,15.1,2.9,19.8,5.4c0.7,0.4,1.2,0.4,1.4,0.4c0.2,0,0.4,0,0.6-0.4c0.4-0.9,0.2-3-1.9-5.1c-2.1-2.1-9.5-4.2-18.3-4.2
			c-6.5,0-12,1.2-15.3,3.2C362.2,258.2,348.8,271,343.3,276.3z"/>
	</g>
	<g>
		<path fill="#FFEB97" d="M294.7,224.9c2-2.3,41.9-39.3,42.5-44.8c0.6-5.5-8.9-21.8-5.2-26s12.7-4.6,16.2,5.8s7.3,19.4-1.7,31.1
			c-9.1,11.7-30.9,35.2-36.6,40.1S294.7,224.9,294.7,224.9z"/>
		<path d="M306.4,234.9c-6.4,0-12.9-7.5-13.6-8.3l-1.4-1.6l1.4-1.6c0.5-0.6,2.3-2.3,6.3-6.2c8.5-8.1,34.1-32.8,35.6-37.3
			c0.1-1.8-1.4-5.9-2.7-9.5c-2.6-7.3-5.1-14.2-2-17.7c2-2.3,5-3.6,8.2-3.6c5.5,0,10.1,3.8,12.2,10.2l0.6,1.8
			c3.3,9.6,6.6,19.6-2.7,31.6c-8.9,11.5-30.9,35.3-37,40.4C309.9,234.3,308.2,234.9,306.4,234.9z M298.2,225
			c2.4,2.3,5.8,4.9,8.2,4.9c0.7,0,1.2-0.2,1.8-0.6c5.4-4.6,26.9-27.6,36.3-39.7c7.7-9.9,5.2-17.4,1.9-27l-0.6-1.8
			c-1.4-4.3-4.2-6.8-7.5-6.8c-1.7,0-3.4,0.7-4.4,1.9c-1.2,1.3,1.7,9.4,2.9,12.8c1.7,4.8,3.2,9,2.9,11.8c-0.4,3.9-9.7,14-37.1,40.3
			C300.9,222.3,299.3,223.9,298.2,225z"/>
	</g>
	<g>
		<path fill="#FFEB97" d="M284.2,205.7c2.8-4,18.5-46.2,20-62.4s1.9-24.4,9.3-25.7c7.3-1.3,6.9,13.8,3.9,29
			c-3,15.1-2.6,33.2-20.5,62.6"/>
		<path d="M299,210.5l-4.3-2.6c14.3-23.4,16.7-39.6,18.7-52.7c0.5-3.2,0.9-6.2,1.5-9.1c3-14.9,2.3-23.6,0.3-25.7
			c-0.2-0.2-0.5-0.5-1.3-0.3c-5,0.9-5.7,6.8-7,21.5l-0.2,2c-1.5,15.9-17.1,58.8-20.4,63.6l-4.1-2.9c2.4-3.4,18.1-45.1,19.6-61.1
			l0.2-2c1.4-15.2,2.2-24.4,11.1-25.9c2.2-0.4,4.2,0.2,5.7,1.8c4.9,5,3.3,19.1,1.1,30.2c-0.6,2.8-1,5.8-1.5,8.9
			C316.3,169.4,313.8,186.2,299,210.5z"/>
	</g>
	<g>
		<path fill="#FFEB97" d="M208,193.7c0,0-10.7-14.2-18.3-26.1c-7.6-11.9,5.2-11.2,18,4.2c12.8,15.4,21.9,21.6,21.9,21.6"/>
		<path d="M228.3,195.4c-0.4-0.3-9.5-6.5-22.5-22c-7.5-9-14.1-11.8-15.9-11.6c0,0.5,0.2,1.8,1.9,4.4c7.5,11.7,18.1,25.8,18.2,26
			l-4,3c-0.1-0.1-10.9-14.4-18.4-26.3c-4.4-6.9-2.4-9.9-0.8-11.1c4.5-3.3,14.3,2.1,22.8,12.4c12.4,14.9,21.3,21,21.4,21.1
			L228.3,195.4z"/>
	</g>
	<g>
		<path fill="#F9A0BB" d="M184,208.1c-12.7,28.3,27.6,76.6,59.3,98s40.2,38.8,57.8,24c17.6-14.8,49.3-34.1,44.8-49.6
			c-3.4-11.7-16.9-36.2-36.9-59.6s-59.7-54.7-79.6-52c-10.4,1.4-10,14.8-16.9,21.7C202.3,200.9,192.1,189.9,184,208.1z"/>
		<path d="M288.7,338.1L288.7,338.1c-8,0-15.4-6-25.8-14.2c-5.9-4.7-12.6-10-21-15.7c-17-11.5-35-29.5-47-47
			c-18.7-27.4-17.5-44.5-13.2-54c5.3-11.9,12-12.8,17.8-13.6c3.9-0.5,7.6-1,11.3-4.7c2.3-2.3,3.8-5.8,5.3-9.1
			c2.5-5.8,5.3-12.3,13.1-13.3c0.9-0.1,1.9-0.2,2.8-0.2c22,0,60,30.8,79,53.1c19.7,23.1,33.7,48,37.4,60.5
			c4,13.9-15.8,29.1-33.2,42.5c-4.5,3.4-8.7,6.7-12.4,9.8C297.8,336.2,293.3,338.1,288.7,338.1z M232,171.2c-0.8,0-1.5,0-2.2,0.1
			c-4.7,0.6-6.6,4.3-9.1,10.3c-1.6,3.8-3.3,7.6-6.3,10.7c-4.9,4.9-9.8,5.6-14.2,6.2c-5.4,0.7-9.8,1.3-13.9,10.7
			c-5.3,11.8-0.7,29.3,12.8,49.2c11.6,17.1,29.1,34.6,45.6,45.7c8.6,5.8,15.4,11.2,21.4,16c9.9,7.9,16.4,13.1,22.7,13.1
			c3.4,0,6.8-1.6,10.8-4.9c3.7-3.1,8-6.4,12.5-9.9c15.4-11.8,34.5-26.5,31.5-37.1c-4.6-15.9-21.8-41.6-36.4-58.7
			c-9.9-11.6-23.9-24.4-37.6-34.1C254.1,177.3,240.7,171.2,232,171.2z"/>
	</g>
	<g>
		<g>
			<path fill="#FFEB97" d="M405.4,291.1c-17-5.4-40-25.6-66.4-57.2c-26.4-31.6-48.4-55.3-74-75.8c-25.6-20.5-46.6-24-56.1-18.9
				c-7.1,3.8,4.9,23.4,12.1,34.1c1.9-3.8,4.4-6.2,8.4-4.5c-8.9-15.3-11.5-20.6-0.1-18.1c11.4,2.5,30.1,19.1,41.4,26.9
				c11.2,7.8,58.8,59.6,76.8,81.4c18,21.7,54.6,40.5,62,43.5C416.9,305.5,422.4,296.5,405.4,291.1z"/>
			<path d="M412.4,305.6C412.4,305.6,412.4,305.6,412.4,305.6c-1.3,0-2.5-0.3-3.8-0.8c-8.7-3.5-45.1-22.8-62.9-44.2
				c-19.2-23.1-65.9-73.7-76.3-80.9c-3.1-2.1-6.6-4.9-10.4-7.8c-9.9-7.6-22.3-17.1-30-18.8c-1.6-0.4-2.9-0.5-3.8-0.5
				c-0.3,0-0.6,0-0.7,0.1c0,2.2,4.4,9.8,7.3,14.9l3.8,6.5l-6.9-3c-0.6-0.3-1.1-0.4-1.6-0.4c-0.8,0-2,0.4-3.7,3.7l-1.9,3.8l-2.4-3.6
				c-16.6-24.8-14.9-31.3-14.4-33.5c0.5-1.9,1.6-3.4,3.2-4.2c3-1.6,6.7-2.4,11-2.4c18.2,0,37.8,13.5,47.8,21.5
				c23.1,18.5,44.7,40.6,74.4,76.2c26.6,31.8,49.1,51.3,65.2,56.5c3.3,1.1,14,5,12.9,11.9C418.6,303.6,415.8,305.6,412.4,305.6z
				 M225,147.7c1.3,0,2.9,0.2,4.9,0.6c8.9,1.9,21.2,11.4,32,19.7c3.8,2.9,7.3,5.6,10.2,7.6c11.6,8.1,59.6,60.5,77.3,81.8
				c17.2,20.7,52.5,39.4,61,42.8c0.7,0.3,1.3,0.4,1.9,0.4c0,0,0,0,0,0c1,0,1.7-0.4,1.7-0.8c0.2-1-1.9-4-9.5-6.4
				c-17.2-5.5-40-25-67.5-58c-29.5-35.3-50.8-57.2-73.7-75.5c-16.2-13-32.5-20.4-44.7-20.4c-3.4,0-6.4,0.6-8.6,1.8
				c-0.3,0.1-0.6,0.4-0.7,1c-0.5,1.9-0.2,8.1,11.6,26.3c1-1.2,2.3-2.2,4-2.7c-4.8-8.4-6.8-12.9-5-16
				C220.8,148.5,222.5,147.7,225,147.7z"/>
		</g>
		<g>
			<path fill="#FFEB97" d="M185.6,178.9c-18.6-5.6-31.7-0.6-27.1,14c2.5,8,21.2,31.2,38.1,53c12.6,16.3,24.2,31.9,27.3,39.8
				c0.3,0.7,0.5,1.4,0.6,2c3.5,15.7,60,112.1,82.9,122.9s39.2,16.9,22,5.7c-17.2-11.3-43.1-33.5-51.8-51.8
				c-7.1-15-27.7-40.5-36.1-60c-1.8-4.3-3.1-8.2-3.5-11.7c-2.3-19.6-27.3-46.4-37.5-57.9c-3.5-3.9-9.8-10.8-16.1-18
				c-12.1-13.9-24.1-29.2-16.3-27.7c10.6,2.1,16.6-2.6,24.8,7.2c3.7-1,8-0.6,12.2-1.7C202.9,189.7,197.8,182.6,185.6,178.9z"/>
			<path d="M336.1,424.8c-3.7,0-18.2-6.5-29.7-11.9c-14-6.6-37.2-40.8-49.7-60.5c-17.1-27-32.6-55.7-34.5-64.1
				c-0.1-0.4-0.3-1-0.5-1.6c-3-7.6-14.7-23.4-27-39.2c-2.5-3.2-5-6.5-7.6-9.7c-15.4-19.8-28.7-36.8-31-44.1
				c-2.2-6.9-0.5-11.2,1.2-13.6c2.8-3.8,7.9-5.8,14.7-5.8c4.3,0,9.1,0.8,14.2,2.3c12.9,3.9,18.6,11.5,21.1,17.1l1.2,2.7l-2.9,0.7
				c-2.3,0.6-4.6,0.8-6.8,0.9c-1.9,0.2-3.8,0.3-5.4,0.7l-1.5,0.4l-1-1.2c-4.4-5.3-7.9-5.7-12.6-5.7c-0.4,0-0.9,0-1.4,0
				c-2.5,0-5.3,0-8.6-0.5c1.1,2.5,4.9,8.6,17.8,23.4c4.5,5.2,8.9,10.1,12.5,14.1c1.4,1.5,2.6,2.9,3.6,4l2,2.2
				c11.8,13.2,33.9,37.8,36.2,57.1c0.4,3,1.5,6.7,3.3,11c4.6,10.7,13.2,23.6,20.8,34.9c6.2,9.3,12.1,18.1,15.3,24.9
				c8.8,18.6,35.3,40.6,50.9,50.8c7.3,4.8,8.9,6.4,8.2,8.6C338.7,423.8,337.8,424.8,336.1,424.8z M172.1,179.2
				c-5.1,0-8.9,1.3-10.7,3.8c-1.6,2.2-1.7,5.2-0.5,9.2c2,6.4,16.3,24.8,30.1,42.5c2.5,3.2,5.1,6.5,7.6,9.8
				c14.4,18.6,24.6,32.7,27.7,40.4c0.3,0.9,0.6,1.6,0.7,2.3c3.3,14.5,59.4,110.7,81.5,121.2c6,2.8,10.8,5,14.6,6.6
				c-16.3-11.5-39.4-31.8-47.7-49.4c-3.1-6.5-8.8-15.1-14.9-24.3c-7.7-11.6-16.4-24.7-21.2-35.7c-2.1-4.8-3.3-8.9-3.7-12.4
				c-2.1-17.7-24.3-42.4-34.9-54.3l-2-2.2c-1-1.1-2.2-2.4-3.5-3.9c-3.6-4-8-8.9-12.5-14.1c-19.7-22.8-20.2-27.2-19.1-29.8
				c0.3-0.6,1.2-2.1,3.7-2.1c0.4,0,0.9,0.1,1.4,0.2c3.2,0.6,6,0.6,8.5,0.6c0.5,0,0.9,0,1.4,0c5.2,0,10,0.5,15.4,6.3
				c1.6-0.3,3.1-0.4,4.7-0.5c0.9-0.1,1.8-0.1,2.8-0.3c-2.6-4.2-7.5-8.8-16.4-11.5C180.2,179.9,175.9,179.2,172.1,179.2z"/>
		</g>
	</g>
</g>
</svg>
