<?xml version="1.0" encoding="utf-8"?>
<!-- Generator: Adobe Illustrator 18.0.0, SVG Export Plug-In . SVG Version: 6.00 Build 0)  -->
<!DOCTYPE svg PUBLIC "-//W3C//DTD SVG 1.1//EN" "http://www.w3.org/Graphics/SVG/1.1/DTD/svg11.dtd">
<svg version="1.1" id="Layer_1" xmlns="http://www.w3.org/2000/svg" xmlns:xlink="http://www.w3.org/1999/xlink" x="0px" y="0px"
	 viewBox="0 0 3670.5 2451.4" enable-background="new 0 0 3670.5 2451.4" xml:space="preserve">
<g>
	<circle fill="#85ACDD" cx="3533" cy="2021" r="84.7"/>
	<path d="M3533,2108.2c-48.1,0-87.2-39.1-87.2-87.2s39.1-87.2,87.2-87.2s87.2,39.1,87.2,87.2S3581.1,2108.2,3533,2108.2z
		 M3533,1938.7c-45.3,0-82.2,36.9-82.2,82.2s36.9,82.2,82.2,82.2s82.2-36.9,82.2-82.2S3578.4,1938.7,3533,1938.7z"/>
</g>
<g>
	<circle fill="#85ACDD" cx="3522" cy="2168" r="84.7"/>
	<path d="M3522,2255.2c-48.1,0-87.2-39.1-87.2-87.2s39.1-87.2,87.2-87.2s87.2,39.1,87.2,87.2S3570.1,2255.2,3522,2255.2z
		 M3522,2085.7c-45.3,0-82.2,36.9-82.2,82.2s36.9,82.2,82.2,82.2s82.2-36.9,82.2-82.2S3567.4,2085.7,3522,2085.7z"/>
</g>
<g>
	<circle fill="#85ACDD" cx="3482.7" cy="296.6" r="84.7"/>
	<path d="M3482.7,383.8c-48.1,0-87.2-39.1-87.2-87.2s39.1-87.2,87.2-87.2s87.2,39.1,87.2,87.2S3530.8,383.8,3482.7,383.8z
		 M3482.7,214.4c-45.3,0-82.2,36.9-82.2,82.2s36.9,82.2,82.2,82.2s82.2-36.9,82.2-82.2S3528,214.4,3482.7,214.4z"/>
</g>
<g>
	<circle fill="#85ACDD" cx="3398.7" cy="218.6" r="84.7"/>
	<path d="M3398.7,305.8c-48.1,0-87.2-39.1-87.2-87.2s39.1-87.2,87.2-87.2s87.2,39.1,87.2,87.2S3446.8,305.8,3398.7,305.8z
		 M3398.7,136.4c-45.3,0-82.2,36.9-82.2,82.2s36.9,82.2,82.2,82.2s82.2-36.9,82.2-82.2S3444,136.4,3398.7,136.4z"/>
</g>
<g>
	<circle fill="#85ACDD" cx="3425.4" cy="2252.6" r="84.7"/>
	<path d="M3425.4,2339.8c-48.1,0-87.2-39.1-87.2-87.2s39.1-87.2,87.2-87.2s87.2,39.1,87.2,87.2S3473.5,2339.8,3425.4,2339.8z
		 M3425.4,2170.3c-45.3,0-82.2,36.9-82.2,82.2s36.9,82.2,82.2,82.2s82.2-36.9,82.2-82.2S3470.7,2170.3,3425.4,2170.3z"/>
</g>
<g>
	<circle fill="#85ACDD" cx="251.3" cy="324.1" r="84.7"/>
	<path d="M251.3,411.3c-48.1,0-87.2-39.1-87.2-87.2s39.1-87.2,87.2-87.2s87.2,39.1,87.2,87.2S299.4,411.3,251.3,411.3z M251.3,241.9
		c-45.3,0-82.2,36.9-82.2,82.2s36.9,82.2,82.2,82.2s82.2-36.9,82.2-82.2S296.6,241.9,251.3,241.9z"/>
</g>
<g>
	<circle fill="#85ACDD" cx="244.3" cy="202.1" r="84.7"/>
	<path d="M244.3,289.3c-48.1,0-87.2-39.1-87.2-87.2s39.1-87.2,87.2-87.2s87.2,39.1,87.2,87.2S292.4,289.3,244.3,289.3z M244.3,119.9
		c-45.3,0-82.2,36.9-82.2,82.2s36.9,82.2,82.2,82.2s82.2-36.9,82.2-82.2S289.6,119.9,244.3,119.9z"/>
</g>
<g>
	<circle fill="#85ACDD" cx="3453" cy="1203.3" r="84.7"/>
	<path d="M3453,1290.6c-48.1,0-87.2-39.1-87.2-87.2s39.1-87.2,87.2-87.2s87.2,39.1,87.2,87.2S3501,1290.6,3453,1290.6z M3453,1121.1
		c-45.3,0-82.2,36.9-82.2,82.2s36.9,82.2,82.2,82.2s82.2-36.9,82.2-82.2S3498.3,1121.1,3453,1121.1z"/>
</g>
<g>
	<circle fill="#85ACDD" cx="3567.6" cy="864.2" r="84.7"/>
	<path d="M3567.6,951.4c-48.1,0-87.2-39.1-87.2-87.2s39.1-87.2,87.2-87.2s87.2,39.1,87.2,87.2S3615.7,951.4,3567.6,951.4z
		 M3567.6,781.9c-45.3,0-82.2,36.9-82.2,82.2s36.9,82.2,82.2,82.2s82.2-36.9,82.2-82.2S3612.9,781.9,3567.6,781.9z"/>
</g>
<g>
	<circle fill="#85ACDD" cx="3549.3" cy="1001.9" r="84.7"/>
	<path d="M3549.3,1089.1c-48.1,0-87.2-39.1-87.2-87.2s39.1-87.2,87.2-87.2s87.2,39.1,87.2,87.2S3597.4,1089.1,3549.3,1089.1z
		 M3549.3,919.7c-45.3,0-82.2,36.9-82.2,82.2s36.9,82.2,82.2,82.2s82.2-36.9,82.2-82.2S3594.6,919.7,3549.3,919.7z"/>
</g>
<g>
	<circle fill="#85ACDD" cx="3549.7" cy="1878.1" r="84.7"/>
	<path d="M3549.7,1965.3c-48.1,0-87.2-39.1-87.2-87.2s39.1-87.2,87.2-87.2s87.2,39.1,87.2,87.2S3597.7,1965.3,3549.7,1965.3z
		 M3549.7,1795.9c-45.3,0-82.2,36.9-82.2,82.2s36.9,82.2,82.2,82.2s82.2-36.9,82.2-82.2S3595,1795.9,3549.7,1795.9z"/>
</g>
<g>
	<circle fill="#85ACDD" cx="3522.3" cy="1752.9" r="84.7"/>
	<path d="M3522.3,1840.2c-48.1,0-87.2-39.1-87.2-87.2s39.1-87.2,87.2-87.2s87.2,39.1,87.2,87.2S3570.4,1840.2,3522.3,1840.2z
		 M3522.3,1670.7c-45.3,0-82.2,36.9-82.2,82.2s36.9,82.2,82.2,82.2s82.2-36.9,82.2-82.2S3567.6,1670.7,3522.3,1670.7z"/>
</g>
<g>
	<circle fill="#85ACDD" cx="3549.3" cy="1624.5" r="84.7"/>
	<path d="M3549.3,1711.8c-48.1,0-87.2-39.1-87.2-87.2s39.1-87.2,87.2-87.2s87.2,39.1,87.2,87.2S3597.4,1711.8,3549.3,1711.8z
		 M3549.3,1542.3c-45.3,0-82.2,36.9-82.2,82.2s36.9,82.2,82.2,82.2s82.2-36.9,82.2-82.2S3594.6,1542.3,3549.3,1542.3z"/>
</g>
<g>
	<circle fill="#85ACDD" cx="3533.4" cy="1384.9" r="84.7"/>
	<path d="M3533.4,1472.1c-48.1,0-87.2-39.1-87.2-87.2s39.1-87.2,87.2-87.2s87.2,39.1,87.2,87.2S3581.5,1472.1,3533.4,1472.1z
		 M3533.4,1302.7c-45.3,0-82.2,36.9-82.2,82.2s36.9,82.2,82.2,82.2s82.2-36.9,82.2-82.2S3578.7,1302.7,3533.4,1302.7z"/>
</g>
<g>
	<circle fill="#85ACDD" cx="167" cy="1307.6" r="84.7"/>
	<path d="M167,1394.9c-48.1,0-87.2-39.1-87.2-87.2c0-48.1,39.1-87.2,87.2-87.2s87.2,39.1,87.2,87.2
		C254.2,1355.7,215,1394.9,167,1394.9z M167,1225.4c-45.3,0-82.2,36.9-82.2,82.2s36.9,82.2,82.2,82.2s82.2-36.9,82.2-82.2
		S212.3,1225.4,167,1225.4z"/>
</g>
<g>
	<circle fill="#85ACDD" cx="130.3" cy="1424.7" r="84.7"/>
	<path d="M130.3,1511.9c-48.1,0-87.2-39.1-87.2-87.2s39.1-87.2,87.2-87.2s87.2,39.1,87.2,87.2S178.4,1511.9,130.3,1511.9z
		 M130.3,1342.5c-45.3,0-82.2,36.9-82.2,82.2s36.9,82.2,82.2,82.2s82.2-36.9,82.2-82.2S175.7,1342.5,130.3,1342.5z"/>
</g>
<g>
	<circle fill="#85ACDD" cx="136.7" cy="1956.6" r="84.7"/>
	<path d="M136.7,2043.8c-48.1,0-87.2-39.1-87.2-87.2s39.1-87.2,87.2-87.2s87.2,39.1,87.2,87.2S184.8,2043.8,136.7,2043.8z
		 M136.7,1874.3c-45.3,0-82.2,36.9-82.2,82.2s36.9,82.2,82.2,82.2s82.2-36.9,82.2-82.2S182,1874.3,136.7,1874.3z"/>
</g>
<g>
	<circle fill="#85ACDD" cx="198.8" cy="1098.2" r="84.7"/>
	<path d="M198.8,1185.5c-48.1,0-87.2-39.1-87.2-87.2c0-48.1,39.1-87.2,87.2-87.2s87.2,39.1,87.2,87.2
		C286,1146.3,246.9,1185.5,198.8,1185.5z M198.8,1016c-45.3,0-82.2,36.9-82.2,82.2s36.9,82.2,82.2,82.2s82.2-36.9,82.2-82.2
		S244.1,1016,198.8,1016z"/>
</g>
<g>
	<circle fill="#85ACDD" cx="159.8" cy="981.2" r="84.7"/>
	<path d="M159.8,1068.4c-48.1,0-87.2-39.1-87.2-87.2s39.1-87.2,87.2-87.2s87.2,39.1,87.2,87.2S207.9,1068.4,159.8,1068.4z
		 M159.8,899c-45.3,0-82.2,36.9-82.2,82.2s36.9,82.2,82.2,82.2s82.2-36.9,82.2-82.2S205.1,899,159.8,899z"/>
</g>
<g>
	<circle fill="#85ACDD" cx="180.5" cy="722.4" r="84.7"/>
	<path d="M180.5,809.6c-48.1,0-87.2-39.1-87.2-87.2s39.1-87.2,87.2-87.2s87.2,39.1,87.2,87.2S228.6,809.6,180.5,809.6z M180.5,640.2
		c-45.3,0-82.2,36.9-82.2,82.2s36.9,82.2,82.2,82.2s82.2-36.9,82.2-82.2S225.8,640.2,180.5,640.2z"/>
</g>
<g>
	<circle fill="#85ACDD" cx="3097.8" cy="234.3" r="84.7"/>
	<path d="M3097.8,321.6c-48.1,0-87.2-39.1-87.2-87.2s39.1-87.2,87.2-87.2s87.2,39.1,87.2,87.2S3145.9,321.6,3097.8,321.6z
		 M3097.8,152.1c-45.3,0-82.2,36.9-82.2,82.2s36.9,82.2,82.2,82.2s82.2-36.9,82.2-82.2S3143.2,152.1,3097.8,152.1z"/>
</g>
<g>
	<circle fill="#88EADB" cx="621.6" cy="158.7" r="84.7"/>
	<path d="M621.6,245.9c-48.1,0-87.2-39.1-87.2-87.2s39.1-87.2,87.2-87.2s87.2,39.1,87.2,87.2S669.7,245.9,621.6,245.9z M621.6,76.5
		c-45.3,0-82.2,36.9-82.2,82.2s36.9,82.2,82.2,82.2s82.2-36.9,82.2-82.2S666.9,76.5,621.6,76.5z"/>
</g>
<g>
	<circle fill="#85ACDD" cx="1522.1" cy="201.7" r="84.7"/>
	<path d="M1522.1,288.9c-48.1,0-87.2-39.1-87.2-87.2s39.1-87.2,87.2-87.2s87.2,39.1,87.2,87.2S1570.2,288.9,1522.1,288.9z
		 M1522.1,119.5c-45.3,0-82.2,36.9-82.2,82.2s36.9,82.2,82.2,82.2s82.2-36.9,82.2-82.2S1567.5,119.5,1522.1,119.5z"/>
</g>
<g>
	<circle fill="#85ACDD" cx="1395.5" cy="145.2" r="84.7"/>
	<path d="M1395.5,232.4c-48.1,0-87.2-39.1-87.2-87.2s39.1-87.2,87.2-87.2s87.2,39.1,87.2,87.2S1443.6,232.4,1395.5,232.4z
		 M1395.5,62.9c-45.3,0-82.2,36.9-82.2,82.2s36.9,82.2,82.2,82.2s82.2-36.9,82.2-82.2S1440.9,62.9,1395.5,62.9z"/>
</g>
<g>
	<circle fill="#88EADB" cx="1261" cy="117.3" r="84.7"/>
	<path d="M1261,204.5c-48.1,0-87.2-39.1-87.2-87.2s39.1-87.2,87.2-87.2s87.2,39.1,87.2,87.2S1309.1,204.5,1261,204.5z M1261,35.1
		c-45.3,0-82.2,36.9-82.2,82.2s36.9,82.2,82.2,82.2s82.2-36.9,82.2-82.2S1306.3,35.1,1261,35.1z"/>
</g>
<g>
	<circle fill="#85ACDD" cx="1765" cy="158.7" r="84.7"/>
	<path d="M1765,245.9c-48.1,0-87.2-39.1-87.2-87.2s39.1-87.2,87.2-87.2s87.2,39.1,87.2,87.2S1813.1,245.9,1765,245.9z M1765,76.5
		c-45.3,0-82.2,36.9-82.2,82.2s36.9,82.2,82.2,82.2s82.2-36.9,82.2-82.2S1810.3,76.5,1765,76.5z"/>
</g>
<g>
	<circle fill="#85ACDD" cx="2257.8" cy="185.8" r="84.7"/>
	<path d="M2257.8,273c-48.1,0-87.2-39.1-87.2-87.2s39.1-87.2,87.2-87.2s87.2,39.1,87.2,87.2S2305.9,273,2257.8,273z M2257.8,103.6
		c-45.3,0-82.2,36.9-82.2,82.2s36.9,82.2,82.2,82.2s82.2-36.9,82.2-82.2S2303.2,103.6,2257.8,103.6z"/>
</g>
<g>
	<circle fill="#85ACDD" cx="3518.2" cy="620.5" r="84.7"/>
	<path d="M3518.2,707.7c-48.1,0-87.2-39.1-87.2-87.2s39.1-87.2,87.2-87.2s87.2,39.1,87.2,87.2S3566.3,707.7,3518.2,707.7z
		 M3518.2,538.3c-45.3,0-82.2,36.9-82.2,82.2s36.9,82.2,82.2,82.2s82.2-36.9,82.2-82.2S3563.6,538.3,3518.2,538.3z"/>
</g>
<g>
	<circle fill="#85ACDD" cx="3453" cy="427.8" r="84.7"/>
	<path d="M3453,515c-48.1,0-87.2-39.1-87.2-87.2s39.1-87.2,87.2-87.2s87.2,39.1,87.2,87.2S3501,515,3453,515z M3453,345.6
		c-45.3,0-82.2,36.9-82.2,82.2s36.9,82.2,82.2,82.2s82.2-36.9,82.2-82.2S3498.3,345.6,3453,345.6z"/>
</g>
<g>
	<circle fill="#85ACDD" cx="3379.7" cy="354.6" r="84.7"/>
	<path d="M3379.7,441.8c-48.1,0-87.2-39.1-87.2-87.2s39.1-87.2,87.2-87.2s87.2,39.1,87.2,87.2S3427.8,441.8,3379.7,441.8z
		 M3379.7,272.4c-45.3,0-82.2,36.9-82.2,82.2s36.9,82.2,82.2,82.2s82.2-36.9,82.2-82.2S3425,272.4,3379.7,272.4z"/>
</g>
<g>
	<circle fill="#85ACDD" cx="2283.3" cy="2190.7" r="84.7"/>
	<path d="M2283.3,2277.9c-48.1,0-87.2-39.1-87.2-87.2s39.1-87.2,87.2-87.2s87.2,39.1,87.2,87.2S2331.4,2277.9,2283.3,2277.9z
		 M2283.3,2108.4c-45.3,0-82.2,36.9-82.2,82.2s36.9,82.2,82.2,82.2s82.2-36.9,82.2-82.2S2328.6,2108.4,2283.3,2108.4z"/>
</g>
<g>
	<circle fill="#85ACDD" cx="921.8" cy="2287" r="84.7"/>
	<path d="M921.8,2374.2c-48.1,0-87.2-39.1-87.2-87.2c0-48.1,39.1-87.2,87.2-87.2s87.2,39.1,87.2,87.2
		C1009,2335.1,969.9,2374.2,921.8,2374.2z M921.8,2204.8c-45.3,0-82.2,36.9-82.2,82.2s36.9,82.2,82.2,82.2s82.2-36.9,82.2-82.2
		S967.1,2204.8,921.8,2204.8z"/>
</g>
<g>
	<circle fill="#88EADB" cx="349.3" cy="392.8" r="84.7"/>
	<path d="M349.3,480c-48.1,0-87.2-39.1-87.2-87.2s39.1-87.2,87.2-87.2s87.2,39.1,87.2,87.2S397.4,480,349.3,480z M349.3,310.6
		c-45.3,0-82.2,36.9-82.2,82.2S304,475,349.3,475s82.2-36.9,82.2-82.2S394.6,310.6,349.3,310.6z"/>
</g>
<g>
	<circle fill="#85ACDD" cx="441.7" cy="297.2" r="84.7"/>
	<path d="M441.7,384.5c-48.1,0-87.2-39.1-87.2-87.2s39.1-87.2,87.2-87.2s87.2,39.1,87.2,87.2S489.7,384.5,441.7,384.5z M441.7,215
		c-45.3,0-82.2,36.9-82.2,82.2s36.9,82.2,82.2,82.2s82.2-36.9,82.2-82.2S487,215,441.7,215z"/>
</g>
<g>
	<circle fill="#88EADB" cx="221.1" cy="528.1" r="84.7"/>
	<path d="M221.1,615.4c-48.1,0-87.2-39.1-87.2-87.2s39.1-87.2,87.2-87.2s87.2,39.1,87.2,87.2S269.2,615.4,221.1,615.4z M221.1,445.9
		c-45.3,0-82.2,36.9-82.2,82.2s36.9,82.2,82.2,82.2s82.2-36.9,82.2-82.2S266.4,445.9,221.1,445.9z"/>
</g>
<g>
	<circle fill="#85ACDD" cx="305.5" cy="540.1" r="84.7"/>
	<path d="M305.5,627.3c-48.1,0-87.2-39.1-87.2-87.2s39.1-87.2,87.2-87.2s87.2,39.1,87.2,87.2S353.6,627.3,305.5,627.3z M305.5,457.9
		c-45.3,0-82.2,36.9-82.2,82.2s36.9,82.2,82.2,82.2s82.2-36.9,82.2-82.2S350.8,457.9,305.5,457.9z"/>
</g>
<g>
	<circle fill="#85ACDD" cx="486.2" cy="420.7" r="84.7"/>
	<path d="M486.2,507.9c-48.1,0-87.2-39.1-87.2-87.2s39.1-87.2,87.2-87.2s87.2,39.1,87.2,87.2S534.3,507.9,486.2,507.9z M486.2,338.4
		c-45.3,0-82.2,36.9-82.2,82.2s36.9,82.2,82.2,82.2s82.2-36.9,82.2-82.2S531.6,338.4,486.2,338.4z"/>
</g>
<g>
	<circle fill="#85ACDD" cx="663" cy="293.3" r="84.7"/>
	<path d="M663,380.5c-48.1,0-87.2-39.1-87.2-87.2c0-48.1,39.1-87.2,87.2-87.2s87.2,39.1,87.2,87.2
		C750.2,341.4,711.1,380.5,663,380.5z M663,211c-45.3,0-82.2,36.9-82.2,82.2s36.9,82.2,82.2,82.2s82.2-36.9,82.2-82.2
		S708.3,211,663,211z"/>
</g>
<g>
	<circle fill="#85ACDD" cx="592.1" cy="381.6" r="84.7"/>
	<path d="M592.1,468.9c-48.1,0-87.2-39.1-87.2-87.2s39.1-87.2,87.2-87.2s87.2,39.1,87.2,87.2S640.2,468.9,592.1,468.9z M592.1,299.4
		c-45.3,0-82.2,36.9-82.2,82.2s36.9,82.2,82.2,82.2s82.2-36.9,82.2-82.2S637.5,299.4,592.1,299.4z"/>
</g>
<g>
	<circle fill="#85ACDD" cx="556.3" cy="252.7" r="84.7"/>
	<path d="M556.3,339.9c-48.1,0-87.2-39.1-87.2-87.2s39.1-87.2,87.2-87.2s87.2,39.1,87.2,87.2S604.4,339.9,556.3,339.9z M556.3,170.4
		c-45.3,0-82.2,36.9-82.2,82.2s36.9,82.2,82.2,82.2s82.2-36.9,82.2-82.2S601.6,170.4,556.3,170.4z"/>
</g>
<g>
	<circle fill="#85ACDD" cx="357.3" cy="270.1" r="84.7"/>
	<path d="M357.3,357.3c-48.1,0-87.2-39.1-87.2-87.2s39.1-87.2,87.2-87.2s87.2,39.1,87.2,87.2S405.4,357.3,357.3,357.3z M357.3,187.9
		c-45.3,0-82.2,36.9-82.2,82.2s36.9,82.2,82.2,82.2s82.2-36.9,82.2-82.2S402.6,187.9,357.3,187.9z"/>
</g>
<g>
	<circle fill="#85ACDD" cx="468.3" cy="174.1" r="84.7"/>
	<path d="M468.3,261.3c-48.1,0-87.2-39.1-87.2-87.2s39.1-87.2,87.2-87.2s87.2,39.1,87.2,87.2S516.4,261.3,468.3,261.3z M468.3,91.9
		c-45.3,0-82.2,36.9-82.2,82.2s36.9,82.2,82.2,82.2s82.2-36.9,82.2-82.2S513.6,91.9,468.3,91.9z"/>
</g>
<g>
	<circle fill="#85ACDD" cx="351.3" cy="154.1" r="84.7"/>
	<path d="M351.3,241.3c-48.1,0-87.2-39.1-87.2-87.2s39.1-87.2,87.2-87.2s87.2,39.1,87.2,87.2S399.4,241.3,351.3,241.3z M351.3,71.9
		c-45.3,0-82.2,36.9-82.2,82.2s36.9,82.2,82.2,82.2s82.2-36.9,82.2-82.2S396.6,71.9,351.3,71.9z"/>
</g>
<g>
	<circle fill="#85ACDD" cx="221.1" cy="411.9" r="84.7"/>
	<path d="M221.1,499.1c-48.1,0-87.2-39.1-87.2-87.2c0-48.1,39.1-87.2,87.2-87.2s87.2,39.1,87.2,87.2
		C308.3,460,269.2,499.1,221.1,499.1z M221.1,329.7c-45.3,0-82.2,36.9-82.2,82.2s36.9,82.2,82.2,82.2s82.2-36.9,82.2-82.2
		S266.4,329.7,221.1,329.7z"/>
</g>
<g>
	<circle fill="#85ACDD" cx="977.5" cy="228" r="84.7"/>
	<path d="M977.5,315.2c-48.1,0-87.2-39.1-87.2-87.2s39.1-87.2,87.2-87.2s87.2,39.1,87.2,87.2S1025.6,315.2,977.5,315.2z
		 M977.5,145.8c-45.3,0-82.2,36.9-82.2,82.2s36.9,82.2,82.2,82.2s82.2-36.9,82.2-82.2S1022.8,145.8,977.5,145.8z"/>
</g>
<g>
	<circle fill="#85ACDD" cx="749.8" cy="190.6" r="84.7"/>
	<path d="M749.8,277.8c-48.1,0-87.2-39.1-87.2-87.2s39.1-87.2,87.2-87.2s87.2,39.1,87.2,87.2S797.9,277.8,749.8,277.8z M749.8,108.3
		c-45.3,0-82.2,36.9-82.2,82.2s36.9,82.2,82.2,82.2s82.2-36.9,82.2-82.2S795.1,108.3,749.8,108.3z"/>
</g>
<g>
	<circle fill="#85ACDD" cx="862.1" cy="185.8" r="84.7"/>
	<path d="M862.1,273c-48.1,0-87.2-39.1-87.2-87.2s39.1-87.2,87.2-87.2s87.2,39.1,87.2,87.2S910.1,273,862.1,273z M862.1,103.6
		c-45.3,0-82.2,36.9-82.2,82.2s36.9,82.2,82.2,82.2s82.2-36.9,82.2-82.2S907.4,103.6,862.1,103.6z"/>
</g>
<g>
	<circle fill="#85ACDD" cx="1261" cy="229.6" r="84.7"/>
	<path d="M1261,316.8c-48.1,0-87.2-39.1-87.2-87.2s39.1-87.2,87.2-87.2s87.2,39.1,87.2,87.2S1309.1,316.8,1261,316.8z M1261,147.3
		c-45.3,0-82.2,36.9-82.2,82.2s36.9,82.2,82.2,82.2s82.2-36.9,82.2-82.2S1306.3,147.3,1261,147.3z"/>
</g>
<g>
	<circle fill="#85ACDD" cx="1159" cy="208.9" r="84.7"/>
	<path d="M1159,296.1c-48.1,0-87.2-39.1-87.2-87.2s39.1-87.2,87.2-87.2s87.2,39.1,87.2,87.2S1207.1,296.1,1159,296.1z M1159,126.6
		c-45.3,0-82.2,36.9-82.2,82.2s36.9,82.2,82.2,82.2s82.2-36.9,82.2-82.2S1204.4,126.6,1159,126.6z"/>
</g>
<g>
	<circle fill="#85ACDD" cx="1061.9" cy="201.7" r="84.7"/>
	<path d="M1061.9,288.9c-48.1,0-87.2-39.1-87.2-87.2s39.1-87.2,87.2-87.2s87.2,39.1,87.2,87.2S1110,288.9,1061.9,288.9z
		 M1061.9,119.5c-45.3,0-82.2,36.9-82.2,82.2s36.9,82.2,82.2,82.2s82.2-36.9,82.2-82.2S1107.2,119.5,1061.9,119.5z"/>
</g>
<g>
	<circle fill="#85ACDD" cx="1379.6" cy="398.4" r="84.7"/>
	<path d="M1379.6,485.6c-48.1,0-87.2-39.1-87.2-87.2s39.1-87.2,87.2-87.2s87.2,39.1,87.2,87.2S1427.7,485.6,1379.6,485.6z
		 M1379.6,316.1c-45.3,0-82.2,36.9-82.2,82.2s36.9,82.2,82.2,82.2s82.2-36.9,82.2-82.2S1424.9,316.1,1379.6,316.1z"/>
</g>
<g>
	<circle fill="#88EADB" cx="706" cy="381.6" r="84.7"/>
	<path d="M706,468.9c-48.1,0-87.2-39.1-87.2-87.2s39.1-87.2,87.2-87.2s87.2,39.1,87.2,87.2S754.1,468.9,706,468.9z M706,299.4
		c-45.3,0-82.2,36.9-82.2,82.2s36.9,82.2,82.2,82.2s82.2-36.9,82.2-82.2S751.3,299.4,706,299.4z"/>
</g>
<g>
	<circle fill="#85ACDD" cx="305.5" cy="1118.9" r="84.7"/>
	<path d="M305.5,1206.2c-48.1,0-87.2-39.1-87.2-87.2s39.1-87.2,87.2-87.2s87.2,39.1,87.2,87.2S353.6,1206.2,305.5,1206.2z
		 M305.5,1036.7c-45.3,0-82.2,36.9-82.2,82.2s36.9,82.2,82.2,82.2s82.2-36.9,82.2-82.2S350.8,1036.7,305.5,1036.7z"/>
</g>
<g>
	<circle fill="#88EADB" cx="1715.6" cy="270.2" r="84.7"/>
	<path d="M1715.6,357.4c-48.1,0-87.2-39.1-87.2-87.2c0-48.1,39.1-87.2,87.2-87.2s87.2,39.1,87.2,87.2
		C1802.8,318.3,1763.7,357.4,1715.6,357.4z M1715.6,188c-45.3,0-82.2,36.9-82.2,82.2s36.9,82.2,82.2,82.2s82.2-36.9,82.2-82.2
		S1760.9,188,1715.6,188z"/>
</g>
<g>
	<circle fill="#85ACDD" cx="875.6" cy="297.2" r="84.7"/>
	<path d="M875.6,384.5c-48.1,0-87.2-39.1-87.2-87.2s39.1-87.2,87.2-87.2s87.2,39.1,87.2,87.2S923.7,384.5,875.6,384.5z M875.6,215
		c-45.3,0-82.2,36.9-82.2,82.2s36.9,82.2,82.2,82.2s82.2-36.9,82.2-82.2S920.9,215,875.6,215z"/>
</g>
<g>
	<circle fill="#85ACDD" cx="921.8" cy="408.7" r="84.7"/>
	<path d="M921.8,495.9c-48.1,0-87.2-39.1-87.2-87.2s39.1-87.2,87.2-87.2s87.2,39.1,87.2,87.2S969.9,495.9,921.8,495.9z M921.8,326.5
		c-45.3,0-82.2,36.9-82.2,82.2s36.9,82.2,82.2,82.2s82.2-36.9,82.2-82.2S967.1,326.5,921.8,326.5z"/>
</g>
<g>
	<circle fill="#85ACDD" cx="807.9" cy="398.4" r="84.7"/>
	<path d="M807.9,485.6c-48.1,0-87.2-39.1-87.2-87.2s39.1-87.2,87.2-87.2s87.2,39.1,87.2,87.2S856,485.6,807.9,485.6z M807.9,316.1
		c-45.3,0-82.2,36.9-82.2,82.2s36.9,82.2,82.2,82.2s82.2-36.9,82.2-82.2S853.2,316.1,807.9,316.1z"/>
</g>
<g>
	<circle fill="#85ACDD" cx="1031.6" cy="312.4" r="84.7"/>
	<path d="M1031.7,399.6c-48.1,0-87.2-39.1-87.2-87.2s39.1-87.2,87.2-87.2s87.2,39.1,87.2,87.2S1079.7,399.6,1031.7,399.6z
		 M1031.7,230.2c-45.3,0-82.2,36.9-82.2,82.2s36.9,82.2,82.2,82.2s82.2-36.9,82.2-82.2S1077,230.2,1031.7,230.2z"/>
</g>
<g>
	<circle fill="#85ACDD" cx="1091.4" cy="408.7" r="84.7"/>
	<path d="M1091.4,495.9c-48.1,0-87.2-39.1-87.2-87.2s39.1-87.2,87.2-87.2s87.2,39.1,87.2,87.2S1139.5,495.9,1091.4,495.9z
		 M1091.4,326.5c-45.3,0-82.2,36.9-82.2,82.2s36.9,82.2,82.2,82.2s82.2-36.9,82.2-82.2S1136.7,326.5,1091.4,326.5z"/>
</g>
<g>
	<circle fill="#85ACDD" cx="1295.2" cy="334.7" r="84.7"/>
	<path d="M1295.2,421.9c-48.1,0-87.2-39.1-87.2-87.2s39.1-87.2,87.2-87.2s87.2,39.1,87.2,87.2S1343.3,421.9,1295.2,421.9z
		 M1295.2,252.4c-45.3,0-82.2,36.9-82.2,82.2s36.9,82.2,82.2,82.2s82.2-36.9,82.2-82.2S1340.5,252.4,1295.2,252.4z"/>
</g>
<g>
	<circle fill="#85ACDD" cx="1176.6" cy="354.6" r="84.7"/>
	<path d="M1176.6,441.8c-48.1,0-87.2-39.1-87.2-87.2s39.1-87.2,87.2-87.2s87.2,39.1,87.2,87.2S1224.7,441.8,1176.6,441.8z
		 M1176.6,272.4c-45.3,0-82.2,36.9-82.2,82.2s36.9,82.2,82.2,82.2s82.2-36.9,82.2-82.2S1221.9,272.4,1176.6,272.4z"/>
</g>
<g>
	<circle fill="#88EADB" cx="1116" cy="297.2" r="84.7"/>
	<path d="M1116,384.5c-48.1,0-87.2-39.1-87.2-87.2S1068,210,1116,210s87.2,39.1,87.2,87.2S1164.1,384.5,1116,384.5z M1116,215
		c-45.3,0-82.2,36.9-82.2,82.2s36.9,82.2,82.2,82.2s82.2-36.9,82.2-82.2S1161.4,215,1116,215z"/>
</g>
<g>
	<circle fill="#88EADB" cx="1849.4" cy="377.7" r="84.7"/>
	<path d="M1849.4,464.9c-48.1,0-87.2-39.1-87.2-87.2s39.1-87.2,87.2-87.2s87.2,39.1,87.2,87.2S1897.5,464.9,1849.4,464.9z
		 M1849.4,295.4c-45.3,0-82.2,36.9-82.2,82.2s36.9,82.2,82.2,82.2s82.2-36.9,82.2-82.2S1894.7,295.4,1849.4,295.4z"/>
</g>
<g>
	<circle fill="#85ACDD" cx="2301.6" cy="297.2" r="84.7"/>
	<path d="M2301.6,384.5c-48.1,0-87.2-39.1-87.2-87.2s39.1-87.2,87.2-87.2s87.2,39.1,87.2,87.2S2349.7,384.5,2301.6,384.5z
		 M2301.6,215c-45.3,0-82.2,36.9-82.2,82.2s36.9,82.2,82.2,82.2s82.2-36.9,82.2-82.2S2347,215,2301.6,215z"/>
</g>
<g>
	<circle fill="#85ACDD" cx="2520.6" cy="243.1" r="84.7"/>
	<path d="M2520.6,330.3c-48.1,0-87.2-39.1-87.2-87.2s39.1-87.2,87.2-87.2s87.2,39.1,87.2,87.2S2568.7,330.3,2520.6,330.3z
		 M2520.6,160.9c-45.3,0-82.2,36.9-82.2,82.2s36.9,82.2,82.2,82.2s82.2-36.9,82.2-82.2S2565.9,160.9,2520.6,160.9z"/>
</g>
<g>
	<circle fill="#85ACDD" cx="2670.3" cy="270.2" r="84.7"/>
	<path d="M2670.3,357.4c-48.1,0-87.2-39.1-87.2-87.2c0-48.1,39.1-87.2,87.2-87.2s87.2,39.1,87.2,87.2
		C2757.5,318.3,2718.4,357.4,2670.3,357.4z M2670.3,188c-45.3,0-82.2,36.9-82.2,82.2s36.9,82.2,82.2,82.2s82.2-36.9,82.2-82.2
		S2715.6,188,2670.3,188z"/>
</g>
<g>
	<circle fill="#85ACDD" cx="2211.6" cy="314" r="84.7"/>
	<path d="M2211.6,401.2c-48.1,0-87.2-39.1-87.2-87.2s39.1-87.2,87.2-87.2s87.2,39.1,87.2,87.2S2259.7,401.2,2211.6,401.2z
		 M2211.6,231.7c-45.3,0-82.2,36.9-82.2,82.2s36.9,82.2,82.2,82.2s82.2-36.9,82.2-82.2S2257,231.7,2211.6,231.7z"/>
</g>
<g>
	<circle fill="#88EADB" cx="2158.3" cy="258.2" r="84.7"/>
	<path d="M2158.3,345.4c-48.1,0-87.2-39.1-87.2-87.2s39.1-87.2,87.2-87.2s87.2,39.1,87.2,87.2S2206.4,345.4,2158.3,345.4z
		 M2158.3,176c-45.3,0-82.2,36.9-82.2,82.2s36.9,82.2,82.2,82.2s82.2-36.9,82.2-82.2S2203.6,176,2158.3,176z"/>
</g>
<g>
	<circle fill="#85ACDD" cx="2173.4" cy="392.8" r="84.7"/>
	<path d="M2173.4,480c-48.1,0-87.2-39.1-87.2-87.2s39.1-87.2,87.2-87.2s87.2,39.1,87.2,87.2S2221.5,480,2173.4,480z M2173.4,310.6
		c-45.3,0-82.2,36.9-82.2,82.2s36.9,82.2,82.2,82.2s82.2-36.9,82.2-82.2S2218.8,310.6,2173.4,310.6z"/>
</g>
<g>
	<circle fill="#85ACDD" cx="2754.7" cy="477.2" r="84.7"/>
	<path d="M2754.7,564.4c-48.1,0-87.2-39.1-87.2-87.2c0-48.1,39.1-87.2,87.2-87.2s87.2,39.1,87.2,87.2
		C2841.9,525.3,2802.8,564.4,2754.7,564.4z M2754.7,395c-45.3,0-82.2,36.9-82.2,82.2s36.9,82.2,82.2,82.2s82.2-36.9,82.2-82.2
		S2800,395,2754.7,395z"/>
</g>
<g>
	<circle fill="#85ACDD" cx="3041.3" cy="312.4" r="84.7"/>
	<path d="M3041.3,399.6c-48.1,0-87.2-39.1-87.2-87.2s39.1-87.2,87.2-87.2s87.2,39.1,87.2,87.2S3089.4,399.6,3041.3,399.6z
		 M3041.3,230.2c-45.3,0-82.2,36.9-82.2,82.2s36.9,82.2,82.2,82.2s82.2-36.9,82.2-82.2S3086.6,230.2,3041.3,230.2z"/>
</g>
<g>
	<circle fill="#85ACDD" cx="3341.5" cy="481.2" r="84.7"/>
	<path d="M3341.5,568.4c-48.1,0-87.2-39.1-87.2-87.2s39.1-87.2,87.2-87.2s87.2,39.1,87.2,87.2S3389.6,568.4,3341.5,568.4z
		 M3341.5,399c-45.3,0-82.2,36.9-82.2,82.2s36.9,82.2,82.2,82.2s82.2-36.9,82.2-82.2S3386.8,399,3341.5,399z"/>
</g>
<g>
	<circle fill="#85ACDD" cx="3425.9" cy="689" r="84.7"/>
	<path d="M3425.9,776.2c-48.1,0-87.2-39.1-87.2-87.2s39.1-87.2,87.2-87.2s87.2,39.1,87.2,87.2S3474,776.2,3425.9,776.2z
		 M3425.9,606.8c-45.3,0-82.2,36.9-82.2,82.2s36.9,82.2,82.2,82.2s82.2-36.9,82.2-82.2S3471.2,606.8,3425.9,606.8z"/>
</g>
<g>
	<circle fill="#85ACDD" cx="3341.5" cy="794.1" r="84.7"/>
	<path d="M3341.5,881.3c-48.1,0-87.2-39.1-87.2-87.2s39.1-87.2,87.2-87.2s87.2,39.1,87.2,87.2S3389.6,881.3,3341.5,881.3z
		 M3341.5,711.9c-45.3,0-82.2,36.9-82.2,82.2s36.9,82.2,82.2,82.2s82.2-36.9,82.2-82.2S3386.8,711.9,3341.5,711.9z"/>
</g>
<g>
	<circle fill="#85ACDD" cx="3295.3" cy="1676.3" r="84.7"/>
	<path d="M3295.3,1763.5c-48.1,0-87.2-39.1-87.2-87.2s39.1-87.2,87.2-87.2s87.2,39.1,87.2,87.2S3343.4,1763.5,3295.3,1763.5z
		 M3295.3,1594.1c-45.3,0-82.2,36.9-82.2,82.2s36.9,82.2,82.2,82.2s82.2-36.9,82.2-82.2S3340.6,1594.1,3295.3,1594.1z"/>
</g>
<g>
	<circle fill="#85ACDD" cx="3537.4" cy="1240.8" r="84.7"/>
	<path d="M3537.4,1328c-48.1,0-87.2-39.1-87.2-87.2s39.1-87.2,87.2-87.2s87.2,39.1,87.2,87.2S3585.4,1328,3537.4,1328z
		 M3537.4,1158.5c-45.3,0-82.2,36.9-82.2,82.2s36.9,82.2,82.2,82.2s82.2-36.9,82.2-82.2S3582.7,1158.5,3537.4,1158.5z"/>
</g>
<g>
	<circle fill="#85ACDD" cx="2902" cy="2195.4" r="84.7"/>
	<path d="M2902,2282.6c-48.1,0-87.2-39.1-87.2-87.2s39.1-87.2,87.2-87.2s87.2,39.1,87.2,87.2S2950.1,2282.6,2902,2282.6z
		 M2902,2113.2c-45.3,0-82.2,36.9-82.2,82.2s36.9,82.2,82.2,82.2s82.2-36.9,82.2-82.2S2947.3,2113.2,2902,2113.2z"/>
</g>
<g>
	<circle fill="#88EADB" cx="2797.7" cy="2214.5" r="84.7"/>
	<path d="M2797.7,2301.8c-48.1,0-87.2-39.1-87.2-87.2s39.1-87.2,87.2-87.2s87.2,39.1,87.2,87.2S2845.8,2301.8,2797.7,2301.8z
		 M2797.7,2132.3c-45.3,0-82.2,36.9-82.2,82.2s36.9,82.2,82.2,82.2s82.2-36.9,82.2-82.2S2843,2132.3,2797.7,2132.3z"/>
</g>
<g>
	<circle fill="#85ACDD" cx="2687" cy="2267.9" r="84.7"/>
	<path d="M2687,2355.1c-48.1,0-87.2-39.1-87.2-87.2s39.1-87.2,87.2-87.2s87.2,39.1,87.2,87.2S2735.1,2355.1,2687,2355.1z
		 M2687,2185.7c-45.3,0-82.2,36.9-82.2,82.2s36.9,82.2,82.2,82.2s82.2-36.9,82.2-82.2S2732.3,2185.7,2687,2185.7z"/>
</g>
<g>
	<circle fill="#85ACDD" cx="2207.7" cy="2068" r="84.7"/>
	<path d="M2207.7,2155.3c-48.1,0-87.2-39.1-87.2-87.2s39.1-87.2,87.2-87.2s87.2,39.1,87.2,87.2S2255.8,2155.3,2207.7,2155.3z
		 M2207.7,1985.8c-45.3,0-82.2,36.9-82.2,82.2s36.9,82.2,82.2,82.2s82.2-36.9,82.2-82.2S2253,1985.8,2207.7,1985.8z"/>
</g>
<g>
	<circle fill="#85ACDD" cx="1909.9" cy="2279.8" r="84.7"/>
	<path d="M1909.9,2367c-48.1,0-87.2-39.1-87.2-87.2s39.1-87.2,87.2-87.2s87.2,39.1,87.2,87.2S1958,2367,1909.9,2367z M1909.9,2197.6
		c-45.3,0-82.2,36.9-82.2,82.2s36.9,82.2,82.2,82.2s82.2-36.9,82.2-82.2S1955.2,2197.6,1909.9,2197.6z"/>
</g>
<g>
	<circle fill="#85ACDD" cx="1715.6" cy="2195.4" r="84.7"/>
	<path d="M1715.6,2282.6c-48.1,0-87.2-39.1-87.2-87.2s39.1-87.2,87.2-87.2s87.2,39.1,87.2,87.2S1763.7,2282.6,1715.6,2282.6z
		 M1715.6,2113.2c-45.3,0-82.2,36.9-82.2,82.2s36.9,82.2,82.2,82.2s82.2-36.9,82.2-82.2S1760.9,2113.2,1715.6,2113.2z"/>
</g>
<g>
	<circle fill="#85ACDD" cx="1295.2" cy="2267.9" r="84.7"/>
	<path d="M1295.2,2355.1c-48.1,0-87.2-39.1-87.2-87.2s39.1-87.2,87.2-87.2s87.2,39.1,87.2,87.2S1343.3,2355.1,1295.2,2355.1z
		 M1295.2,2185.7c-45.3,0-82.2,36.9-82.2,82.2s36.9,82.2,82.2,82.2s82.2-36.9,82.2-82.2S1340.5,2185.7,1295.2,2185.7z"/>
</g>
<g>
	<circle fill="#85ACDD" cx="1006.2" cy="2210.6" r="84.7"/>
	<path d="M1006.2,2297.8c-48.1,0-87.2-39.1-87.2-87.2s39.1-87.2,87.2-87.2s87.2,39.1,87.2,87.2S1054.3,2297.8,1006.2,2297.8z
		 M1006.2,2128.3c-45.3,0-82.2,36.9-82.2,82.2s36.9,82.2,82.2,82.2s82.2-36.9,82.2-82.2S1051.5,2128.3,1006.2,2128.3z"/>
</g>
<g>
	<circle fill="#85ACDD" cx="706" cy="2083.2" r="84.7"/>
	<path d="M706,2170.4c-48.1,0-87.2-39.1-87.2-87.2s39.1-87.2,87.2-87.2s87.2,39.1,87.2,87.2S754.1,2170.4,706,2170.4z M706,2000.9
		c-45.3,0-82.2,36.9-82.2,82.2s36.9,82.2,82.2,82.2s82.2-36.9,82.2-82.2S751.3,2000.9,706,2000.9z"/>
</g>
<g>
	<circle fill="#85ACDD" cx="401.8" cy="2220.9" r="84.7"/>
	<path d="M401.8,2308.1c-48.1,0-87.2-39.1-87.2-87.2s39.1-87.2,87.2-87.2s87.2,39.1,87.2,87.2S449.9,2308.1,401.8,2308.1z
		 M401.8,2138.7c-45.3,0-82.2,36.9-82.2,82.2s36.9,82.2,82.2,82.2s82.2-36.9,82.2-82.2S447.2,2138.7,401.8,2138.7z"/>
</g>
<g>
	<circle fill="#85ACDD" cx="180.5" cy="2052.1" r="84.7"/>
	<path d="M180.5,2139.3c-48.1,0-87.2-39.1-87.2-87.2c0-48.1,39.1-87.2,87.2-87.2s87.2,39.1,87.2,87.2
		C267.7,2100.2,228.6,2139.3,180.5,2139.3z M180.5,1969.9c-45.3,0-82.2,36.9-82.2,82.2s36.9,82.2,82.2,82.2s82.2-36.9,82.2-82.2
		S225.8,1969.9,180.5,1969.9z"/>
</g>
<g>
	<circle fill="#88EADB" cx="328.6" cy="1760.7" r="84.7"/>
	<path d="M328.6,1847.9c-48.1,0-87.2-39.1-87.2-87.2s39.1-87.2,87.2-87.2s87.2,39.1,87.2,87.2S376.7,1847.9,328.6,1847.9z
		 M328.6,1678.5c-45.3,0-82.2,36.9-82.2,82.2s36.9,82.2,82.2,82.2s82.2-36.9,82.2-82.2S373.9,1678.5,328.6,1678.5z"/>
</g>
<g>
	<circle fill="#85ACDD" cx="264.9" cy="1518.6" r="84.7"/>
	<path d="M264.9,1605.9c-48.1,0-87.2-39.1-87.2-87.2s39.1-87.2,87.2-87.2s87.2,39.1,87.2,87.2S313,1605.9,264.9,1605.9z
		 M264.9,1436.4c-45.3,0-82.2,36.9-82.2,82.2s36.9,82.2,82.2,82.2s82.2-36.9,82.2-82.2S310.2,1436.4,264.9,1436.4z"/>
</g>
<g>
	<circle fill="#85ACDD" cx="1261" cy="443.7" r="84.7"/>
	<path d="M1261,531c-48.1,0-87.2-39.1-87.2-87.2s39.1-87.2,87.2-87.2s87.2,39.1,87.2,87.2S1309.1,531,1261,531z M1261,361.5
		c-45.3,0-82.2,36.9-82.2,82.2s36.9,82.2,82.2,82.2s82.2-36.9,82.2-82.2S1306.3,361.5,1261,361.5z"/>
</g>
<g>
	<circle fill="#88EADB" cx="1512.6" cy="312.4" r="84.7"/>
	<path d="M1512.6,399.6c-48.1,0-87.2-39.1-87.2-87.2s39.1-87.2,87.2-87.2s87.2,39.1,87.2,87.2S1560.7,399.6,1512.6,399.6z
		 M1512.6,230.2c-45.3,0-82.2,36.9-82.2,82.2s36.9,82.2,82.2,82.2s82.2-36.9,82.2-82.2S1557.9,230.2,1512.6,230.2z"/>
</g>
<g>
	<circle fill="#88EADB" cx="1564.3" cy="455.7" r="84.7"/>
	<path d="M1564.3,542.9c-48.1,0-87.2-39.1-87.2-87.2s39.1-87.2,87.2-87.2s87.2,39.1,87.2,87.2S1612.4,542.9,1564.3,542.9z
		 M1564.3,373.5c-45.3,0-82.2,36.9-82.2,82.2s36.9,82.2,82.2,82.2s82.2-36.9,82.2-82.2S1609.7,373.5,1564.3,373.5z"/>
</g>
<g>
	<circle fill="#85ACDD" cx="1739.5" cy="381.6" r="84.7"/>
	<path d="M1739.5,468.9c-48.1,0-87.2-39.1-87.2-87.2s39.1-87.2,87.2-87.2s87.2,39.1,87.2,87.2S1787.6,468.9,1739.5,468.9z
		 M1739.5,299.4c-45.3,0-82.2,36.9-82.2,82.2s36.9,82.2,82.2,82.2s82.2-36.9,82.2-82.2S1784.8,299.4,1739.5,299.4z"/>
</g>
<g>
	<circle fill="#85ACDD" cx="1994.3" cy="396.8" r="84.7"/>
	<path d="M1994.3,484c-48.1,0-87.2-39.1-87.2-87.2s39.1-87.2,87.2-87.2s87.2,39.1,87.2,87.2S2042.4,484,1994.3,484z M1994.3,314.6
		c-45.3,0-82.2,36.9-82.2,82.2s36.9,82.2,82.2,82.2s82.2-36.9,82.2-82.2S2039.6,314.6,1994.3,314.6z"/>
</g>
<g>
	<circle fill="#85ACDD" cx="328.6" cy="928.6" r="84.7"/>
	<path d="M328.6,1015.9c-48.1,0-87.2-39.1-87.2-87.2s39.1-87.2,87.2-87.2s87.2,39.1,87.2,87.2S376.7,1015.9,328.6,1015.9z
		 M328.6,846.4c-45.3,0-82.2,36.9-82.2,82.2s36.9,82.2,82.2,82.2s82.2-36.9,82.2-82.2S373.9,846.4,328.6,846.4z"/>
</g>
<g>
	<circle fill="#85ACDD" cx="305.5" cy="833.1" r="84.7"/>
	<path d="M305.5,920.3c-48.1,0-87.2-39.1-87.2-87.2c0-48.1,39.1-87.2,87.2-87.2s87.2,39.1,87.2,87.2
		C392.7,881.2,353.6,920.3,305.5,920.3z M305.5,750.9c-45.3,0-82.2,36.9-82.2,82.2s36.9,82.2,82.2,82.2s82.2-36.9,82.2-82.2
		S350.8,750.9,305.5,750.9z"/>
</g>
<g>
	<circle fill="#88EADB" cx="383.5" cy="722.4" r="84.7"/>
	<path d="M383.5,809.6c-48.1,0-87.2-39.1-87.2-87.2s39.1-87.2,87.2-87.2s87.2,39.1,87.2,87.2S431.6,809.6,383.5,809.6z M383.5,640.2
		c-45.3,0-82.2,36.9-82.2,82.2s36.9,82.2,82.2,82.2s82.2-36.9,82.2-82.2S428.9,640.2,383.5,640.2z"/>
</g>
<g>
	<circle fill="#85ACDD" cx="198.8" cy="878.5" r="84.7"/>
	<path d="M198.8,965.7c-48.1,0-87.2-39.1-87.2-87.2s39.1-87.2,87.2-87.2s87.2,39.1,87.2,87.2S246.9,965.7,198.8,965.7z M198.8,796.3
		c-45.3,0-82.2,36.9-82.2,82.2s36.9,82.2,82.2,82.2s82.2-36.9,82.2-82.2S244.1,796.3,198.8,796.3z"/>
</g>
<g>
	<circle fill="#85ACDD" cx="383.5" cy="1044.9" r="84.7"/>
	<path d="M383.5,1132.1c-48.1,0-87.2-39.1-87.2-87.2c0-48.1,39.1-87.2,87.2-87.2s87.2,39.1,87.2,87.2
		C470.7,1093,431.6,1132.1,383.5,1132.1z M383.5,962.7c-45.3,0-82.2,36.9-82.2,82.2s36.9,82.2,82.2,82.2s82.2-36.9,82.2-82.2
		S428.9,962.7,383.5,962.7z"/>
</g>
<g>
	<circle fill="#85ACDD" cx="328.6" cy="1235.2" r="84.7"/>
	<path d="M328.6,1322.4c-48.1,0-87.2-39.1-87.2-87.2s39.1-87.2,87.2-87.2s87.2,39.1,87.2,87.2S376.7,1322.4,328.6,1322.4z
		 M328.6,1153c-45.3,0-82.2,36.9-82.2,82.2s36.9,82.2,82.2,82.2s82.2-36.9,82.2-82.2S373.9,1153,328.6,1153z"/>
</g>
<g>
	<circle fill="#85ACDD" cx="198.8" cy="1223.2" r="84.7"/>
	<path d="M198.8,1310.5c-48.1,0-87.2-39.1-87.2-87.2s39.1-87.2,87.2-87.2s87.2,39.1,87.2,87.2S246.9,1310.5,198.8,1310.5z
		 M198.8,1141c-45.3,0-82.2,36.9-82.2,82.2s36.9,82.2,82.2,82.2s82.2-36.9,82.2-82.2S244.1,1141,198.8,1141z"/>
</g>
<g>
	<circle fill="#85ACDD" cx="317.4" cy="1434.2" r="84.7"/>
	<path d="M317.4,1521.5c-48.1,0-87.2-39.1-87.2-87.2s39.1-87.2,87.2-87.2s87.2,39.1,87.2,87.2S365.5,1521.5,317.4,1521.5z
		 M317.4,1352c-45.3,0-82.2,36.9-82.2,82.2s36.9,82.2,82.2,82.2s82.2-36.9,82.2-82.2S362.8,1352,317.4,1352z"/>
</g>
<g>
	<circle fill="#88EADB" cx="299.1" cy="1340.3" r="84.7"/>
	<path d="M299.1,1427.5c-48.1,0-87.2-39.1-87.2-87.2c0-48.1,39.1-87.2,87.2-87.2s87.2,39.1,87.2,87.2
		C386.3,1388.4,347.2,1427.5,299.1,1427.5z M299.1,1258.1c-45.3,0-82.2,36.9-82.2,82.2s36.9,82.2,82.2,82.2s82.2-36.9,82.2-82.2
		S344.5,1258.1,299.1,1258.1z"/>
</g>
<g>
	<circle fill="#85ACDD" cx="198.8" cy="1656.4" r="84.7"/>
	<path d="M198.8,1743.6c-48.1,0-87.2-39.1-87.2-87.2s39.1-87.2,87.2-87.2s87.2,39.1,87.2,87.2S246.9,1743.6,198.8,1743.6z
		 M198.8,1574.2c-45.3,0-82.2,36.9-82.2,82.2s36.9,82.2,82.2,82.2s82.2-36.9,82.2-82.2S244.1,1574.2,198.8,1574.2z"/>
</g>
<g>
	<circle fill="#85ACDD" cx="244.2" cy="1760.7" r="84.7"/>
	<path d="M244.2,1847.9c-48.1,0-87.2-39.1-87.2-87.2s39.1-87.2,87.2-87.2s87.2,39.1,87.2,87.2S292.3,1847.9,244.2,1847.9z
		 M244.2,1678.5c-45.3,0-82.2,36.9-82.2,82.2s36.9,82.2,82.2,82.2s82.2-36.9,82.2-82.2S289.5,1678.5,244.2,1678.5z"/>
</g>
<g>
	<circle fill="#85ACDD" cx="167" cy="1845.1" r="84.7"/>
	<path d="M167,1932.3c-48.1,0-87.2-39.1-87.2-87.2c0-48.1,39.1-87.2,87.2-87.2s87.2,39.1,87.2,87.2
		C254.2,1893.2,215,1932.3,167,1932.3z M167,1762.9c-45.3,0-82.2,36.9-82.2,82.2s36.9,82.2,82.2,82.2s82.2-36.9,82.2-82.2
		S212.3,1762.9,167,1762.9z"/>
</g>
<g>
	<circle fill="#85ACDD" cx="214.7" cy="2172.3" r="84.7"/>
	<path d="M214.7,2259.6c-48.1,0-87.2-39.1-87.2-87.2s39.1-87.2,87.2-87.2s87.2,39.1,87.2,87.2S262.8,2259.6,214.7,2259.6z
		 M214.7,2090.1c-45.3,0-82.2,36.9-82.2,82.2s36.9,82.2,82.2,82.2s82.2-36.9,82.2-82.2S260.1,2090.1,214.7,2090.1z"/>
</g>
<g>
	<circle fill="#88EADB" cx="179.7" cy="2287.3" r="84.7"/>
	<path d="M179.7,2374.6c-48.1,0-87.2-39.1-87.2-87.2s39.1-87.2,87.2-87.2s87.2,39.1,87.2,87.2S227.8,2374.6,179.7,2374.6z
		 M179.7,2205.1c-45.3,0-82.2,36.9-82.2,82.2s36.9,82.2,82.2,82.2s82.2-36.9,82.2-82.2S225.1,2205.1,179.7,2205.1z"/>
</g>
<g>
	<circle fill="#85ACDD" cx="130.3" cy="1740.8" r="84.7"/>
	<path d="M130.3,1828c-48.1,0-87.2-39.1-87.2-87.2s39.1-87.2,87.2-87.2s87.2,39.1,87.2,87.2S178.4,1828,130.3,1828z M130.3,1658.6
		c-45.3,0-82.2,36.9-82.2,82.2S85,1823,130.3,1823s82.2-36.9,82.2-82.2S175.7,1658.6,130.3,1658.6z"/>
</g>
<g>
	<circle fill="#85ACDD" cx="167" cy="1540.1" r="84.7"/>
	<path d="M167,1627.4c-48.1,0-87.2-39.1-87.2-87.2s39.1-87.2,87.2-87.2s87.2,39.1,87.2,87.2S215,1627.4,167,1627.4z M167,1457.9
		c-45.3,0-82.2,36.9-82.2,82.2s36.9,82.2,82.2,82.2s82.2-36.9,82.2-82.2S212.3,1457.9,167,1457.9z"/>
</g>
<g>
	<circle fill="#85ACDD" cx="328.6" cy="1882.5" r="84.7"/>
	<path d="M328.6,1969.7c-48.1,0-87.2-39.1-87.2-87.2s39.1-87.2,87.2-87.2s87.2,39.1,87.2,87.2S376.7,1969.7,328.6,1969.7z
		 M328.6,1800.3c-45.3,0-82.2,36.9-82.2,82.2s36.9,82.2,82.2,82.2s82.2-36.9,82.2-82.2S373.9,1800.3,328.6,1800.3z"/>
</g>
<g>
	<circle fill="#85ACDD" cx="328.6" cy="2136.5" r="84.7"/>
	<path d="M328.6,2223.7c-48.1,0-87.2-39.1-87.2-87.2s39.1-87.2,87.2-87.2s87.2,39.1,87.2,87.2S376.7,2223.7,328.6,2223.7z
		 M328.6,2054.3c-45.3,0-82.2,36.9-82.2,82.2s36.9,82.2,82.2,82.2s82.2-36.9,82.2-82.2S373.9,2054.3,328.6,2054.3z"/>
</g>
<g>
	<circle fill="#85ACDD" cx="317.4" cy="2279.8" r="84.7"/>
	<path d="M317.4,2367c-48.1,0-87.2-39.1-87.2-87.2s39.1-87.2,87.2-87.2s87.2,39.1,87.2,87.2S365.5,2367,317.4,2367z M317.4,2197.6
		c-45.3,0-82.2,36.9-82.2,82.2s36.9,82.2,82.2,82.2s82.2-36.9,82.2-82.2S362.8,2197.6,317.4,2197.6z"/>
</g>
<g>
	<circle fill="#85ACDD" cx="433.7" cy="2337.2" r="84.7"/>
	<path d="M433.7,2424.4c-48.1,0-87.2-39.1-87.2-87.2s39.1-87.2,87.2-87.2s87.2,39.1,87.2,87.2S481.8,2424.4,433.7,2424.4z
		 M433.7,2254.9c-45.3,0-82.2,36.9-82.2,82.2s36.9,82.2,82.2,82.2s82.2-36.9,82.2-82.2S479,2254.9,433.7,2254.9z"/>
</g>
<g>
	<circle fill="#85ACDD" cx="592.1" cy="2111" r="84.7"/>
	<path d="M592.1,2198.2c-48.1,0-87.2-39.1-87.2-87.2s39.1-87.2,87.2-87.2s87.2,39.1,87.2,87.2S640.2,2198.2,592.1,2198.2z
		 M592.1,2028.8c-45.3,0-82.2,36.9-82.2,82.2s36.9,82.2,82.2,82.2s82.2-36.9,82.2-82.2S637.5,2028.8,592.1,2028.8z"/>
</g>
<g>
	<circle fill="#88EADB" cx="1414.6" cy="2279.8" r="84.7"/>
	<path d="M1414.6,2367c-48.1,0-87.2-39.1-87.2-87.2s39.1-87.2,87.2-87.2s87.2,39.1,87.2,87.2S1462.7,2367,1414.6,2367z
		 M1414.6,2197.6c-45.3,0-82.2,36.9-82.2,82.2s36.9,82.2,82.2,82.2s82.2-36.9,82.2-82.2S1460,2197.6,1414.6,2197.6z"/>
</g>
<g>
	<circle fill="#85ACDD" cx="1524.5" cy="2210.6" r="84.7"/>
	<path d="M1524.5,2297.8c-48.1,0-87.2-39.1-87.2-87.2s39.1-87.2,87.2-87.2s87.2,39.1,87.2,87.2S1572.6,2297.8,1524.5,2297.8z
		 M1524.5,2128.3c-45.3,0-82.2,36.9-82.2,82.2s36.9,82.2,82.2,82.2s82.2-36.9,82.2-82.2S1569.8,2128.3,1524.5,2128.3z"/>
</g>
<g>
	<circle fill="#85ACDD" cx="1642.4" cy="2287" r="84.7"/>
	<path d="M1642.4,2374.2c-48.1,0-87.2-39.1-87.2-87.2c0-48.1,39.1-87.2,87.2-87.2s87.2,39.1,87.2,87.2
		C1729.6,2335.1,1690.4,2374.2,1642.4,2374.2z M1642.4,2204.8c-45.3,0-82.2,36.9-82.2,82.2s36.9,82.2,82.2,82.2s82.2-36.9,82.2-82.2
		S1687.7,2204.8,1642.4,2204.8z"/>
</g>
<g>
	<circle fill="#85ACDD" cx="1631.2" cy="2195.4" r="84.7"/>
	<path d="M1631.2,2282.6c-48.1,0-87.2-39.1-87.2-87.2s39.1-87.2,87.2-87.2s87.2,39.1,87.2,87.2S1679.3,2282.6,1631.2,2282.6z
		 M1631.2,2113.2c-45.3,0-82.2,36.9-82.2,82.2s36.9,82.2,82.2,82.2s82.2-36.9,82.2-82.2S1676.5,2113.2,1631.2,2113.2z"/>
</g>
<g>
	<circle fill="#85ACDD" cx="1564.3" cy="2095.9" r="84.7"/>
	<path d="M1564.3,2183.1c-48.1,0-87.2-39.1-87.2-87.2s39.1-87.2,87.2-87.2s87.2,39.1,87.2,87.2S1612.4,2183.1,1564.3,2183.1z
		 M1564.3,2013.7c-45.3,0-82.2,36.9-82.2,82.2s36.9,82.2,82.2,82.2s82.2-36.9,82.2-82.2S1609.7,2013.7,1564.3,2013.7z"/>
</g>
<g>
	<circle fill="#85ACDD" cx="2351" cy="2111" r="84.7"/>
	<path d="M2351,2198.2c-48.1,0-87.2-39.1-87.2-87.2s39.1-87.2,87.2-87.2s87.2,39.1,87.2,87.2S2399.1,2198.2,2351,2198.2z
		 M2351,2028.8c-45.3,0-82.2,36.9-82.2,82.2s36.9,82.2,82.2,82.2s82.2-36.9,82.2-82.2S2396.3,2028.8,2351,2028.8z"/>
</g>
<g>
	<circle fill="#85ACDD" cx="2481.6" cy="2130.1" r="84.7"/>
	<path d="M2481.6,2217.4c-48.1,0-87.2-39.1-87.2-87.2s39.1-87.2,87.2-87.2s87.2,39.1,87.2,87.2S2529.7,2217.4,2481.6,2217.4z
		 M2481.6,2047.9c-45.3,0-82.2,36.9-82.2,82.2s36.9,82.2,82.2,82.2s82.2-36.9,82.2-82.2S2526.9,2047.9,2481.6,2047.9z"/>
</g>
<g>
	<circle fill="#85ACDD" cx="2572.3" cy="2075.2" r="84.7"/>
	<path d="M2572.3,2162.4c-48.1,0-87.2-39.1-87.2-87.2s39.1-87.2,87.2-87.2s87.2,39.1,87.2,87.2S2620.4,2162.4,2572.3,2162.4z
		 M2572.3,1993c-45.3,0-82.2,36.9-82.2,82.2s36.9,82.2,82.2,82.2s82.2-36.9,82.2-82.2S2617.7,1993,2572.3,1993z"/>
</g>
<g>
	<circle fill="#85ACDD" cx="2700.5" cy="2159.6" r="84.7"/>
	<path d="M2700.5,2246.8c-48.1,0-87.2-39.1-87.2-87.2s39.1-87.2,87.2-87.2s87.2,39.1,87.2,87.2S2748.6,2246.8,2700.5,2246.8z
		 M2700.5,2077.4c-45.3,0-82.2,36.9-82.2,82.2s36.9,82.2,82.2,82.2s82.2-36.9,82.2-82.2S2745.9,2077.4,2700.5,2077.4z"/>
</g>
<g>
	<circle fill="#85ACDD" cx="2784.9" cy="2087.9" r="84.7"/>
	<path d="M2784.9,2175.2c-48.1,0-87.2-39.1-87.2-87.2s39.1-87.2,87.2-87.2s87.2,39.1,87.2,87.2S2833,2175.2,2784.9,2175.2z
		 M2784.9,2005.7c-45.3,0-82.2,36.9-82.2,82.2s36.9,82.2,82.2,82.2s82.2-36.9,82.2-82.2S2830.3,2005.7,2784.9,2005.7z"/>
</g>
<g>
	<circle fill="#88EADB" cx="2926.7" cy="2075.2" r="84.7"/>
	<path d="M2926.7,2162.4c-48.1,0-87.2-39.1-87.2-87.2s39.1-87.2,87.2-87.2s87.2,39.1,87.2,87.2S2974.7,2162.4,2926.7,2162.4z
		 M2926.7,1993c-45.3,0-82.2,36.9-82.2,82.2s36.9,82.2,82.2,82.2s82.2-36.9,82.2-82.2S2972,1993,2926.7,1993z"/>
</g>
<g>
	<circle fill="#85ACDD" cx="2351" cy="2305.3" r="84.7"/>
	<path d="M2351,2392.5c-48.1,0-87.2-39.1-87.2-87.2s39.1-87.2,87.2-87.2s87.2,39.1,87.2,87.2S2399.1,2392.5,2351,2392.5z
		 M2351,2223.1c-45.3,0-82.2,36.9-82.2,82.2s36.9,82.2,82.2,82.2s82.2-36.9,82.2-82.2S2396.3,2223.1,2351,2223.1z"/>
</g>
<g>
	<circle fill="#85ACDD" cx="2499.1" cy="2364.2" r="84.7"/>
	<path d="M2499.1,2451.4c-48.1,0-87.2-39.1-87.2-87.2c0-48.1,39.1-87.2,87.2-87.2s87.2,39.1,87.2,87.2
		C2586.3,2412.3,2547.2,2451.4,2499.1,2451.4z M2499.1,2282c-45.3,0-82.2,36.9-82.2,82.2c0,45.3,36.9,82.2,82.2,82.2
		s82.2-36.9,82.2-82.2C2581.3,2318.9,2544.4,2282,2499.1,2282z"/>
</g>
<g>
	<circle fill="#88EADB" cx="2583.5" cy="2295" r="84.7"/>
	<path d="M2583.5,2382.2c-48.1,0-87.2-39.1-87.2-87.2s39.1-87.2,87.2-87.2s87.2,39.1,87.2,87.2S2631.6,2382.2,2583.5,2382.2z
		 M2583.5,2212.7c-45.3,0-82.2,36.9-82.2,82.2s36.9,82.2,82.2,82.2s82.2-36.9,82.2-82.2S2628.8,2212.7,2583.5,2212.7z"/>
</g>
<g>
	<circle fill="#85ACDD" cx="3100.2" cy="2095.9" r="84.7"/>
	<path d="M3100.2,2183.1c-48.1,0-87.2-39.1-87.2-87.2s39.1-87.2,87.2-87.2s87.2,39.1,87.2,87.2S3148.3,2183.1,3100.2,2183.1z
		 M3100.2,2013.7c-45.3,0-82.2,36.9-82.2,82.2s36.9,82.2,82.2,82.2s82.2-36.9,82.2-82.2S3145.6,2013.7,3100.2,2013.7z"/>
</g>
<g>
	<circle fill="#85ACDD" cx="3021.4" cy="2152.4" r="84.7"/>
	<path d="M3021.4,2239.7c-48.1,0-87.2-39.1-87.2-87.2s39.1-87.2,87.2-87.2s87.2,39.1,87.2,87.2S3069.5,2239.7,3021.4,2239.7z
		 M3021.4,2070.2c-45.3,0-82.2,36.9-82.2,82.2s36.9,82.2,82.2,82.2s82.2-36.9,82.2-82.2S3066.7,2070.2,3021.4,2070.2z"/>
</g>
<g>
	<circle fill="#85ACDD" cx="3131.3" cy="2210.6" r="84.7"/>
	<path d="M3131.3,2297.8c-48.1,0-87.2-39.1-87.2-87.2s39.1-87.2,87.2-87.2s87.2,39.1,87.2,87.2S3179.4,2297.8,3131.3,2297.8z
		 M3131.3,2128.3c-45.3,0-82.2,36.9-82.2,82.2s36.9,82.2,82.2,82.2s82.2-36.9,82.2-82.2S3176.6,2128.3,3131.3,2128.3z"/>
</g>
<g>
	<circle fill="#85ACDD" cx="3230" cy="2279.8" r="84.7"/>
	<path d="M3230,2367c-48.1,0-87.2-39.1-87.2-87.2s39.1-87.2,87.2-87.2s87.2,39.1,87.2,87.2S3278.1,2367,3230,2367z M3230,2197.6
		c-45.3,0-82.2,36.9-82.2,82.2s36.9,82.2,82.2,82.2s82.2-36.9,82.2-82.2S3275.3,2197.6,3230,2197.6z"/>
</g>
<g>
	<circle fill="#85ACDD" cx="3002.3" cy="2267.9" r="84.7"/>
	<path d="M3002.3,2355.1c-48.1,0-87.2-39.1-87.2-87.2s39.1-87.2,87.2-87.2s87.2,39.1,87.2,87.2S3050.4,2355.1,3002.3,2355.1z
		 M3002.3,2185.7c-45.3,0-82.2,36.9-82.2,82.2s36.9,82.2,82.2,82.2s82.2-36.9,82.2-82.2S3047.6,2185.7,3002.3,2185.7z"/>
</g>
<g>
	<circle fill="#85ACDD" cx="2856.6" cy="2305.3" r="84.7"/>
	<path d="M2856.6,2392.5c-48.1,0-87.2-39.1-87.2-87.2s39.1-87.2,87.2-87.2s87.2,39.1,87.2,87.2S2904.7,2392.5,2856.6,2392.5z
		 M2856.6,2223.1c-45.3,0-82.2,36.9-82.2,82.2s36.9,82.2,82.2,82.2s82.2-36.9,82.2-82.2S2901.9,2223.1,2856.6,2223.1z"/>
</g>
<g>
	<circle fill="#85ACDD" cx="3313.6" cy="2068" r="84.7"/>
	<path d="M3313.6,2155.3c-48.1,0-87.2-39.1-87.2-87.2s39.1-87.2,87.2-87.2s87.2,39.1,87.2,87.2S3361.7,2155.3,3313.6,2155.3z
		 M3313.6,1985.8c-45.3,0-82.2,36.9-82.2,82.2s36.9,82.2,82.2,82.2s82.2-36.9,82.2-82.2S3359,1985.8,3313.6,1985.8z"/>
</g>
<g>
	<circle fill="#88EADB" cx="3432.3" cy="2152.4" r="84.7"/>
	<path d="M3432.3,2239.7c-48.1,0-87.2-39.1-87.2-87.2s39.1-87.2,87.2-87.2s87.2,39.1,87.2,87.2S3480.3,2239.7,3432.3,2239.7z
		 M3432.3,2070.2c-45.3,0-82.2,36.9-82.2,82.2s36.9,82.2,82.2,82.2s82.2-36.9,82.2-82.2S3477.6,2070.2,3432.3,2070.2z"/>
</g>
<g>
	<circle fill="#85ACDD" cx="3437" cy="2041" r="84.7"/>
	<path d="M3437,2128.2c-48.1,0-87.2-39.1-87.2-87.2s39.1-87.2,87.2-87.2s87.2,39.1,87.2,87.2S3485.1,2128.2,3437,2128.2z
		 M3437,1958.7c-45.3,0-82.2,36.9-82.2,82.2s36.9,82.2,82.2,82.2s82.2-36.9,82.2-82.2S3482.4,1958.7,3437,1958.7z"/>
</g>
<g>
	<circle fill="#85ACDD" cx="3340.7" cy="1956.6" r="84.7"/>
	<path d="M3340.7,2043.8c-48.1,0-87.2-39.1-87.2-87.2s39.1-87.2,87.2-87.2s87.2,39.1,87.2,87.2S3388.8,2043.8,3340.7,2043.8z
		 M3340.7,1874.3c-45.3,0-82.2,36.9-82.2,82.2s36.9,82.2,82.2,82.2s82.2-36.9,82.2-82.2S3386,1874.3,3340.7,1874.3z"/>
</g>
<g>
	<circle fill="#85ACDD" cx="3406" cy="1828.4" r="84.7"/>
	<path d="M3406,1915.6c-48.1,0-87.2-39.1-87.2-87.2s39.1-87.2,87.2-87.2s87.2,39.1,87.2,87.2S3454.1,1915.6,3406,1915.6z
		 M3406,1746.2c-45.3,0-82.2,36.9-82.2,82.2s36.9,82.2,82.2,82.2s82.2-36.9,82.2-82.2S3451.3,1746.2,3406,1746.2z"/>
</g>
<g>
	<circle fill="#88EADB" cx="3464.9" cy="1930.3" r="84.7"/>
	<path d="M3464.9,2017.5c-48.1,0-87.2-39.1-87.2-87.2s39.1-87.2,87.2-87.2s87.2,39.1,87.2,87.2S3513,2017.5,3464.9,2017.5z
		 M3464.9,1848.1c-45.3,0-82.2,36.9-82.2,82.2s36.9,82.2,82.2,82.2s82.2-36.9,82.2-82.2S3510.2,1848.1,3464.9,1848.1z"/>
</g>
<g>
	<circle fill="#85ACDD" cx="3295.3" cy="1819.6" r="84.7"/>
	<path d="M3295.3,1906.8c-48.1,0-87.2-39.1-87.2-87.2s39.1-87.2,87.2-87.2s87.2,39.1,87.2,87.2S3343.4,1906.8,3295.3,1906.8z
		 M3295.3,1737.4c-45.3,0-82.2,36.9-82.2,82.2s36.9,82.2,82.2,82.2s82.2-36.9,82.2-82.2S3340.6,1737.4,3295.3,1737.4z"/>
</g>
<g>
	<circle fill="#85ACDD" cx="3314.4" cy="2210.6" r="84.7"/>
	<path d="M3314.4,2297.8c-48.1,0-87.2-39.1-87.2-87.2s39.1-87.2,87.2-87.2s87.2,39.1,87.2,87.2S3362.5,2297.8,3314.4,2297.8z
		 M3314.4,2128.3c-45.3,0-82.2,36.9-82.2,82.2s36.9,82.2,82.2,82.2s82.2-36.9,82.2-82.2S3359.7,2128.3,3314.4,2128.3z"/>
</g>
<g>
	<circle fill="#85ACDD" cx="3510.3" cy="1509.9" r="84.7"/>
	<path d="M3510.3,1597.1c-48.1,0-87.2-39.1-87.2-87.2s39.1-87.2,87.2-87.2s87.2,39.1,87.2,87.2S3558.4,1597.1,3510.3,1597.1z
		 M3510.3,1427.7c-45.3,0-82.2,36.9-82.2,82.2s36.9,82.2,82.2,82.2s82.2-36.9,82.2-82.2S3555.6,1427.7,3510.3,1427.7z"/>
</g>
<g>
	<circle fill="#85ACDD" cx="3408.4" cy="1439" r="84.7"/>
	<path d="M3408.4,1526.2c-48.1,0-87.2-39.1-87.2-87.2s39.1-87.2,87.2-87.2s87.2,39.1,87.2,87.2S3456.5,1526.2,3408.4,1526.2z
		 M3408.4,1356.8c-45.3,0-82.2,36.9-82.2,82.2s36.9,82.2,82.2,82.2s82.2-36.9,82.2-82.2S3453.7,1356.8,3408.4,1356.8z"/>
</g>
<g>
	<circle fill="#85ACDD" cx="3331.9" cy="1384.9" r="84.7"/>
	<path d="M3331.9,1472.1c-48.1,0-87.2-39.1-87.2-87.2s39.1-87.2,87.2-87.2s87.2,39.1,87.2,87.2S3380,1472.1,3331.9,1472.1z
		 M3331.9,1302.7c-45.3,0-82.2,36.9-82.2,82.2s36.9,82.2,82.2,82.2s82.2-36.9,82.2-82.2S3377.3,1302.7,3331.9,1302.7z"/>
</g>
<g>
	<circle fill="#88EADB" cx="3449" cy="1307.6" r="84.7"/>
	<path d="M3449,1394.9c-48.1,0-87.2-39.1-87.2-87.2c0-48.1,39.1-87.2,87.2-87.2s87.2,39.1,87.2,87.2
		C3536.2,1355.7,3497.1,1394.9,3449,1394.9z M3449,1225.4c-45.3,0-82.2,36.9-82.2,82.2s36.9,82.2,82.2,82.2s82.2-36.9,82.2-82.2
		S3494.3,1225.4,3449,1225.4z"/>
</g>
<g>
	<circle fill="#85ACDD" cx="3319.2" cy="1240.8" r="84.7"/>
	<path d="M3319.2,1328c-48.1,0-87.2-39.1-87.2-87.2s39.1-87.2,87.2-87.2s87.2,39.1,87.2,87.2S3367.3,1328,3319.2,1328z
		 M3319.2,1158.5c-45.3,0-82.2,36.9-82.2,82.2s36.9,82.2,82.2,82.2s82.2-36.9,82.2-82.2S3364.5,1158.5,3319.2,1158.5z"/>
</g>
<g>
	<circle fill="#85ACDD" cx="3384.5" cy="1565.6" r="84.7"/>
	<path d="M3384.5,1652.8c-48.1,0-87.2-39.1-87.2-87.2s39.1-87.2,87.2-87.2s87.2,39.1,87.2,87.2S3432.6,1652.8,3384.5,1652.8z
		 M3384.5,1483.4c-45.3,0-82.2,36.9-82.2,82.2s36.9,82.2,82.2,82.2s82.2-36.9,82.2-82.2S3429.8,1483.4,3384.5,1483.4z"/>
</g>
<g>
	<circle fill="#85ACDD" cx="3435.4" cy="1636.5" r="84.7"/>
	<path d="M3435.4,1723.7c-48.1,0-87.2-39.1-87.2-87.2s39.1-87.2,87.2-87.2s87.2,39.1,87.2,87.2S3483.5,1723.7,3435.4,1723.7z
		 M3435.4,1554.3c-45.3,0-82.2,36.9-82.2,82.2s36.9,82.2,82.2,82.2s82.2-36.9,82.2-82.2S3480.8,1554.3,3435.4,1554.3z"/>
</g>
<g>
	<circle fill="#85ACDD" cx="3484" cy="917.5" r="84.7"/>
	<path d="M3484,1004.7c-48.1,0-87.2-39.1-87.2-87.2s39.1-87.2,87.2-87.2s87.2,39.1,87.2,87.2S3532.1,1004.7,3484,1004.7z
		 M3484,835.3c-45.3,0-82.2,36.9-82.2,82.2s36.9,82.2,82.2,82.2s82.2-36.9,82.2-82.2S3529.3,835.3,3484,835.3z"/>
</g>
<g>
	<circle fill="#88EADB" cx="3314.4" cy="689" r="84.7"/>
	<path d="M3314.4,776.2c-48.1,0-87.2-39.1-87.2-87.2s39.1-87.2,87.2-87.2s87.2,39.1,87.2,87.2S3362.5,776.2,3314.4,776.2z
		 M3314.4,606.8c-45.3,0-82.2,36.9-82.2,82.2s36.9,82.2,82.2,82.2s82.2-36.9,82.2-82.2S3359.7,606.8,3314.4,606.8z"/>
</g>
<g>
	<circle fill="#85ACDD" cx="3379.7" cy="579.1" r="84.7"/>
	<path d="M3379.7,666.3c-48.1,0-87.2-39.1-87.2-87.2s39.1-87.2,87.2-87.2s87.2,39.1,87.2,87.2S3427.8,666.3,3379.7,666.3z
		 M3379.7,496.9c-45.3,0-82.2,36.9-82.2,82.2s36.9,82.2,82.2,82.2s82.2-36.9,82.2-82.2S3425,496.9,3379.7,496.9z"/>
</g>
<g>
	<circle fill="#85ACDD" cx="3276.2" cy="427.8" r="84.7"/>
	<path d="M3276.2,515c-48.1,0-87.2-39.1-87.2-87.2s39.1-87.2,87.2-87.2s87.2,39.1,87.2,87.2S3324.3,515,3276.2,515z M3276.2,345.6
		c-45.3,0-82.2,36.9-82.2,82.2s36.9,82.2,82.2,82.2s82.2-36.9,82.2-82.2S3321.5,345.6,3276.2,345.6z"/>
</g>
<g>
	<circle fill="#85ACDD" cx="3125.7" cy="428.6" r="84.7"/>
	<path d="M3125.7,515.8c-48.1,0-87.2-39.1-87.2-87.2s39.1-87.2,87.2-87.2s87.2,39.1,87.2,87.2S3173.8,515.8,3125.7,515.8z
		 M3125.7,346.4c-45.3,0-82.2,36.9-82.2,82.2s36.9,82.2,82.2,82.2s82.2-36.9,82.2-82.2S3171,346.4,3125.7,346.4z"/>
</g>
<g>
	<circle fill="#85ACDD" cx="3013.4" cy="395.2" r="84.7"/>
	<path d="M3013.4,482.4c-48.1,0-87.2-39.1-87.2-87.2s39.1-87.2,87.2-87.2s87.2,39.1,87.2,87.2S3061.5,482.4,3013.4,482.4z
		 M3013.4,313c-45.3,0-82.2,36.9-82.2,82.2s36.9,82.2,82.2,82.2s82.2-36.9,82.2-82.2S3058.8,313,3013.4,313z"/>
</g>
<g>
	<circle fill="#85ACDD" cx="2902" cy="321.1" r="84.7"/>
	<path d="M2902,408.3c-48.1,0-87.2-39.1-87.2-87.2s39.1-87.2,87.2-87.2s87.2,39.1,87.2,87.2S2950.1,408.3,2902,408.3z M2902,238.9
		c-45.3,0-82.2,36.9-82.2,82.2s36.9,82.2,82.2,82.2s82.2-36.9,82.2-82.2S2947.3,238.9,2902,238.9z"/>
</g>
<g>
	<circle fill="#85ACDD" cx="2986.4" cy="201.7" r="84.7"/>
	<path d="M2986.4,288.9c-48.1,0-87.2-39.1-87.2-87.2s39.1-87.2,87.2-87.2s87.2,39.1,87.2,87.2S3034.5,288.9,2986.4,288.9z
		 M2986.4,119.5c-45.3,0-82.2,36.9-82.2,82.2s36.9,82.2,82.2,82.2s82.2-36.9,82.2-82.2S3031.7,119.5,2986.4,119.5z"/>
</g>
<g>
	<circle fill="#85ACDD" cx="2902" cy="201.7" r="84.7"/>
	<path d="M2902,288.9c-48.1,0-87.2-39.1-87.2-87.2s39.1-87.2,87.2-87.2s87.2,39.1,87.2,87.2S2950.1,288.9,2902,288.9z M2902,119.5
		c-45.3,0-82.2,36.9-82.2,82.2s36.9,82.2,82.2,82.2s82.2-36.9,82.2-82.2S2947.3,119.5,2902,119.5z"/>
</g>
<g>
	<circle fill="#88EADB" cx="2710.9" cy="158.7" r="84.7"/>
	<path d="M2710.9,245.9c-48.1,0-87.2-39.1-87.2-87.2s39.1-87.2,87.2-87.2s87.2,39.1,87.2,87.2S2759,245.9,2710.9,245.9z
		 M2710.9,76.5c-45.3,0-82.2,36.9-82.2,82.2s36.9,82.2,82.2,82.2s82.2-36.9,82.2-82.2S2756.2,76.5,2710.9,76.5z"/>
</g>
<g>
	<circle fill="#85ACDD" cx="2613.7" cy="185.8" r="84.7"/>
	<path d="M2613.7,273c-48.1,0-87.2-39.1-87.2-87.2s39.1-87.2,87.2-87.2s87.2,39.1,87.2,87.2S2661.8,273,2613.7,273z M2613.7,103.6
		c-45.3,0-82.2,36.9-82.2,82.2s36.9,82.2,82.2,82.2s82.2-36.9,82.2-82.2S2659.1,103.6,2613.7,103.6z"/>
</g>
<g>
	<circle fill="#85ACDD" cx="2397.2" cy="173.8" r="84.7"/>
	<path d="M2397.2,261c-48.1,0-87.2-39.1-87.2-87.2s39.1-87.2,87.2-87.2s87.2,39.1,87.2,87.2S2445.3,261,2397.2,261z M2397.2,91.6
		c-45.3,0-82.2,36.9-82.2,82.2s36.9,82.2,82.2,82.2s82.2-36.9,82.2-82.2S2442.5,91.6,2397.2,91.6z"/>
</g>
<g>
	<circle fill="#85ACDD" cx="1994.3" cy="185.8" r="84.7"/>
	<path d="M1994.3,273c-48.1,0-87.2-39.1-87.2-87.2s39.1-87.2,87.2-87.2s87.2,39.1,87.2,87.2S2042.4,273,1994.3,273z M1994.3,103.6
		c-45.3,0-82.2,36.9-82.2,82.2s36.9,82.2,82.2,82.2s82.2-36.9,82.2-82.2S2039.6,103.6,1994.3,103.6z"/>
</g>
<g>
	<circle fill="#85ACDD" cx="1887.6" cy="173.8" r="84.7"/>
	<path d="M1887.6,261c-48.1,0-87.2-39.1-87.2-87.2s39.1-87.2,87.2-87.2s87.2,39.1,87.2,87.2S1935.7,261,1887.6,261z M1887.6,91.6
		c-45.3,0-82.2,36.9-82.2,82.2s36.9,82.2,82.2,82.2s82.2-36.9,82.2-82.2S1932.9,91.6,1887.6,91.6z"/>
</g>
<g>
	<circle fill="#85ACDD" cx="1648.7" cy="158.7" r="84.7"/>
	<path d="M1648.7,245.9c-48.1,0-87.2-39.1-87.2-87.2s39.1-87.2,87.2-87.2s87.2,39.1,87.2,87.2S1696.8,245.9,1648.7,245.9z
		 M1648.7,76.5c-45.3,0-82.2,36.9-82.2,82.2s36.9,82.2,82.2,82.2s82.2-36.9,82.2-82.2S1694.1,76.5,1648.7,76.5z"/>
</g>
<g>
	<circle fill="#88EADB" cx="2795.3" cy="270.2" r="84.7"/>
	<path d="M2795.3,357.4c-48.1,0-87.2-39.1-87.2-87.2c0-48.1,39.1-87.2,87.2-87.2s87.2,39.1,87.2,87.2
		C2882.5,318.3,2843.4,357.4,2795.3,357.4z M2795.3,188c-45.3,0-82.2,36.9-82.2,82.2s36.9,82.2,82.2,82.2s82.2-36.9,82.2-82.2
		S2840.6,188,2795.3,188z"/>
</g>
<g>
	<circle fill="#85ACDD" cx="2591.4" cy="321.1" r="84.7"/>
	<path d="M2591.4,408.3c-48.1,0-87.2-39.1-87.2-87.2s39.1-87.2,87.2-87.2s87.2,39.1,87.2,87.2S2639.5,408.3,2591.4,408.3z
		 M2591.4,238.9c-45.3,0-82.2,36.9-82.2,82.2s36.9,82.2,82.2,82.2s82.2-36.9,82.2-82.2S2636.8,238.9,2591.4,238.9z"/>
</g>
<g>
	<circle fill="#85ACDD" cx="328.6" cy="1624.5" r="84.7"/>
	<path d="M328.6,1711.8c-48.1,0-87.2-39.1-87.2-87.2s39.1-87.2,87.2-87.2s87.2,39.1,87.2,87.2S376.7,1711.8,328.6,1711.8z
		 M328.6,1542.3c-45.3,0-82.2,36.9-82.2,82.2s36.9,82.2,82.2,82.2s82.2-36.9,82.2-82.2S373.9,1542.3,328.6,1542.3z"/>
</g>
<g>
	<circle fill="#85ACDD" cx="221.1" cy="1434.2" r="84.7"/>
	<path d="M221.1,1521.5c-48.1,0-87.2-39.1-87.2-87.2s39.1-87.2,87.2-87.2s87.2,39.1,87.2,87.2S269.2,1521.5,221.1,1521.5z
		 M221.1,1352c-45.3,0-82.2,36.9-82.2,82.2s36.9,82.2,82.2,82.2s82.2-36.9,82.2-82.2S266.4,1352,221.1,1352z"/>
</g>
<g>
	<circle fill="#88EADB" cx="459.2" cy="2083.2" r="84.7"/>
	<path d="M459.2,2170.4c-48.1,0-87.2-39.1-87.2-87.2s39.1-87.2,87.2-87.2s87.2,39.1,87.2,87.2S507.3,2170.4,459.2,2170.4z
		 M459.2,2000.9c-45.3,0-82.2,36.9-82.2,82.2s36.9,82.2,82.2,82.2s82.2-36.9,82.2-82.2S504.5,2000.9,459.2,2000.9z"/>
</g>
<g>
	<circle fill="#85ACDD" cx="1031.6" cy="2317.3" r="84.7"/>
	<path d="M1031.7,2404.5c-48.1,0-87.2-39.1-87.2-87.2c0-48.1,39.1-87.2,87.2-87.2s87.2,39.1,87.2,87.2
		C1118.9,2365.3,1079.7,2404.5,1031.7,2404.5z M1031.7,2235c-45.3,0-82.2,36.9-82.2,82.2s36.9,82.2,82.2,82.2s82.2-36.9,82.2-82.2
		S1077,2235,1031.7,2235z"/>
</g>
<g>
	<circle fill="#85ACDD" cx="1428.2" cy="2152.4" r="84.7"/>
	<path d="M1428.2,2239.7c-48.1,0-87.2-39.1-87.2-87.2s39.1-87.2,87.2-87.2s87.2,39.1,87.2,87.2S1476.3,2239.7,1428.2,2239.7z
		 M1428.2,2070.2c-45.3,0-82.2,36.9-82.2,82.2s36.9,82.2,82.2,82.2s82.2-36.9,82.2-82.2S1473.5,2070.2,1428.2,2070.2z"/>
</g>
<g>
	<circle fill="#85ACDD" cx="1760.2" cy="2267.9" r="84.7"/>
	<path d="M1760.2,2355.1c-48.1,0-87.2-39.1-87.2-87.2s39.1-87.2,87.2-87.2s87.2,39.1,87.2,87.2S1808.3,2355.1,1760.2,2355.1z
		 M1760.2,2185.7c-45.3,0-82.2,36.9-82.2,82.2s36.9,82.2,82.2,82.2s82.2-36.9,82.2-82.2S1805.5,2185.7,1760.2,2185.7z"/>
</g>
<g>
	<circle fill="#85ACDD" cx="1700.5" cy="2068" r="84.7"/>
	<path d="M1700.5,2155.3c-48.1,0-87.2-39.1-87.2-87.2s39.1-87.2,87.2-87.2s87.2,39.1,87.2,87.2S1748.6,2155.3,1700.5,2155.3z
		 M1700.5,1985.8c-45.3,0-82.2,36.9-82.2,82.2s36.9,82.2,82.2,82.2s82.2-36.9,82.2-82.2S1745.8,1985.8,1700.5,1985.8z"/>
</g>
<g>
	<circle fill="#88EADB" cx="1819.1" cy="2152.4" r="84.7"/>
	<path d="M1819.1,2239.7c-48.1,0-87.2-39.1-87.2-87.2s39.1-87.2,87.2-87.2s87.2,39.1,87.2,87.2S1867.2,2239.7,1819.1,2239.7z
		 M1819.1,2070.2c-45.3,0-82.2,36.9-82.2,82.2s36.9,82.2,82.2,82.2s82.2-36.9,82.2-82.2S1864.4,2070.2,1819.1,2070.2z"/>
</g>
<g>
	<circle fill="#85ACDD" cx="1929.8" cy="2106.3" r="84.7"/>
	<path d="M1929.8,2193.5c-48.1,0-87.2-39.1-87.2-87.2s39.1-87.2,87.2-87.2s87.2,39.1,87.2,87.2S1977.9,2193.5,1929.8,2193.5z
		 M1929.8,2024c-45.3,0-82.2,36.9-82.2,82.2s36.9,82.2,82.2,82.2s82.2-36.9,82.2-82.2S1975.1,2024,1929.8,2024z"/>
</g>
<g>
	<circle fill="#85ACDD" cx="1876.4" cy="2202.6" r="84.7"/>
	<path d="M1876.4,2289.8c-48.1,0-87.2-39.1-87.2-87.2s39.1-87.2,87.2-87.2s87.2,39.1,87.2,87.2S1924.5,2289.8,1876.4,2289.8z
		 M1876.4,2120.4c-45.3,0-82.2,36.9-82.2,82.2s36.9,82.2,82.2,82.2s82.2-36.9,82.2-82.2S1921.8,2120.4,1876.4,2120.4z"/>
</g>
<g>
	<circle fill="#85ACDD" cx="2014.2" cy="2220.9" r="84.7"/>
	<path d="M2014.2,2308.1c-48.1,0-87.2-39.1-87.2-87.2s39.1-87.2,87.2-87.2s87.2,39.1,87.2,87.2S2062.3,2308.1,2014.2,2308.1z
		 M2014.2,2138.7c-45.3,0-82.2,36.9-82.2,82.2s36.9,82.2,82.2,82.2s82.2-36.9,82.2-82.2S2059.5,2138.7,2014.2,2138.7z"/>
</g>
<g>
	<circle fill="#88EADB" cx="2073.1" cy="2111" r="84.7"/>
	<path d="M2073.1,2198.2c-48.1,0-87.2-39.1-87.2-87.2s39.1-87.2,87.2-87.2s87.2,39.1,87.2,87.2S2121.2,2198.2,2073.1,2198.2z
		 M2073.1,2028.8c-45.3,0-82.2,36.9-82.2,82.2s36.9,82.2,82.2,82.2s82.2-36.9,82.2-82.2S2118.4,2028.8,2073.1,2028.8z"/>
</g>
<g>
	<circle fill="#85ACDD" cx="2157.5" cy="2210.6" r="84.7"/>
	<path d="M2157.5,2297.8c-48.1,0-87.2-39.1-87.2-87.2s39.1-87.2,87.2-87.2s87.2,39.1,87.2,87.2S2205.6,2297.8,2157.5,2297.8z
		 M2157.5,2128.3c-45.3,0-82.2,36.9-82.2,82.2s36.9,82.2,82.2,82.2s82.2-36.9,82.2-82.2S2202.8,2128.3,2157.5,2128.3z"/>
</g>
<g>
	<circle fill="#85ACDD" cx="2421.8" cy="2236.8" r="84.7"/>
	<path d="M2421.8,2324.1c-48.1,0-87.2-39.1-87.2-87.2s39.1-87.2,87.2-87.2s87.2,39.1,87.2,87.2S2469.9,2324.1,2421.8,2324.1z
		 M2421.8,2154.6c-45.3,0-82.2,36.9-82.2,82.2s36.9,82.2,82.2,82.2s82.2-36.9,82.2-82.2S2467.2,2154.6,2421.8,2154.6z"/>
</g>
<g>
	<circle fill="#85ACDD" cx="2246.7" cy="2317.3" r="84.7"/>
	<path d="M2246.7,2404.5c-48.1,0-87.2-39.1-87.2-87.2c0-48.1,39.1-87.2,87.2-87.2s87.2,39.1,87.2,87.2
		C2333.9,2365.3,2294.8,2404.5,2246.7,2404.5z M2246.7,2235c-45.3,0-82.2,36.9-82.2,82.2s36.9,82.2,82.2,82.2s82.2-36.9,82.2-82.2
		S2292,2235,2246.7,2235z"/>
</g>
<g>
	<circle fill="#85ACDD" cx="2098.6" cy="2321.2" r="84.7"/>
	<path d="M2098.6,2408.5c-48.1,0-87.2-39.1-87.2-87.2c0-48.1,39.1-87.2,87.2-87.2s87.2,39.1,87.2,87.2
		C2185.8,2369.3,2146.7,2408.5,2098.6,2408.5z M2098.6,2239c-45.3,0-82.2,36.9-82.2,82.2c0,45.3,36.9,82.2,82.2,82.2
		s82.2-36.9,82.2-82.2C2180.8,2275.9,2143.9,2239,2098.6,2239z"/>
</g>
<g>
	<circle fill="#85ACDD" cx="2566" cy="2195.4" r="84.7"/>
	<path d="M2566,2282.6c-48.1,0-87.2-39.1-87.2-87.2s39.1-87.2,87.2-87.2s87.2,39.1,87.2,87.2S2614.1,2282.6,2566,2282.6z
		 M2566,2113.2c-45.3,0-82.2,36.9-82.2,82.2s36.9,82.2,82.2,82.2s82.2-36.9,82.2-82.2S2611.3,2113.2,2566,2113.2z"/>
</g>
<g>
	<circle fill="#85ACDD" cx="2749.1" cy="2364.2" r="84.7"/>
	<path d="M2749.1,2451.4c-48.1,0-87.2-39.1-87.2-87.2c0-48.1,39.1-87.2,87.2-87.2s87.2,39.1,87.2,87.2
		C2836.3,2412.3,2797.2,2451.4,2749.1,2451.4z M2749.1,2282c-45.3,0-82.2,36.9-82.2,82.2c0,45.3,36.9,82.2,82.2,82.2
		s82.2-36.9,82.2-82.2C2831.3,2318.9,2794.4,2282,2749.1,2282z"/>
</g>
<g>
	<circle fill="#88EADB" cx="3229.2" cy="2136.5" r="84.7"/>
	<path d="M3229.2,2223.7c-48.1,0-87.2-39.1-87.2-87.2s39.1-87.2,87.2-87.2s87.2,39.1,87.2,87.2S3277.3,2223.7,3229.2,2223.7z
		 M3229.2,2054.3c-45.3,0-82.2,36.9-82.2,82.2s36.9,82.2,82.2,82.2s82.2-36.9,82.2-82.2S3274.6,2054.3,3229.2,2054.3z"/>
</g>
<g>
	<circle fill="#85ACDD" cx="3398.8" cy="1760.7" r="84.7"/>
	<path d="M3398.8,1847.9c-48.1,0-87.2-39.1-87.2-87.2s39.1-87.2,87.2-87.2s87.2,39.1,87.2,87.2S3446.9,1847.9,3398.8,1847.9z
		 M3398.8,1678.5c-45.3,0-82.2,36.9-82.2,82.2s36.9,82.2,82.2,82.2s82.2-36.9,82.2-82.2S3444.1,1678.5,3398.8,1678.5z"/>
</g>
<g>
	<circle fill="#88EADB" cx="3295.3" cy="1518.6" r="84.7"/>
	<path d="M3295.3,1605.9c-48.1,0-87.2-39.1-87.2-87.2s39.1-87.2,87.2-87.2s87.2,39.1,87.2,87.2S3343.4,1605.9,3295.3,1605.9z
		 M3295.3,1436.4c-45.3,0-82.2,36.9-82.2,82.2s36.9,82.2,82.2,82.2s82.2-36.9,82.2-82.2S3340.6,1436.4,3295.3,1436.4z"/>
</g>
<g>
	<circle fill="#88EADB" cx="3357.4" cy="981.2" r="84.7"/>
	<path d="M3357.4,1068.4c-48.1,0-87.2-39.1-87.2-87.2s39.1-87.2,87.2-87.2s87.2,39.1,87.2,87.2S3405.5,1068.4,3357.4,1068.4z
		 M3357.4,899c-45.3,0-82.2,36.9-82.2,82.2s36.9,82.2,82.2,82.2s82.2-36.9,82.2-82.2S3402.7,899,3357.4,899z"/>
</g>
<g>
	<circle fill="#88EADB" cx="3568.4" cy="747.9" r="84.7"/>
	<path d="M3568.4,835.1c-48.1,0-87.2-39.1-87.2-87.2s39.1-87.2,87.2-87.2s87.2,39.1,87.2,87.2S3616.5,835.1,3568.4,835.1z
		 M3568.4,665.7c-45.3,0-82.2,36.9-82.2,82.2s36.9,82.2,82.2,82.2s82.2-36.9,82.2-82.2S3613.7,665.7,3568.4,665.7z"/>
</g>
<g>
	<circle fill="#85ACDD" cx="3483.2" cy="1017" r="84.7"/>
	<path d="M3483.2,1104.2c-48.1,0-87.2-39.1-87.2-87.2s39.1-87.2,87.2-87.2s87.2,39.1,87.2,87.2S3531.3,1104.2,3483.2,1104.2z
		 M3483.2,934.8c-45.3,0-82.2,36.9-82.2,82.2s36.9,82.2,82.2,82.2s82.2-36.9,82.2-82.2S3528.5,934.8,3483.2,934.8z"/>
</g>
<g>
	<circle fill="#85ACDD" cx="3519.8" cy="1118.9" r="84.7"/>
	<path d="M3519.8,1206.2c-48.1,0-87.2-39.1-87.2-87.2s39.1-87.2,87.2-87.2s87.2,39.1,87.2,87.2S3567.9,1206.2,3519.8,1206.2z
		 M3519.8,1036.7c-45.3,0-82.2,36.9-82.2,82.2s36.9,82.2,82.2,82.2s82.2-36.9,82.2-82.2S3565.2,1036.7,3519.8,1036.7z"/>
</g>
<g>
	<circle fill="#85ACDD" cx="3399.6" cy="1118.9" r="84.7"/>
	<path d="M3399.6,1206.2c-48.1,0-87.2-39.1-87.2-87.2s39.1-87.2,87.2-87.2s87.2,39.1,87.2,87.2S3447.7,1206.2,3399.6,1206.2z
		 M3399.6,1036.7c-45.3,0-82.2,36.9-82.2,82.2s36.9,82.2,82.2,82.2s82.2-36.9,82.2-82.2S3444.9,1036.7,3399.6,1036.7z"/>
</g>
<g>
	<circle fill="#85ACDD" cx="3309.6" cy="1101.4" r="84.7"/>
	<path d="M3309.6,1188.6c-48.1,0-87.2-39.1-87.2-87.2s39.1-87.2,87.2-87.2s87.2,39.1,87.2,87.2S3357.7,1188.6,3309.6,1188.6z
		 M3309.6,1019.2c-45.3,0-82.2,36.9-82.2,82.2s36.9,82.2,82.2,82.2s82.2-36.9,82.2-82.2S3355,1019.2,3309.6,1019.2z"/>
</g>
<g>
	<circle fill="#85ACDD" cx="3298.5" cy="878.5" r="84.7"/>
	<path d="M3298.5,965.7c-48.1,0-87.2-39.1-87.2-87.2s39.1-87.2,87.2-87.2s87.2,39.1,87.2,87.2S3346.6,965.7,3298.5,965.7z
		 M3298.5,796.3c-45.3,0-82.2,36.9-82.2,82.2s36.9,82.2,82.2,82.2s82.2-36.9,82.2-82.2S3343.8,796.3,3298.5,796.3z"/>
</g>
<g>
	<circle fill="#85ACDD" cx="3403.6" cy="864.2" r="84.7"/>
	<path d="M3403.6,951.4c-48.1,0-87.2-39.1-87.2-87.2s39.1-87.2,87.2-87.2s87.2,39.1,87.2,87.2S3451.7,951.4,3403.6,951.4z
		 M3403.6,781.9c-45.3,0-82.2,36.9-82.2,82.2s36.9,82.2,82.2,82.2s82.2-36.9,82.2-82.2S3448.9,781.9,3403.6,781.9z"/>
</g>
<g>
	<circle fill="#85ACDD" cx="3484" cy="785.3" r="84.7"/>
	<path d="M3484,872.5c-48.1,0-87.2-39.1-87.2-87.2s39.1-87.2,87.2-87.2s87.2,39.1,87.2,87.2S3532.1,872.5,3484,872.5z M3484,703.1
		c-45.3,0-82.2,36.9-82.2,82.2s36.9,82.2,82.2,82.2s82.2-36.9,82.2-82.2S3529.3,703.1,3484,703.1z"/>
</g>
<g>
	<circle fill="#88EADB" cx="3483.2" cy="520.2" r="84.7"/>
	<path d="M3483.2,607.4c-48.1,0-87.2-39.1-87.2-87.2s39.1-87.2,87.2-87.2s87.2,39.1,87.2,87.2S3531.3,607.4,3483.2,607.4z
		 M3483.2,438c-45.3,0-82.2,36.9-82.2,82.2s36.9,82.2,82.2,82.2s82.2-36.9,82.2-82.2S3528.5,438,3483.2,438z"/>
</g>
<g>
	<circle fill="#88EADB" cx="3314.4" cy="297.2" r="84.7"/>
	<path d="M3314.4,384.5c-48.1,0-87.2-39.1-87.2-87.2s39.1-87.2,87.2-87.2s87.2,39.1,87.2,87.2S3362.5,384.5,3314.4,384.5z
		 M3314.4,215c-45.3,0-82.2,36.9-82.2,82.2s36.9,82.2,82.2,82.2s82.2-36.9,82.2-82.2S3359.7,215,3314.4,215z"/>
</g>
<g>
	<circle fill="#85ACDD" cx="3191.8" cy="218.4" r="84.7"/>
	<path d="M3191.8,305.6c-48.1,0-87.2-39.1-87.2-87.2s39.1-87.2,87.2-87.2s87.2,39.1,87.2,87.2S3239.9,305.6,3191.8,305.6z
		 M3191.8,136.2c-45.3,0-82.2,36.9-82.2,82.2s36.9,82.2,82.2,82.2s82.2-36.9,82.2-82.2S3237.1,136.2,3191.8,136.2z"/>
</g>
<g>
	<circle fill="#85ACDD" cx="3230" cy="327.5" r="84.7"/>
	<path d="M3230,414.7c-48.1,0-87.2-39.1-87.2-87.2s39.1-87.2,87.2-87.2s87.2,39.1,87.2,87.2S3278.1,414.7,3230,414.7z M3230,245.3
		c-45.3,0-82.2,36.9-82.2,82.2s36.9,82.2,82.2,82.2s82.2-36.9,82.2-82.2S3275.3,245.3,3230,245.3z"/>
</g>
<g>
	<circle fill="#88EADB" cx="3125.7" cy="359.3" r="84.7"/>
	<path d="M3125.7,446.6c-48.1,0-87.2-39.1-87.2-87.2s39.1-87.2,87.2-87.2s87.2,39.1,87.2,87.2S3173.8,446.6,3125.7,446.6z
		 M3125.7,277.1c-45.3,0-82.2,36.9-82.2,82.2s36.9,82.2,82.2,82.2s82.2-36.9,82.2-82.2S3171,277.1,3125.7,277.1z"/>
</g>
<g>
	<circle fill="#85ACDD" cx="2902" cy="419.1" r="84.7"/>
	<path d="M2902,506.3c-48.1,0-87.2-39.1-87.2-87.2c0-48.1,39.1-87.2,87.2-87.2s87.2,39.1,87.2,87.2
		C2989.2,467.2,2950.1,506.3,2902,506.3z M2902,336.8c-45.3,0-82.2,36.9-82.2,82.2s36.9,82.2,82.2,82.2s82.2-36.9,82.2-82.2
		S2947.3,336.8,2902,336.8z"/>
</g>
<g>
	<circle fill="#85ACDD" cx="2698.1" cy="354.6" r="84.7"/>
	<path d="M2698.1,441.8c-48.1,0-87.2-39.1-87.2-87.2s39.1-87.2,87.2-87.2s87.2,39.1,87.2,87.2S2746.2,441.8,2698.1,441.8z
		 M2698.1,272.4c-45.3,0-82.2,36.9-82.2,82.2s36.9,82.2,82.2,82.2s82.2-36.9,82.2-82.2S2743.5,272.4,2698.1,272.4z"/>
</g>
<g>
	<circle fill="#88EADB" cx="2550" cy="427.8" r="84.7"/>
	<path d="M2550,515c-48.1,0-87.2-39.1-87.2-87.2s39.1-87.2,87.2-87.2s87.2,39.1,87.2,87.2S2598.1,515,2550,515z M2550,345.6
		c-45.3,0-82.2,36.9-82.2,82.2s36.9,82.2,82.2,82.2s82.2-36.9,82.2-82.2S2595.4,345.6,2550,345.6z"/>
</g>
<g>
	<circle fill="#85ACDD" cx="2650.4" cy="439" r="84.7"/>
	<path d="M2650.4,526.2c-48.1,0-87.2-39.1-87.2-87.2s39.1-87.2,87.2-87.2s87.2,39.1,87.2,87.2S2698.5,526.2,2650.4,526.2z
		 M2650.4,356.8c-45.3,0-82.2,36.9-82.2,82.2s36.9,82.2,82.2,82.2s82.2-36.9,82.2-82.2S2695.7,356.8,2650.4,356.8z"/>
</g>
<g>
	<circle fill="#85ACDD" cx="2782.5" cy="398.4" r="84.7"/>
	<path d="M2782.5,485.6c-48.1,0-87.2-39.1-87.2-87.2s39.1-87.2,87.2-87.2s87.2,39.1,87.2,87.2S2830.6,485.6,2782.5,485.6z
		 M2782.5,316.1c-45.3,0-82.2,36.9-82.2,82.2s36.9,82.2,82.2,82.2s82.2-36.9,82.2-82.2S2827.9,316.1,2782.5,316.1z"/>
</g>
<g>
	<circle fill="#85ACDD" cx="2058" cy="270.2" r="84.7"/>
	<path d="M2058,357.4c-48.1,0-87.2-39.1-87.2-87.2c0-48.1,39.1-87.2,87.2-87.2s87.2,39.1,87.2,87.2
		C2145.2,318.3,2106.1,357.4,2058,357.4z M2058,188c-45.3,0-82.2,36.9-82.2,82.2s36.9,82.2,82.2,82.2s82.2-36.9,82.2-82.2
		S2103.3,188,2058,188z"/>
</g>
<g>
	<circle fill="#85ACDD" cx="1933.8" cy="297.2" r="84.7"/>
	<path d="M1933.8,384.5c-48.1,0-87.2-39.1-87.2-87.2s39.1-87.2,87.2-87.2s87.2,39.1,87.2,87.2S1981.9,384.5,1933.8,384.5z
		 M1933.8,215c-45.3,0-82.2,36.9-82.2,82.2s36.9,82.2,82.2,82.2s82.2-36.9,82.2-82.2S1979.1,215,1933.8,215z"/>
</g>
<g>
	<circle fill="#85ACDD" cx="1823.9" cy="270.2" r="84.7"/>
	<path d="M1823.9,357.4c-48.1,0-87.2-39.1-87.2-87.2c0-48.1,39.1-87.2,87.2-87.2s87.2,39.1,87.2,87.2
		C1911.1,318.3,1872,357.4,1823.9,357.4z M1823.9,188c-45.3,0-82.2,36.9-82.2,82.2s36.9,82.2,82.2,82.2s82.2-36.9,82.2-82.2
		S1869.2,188,1823.9,188z"/>
</g>
<g>
	<circle fill="#85ACDD" cx="1631.2" cy="270.2" r="84.7"/>
	<path d="M1631.2,357.4c-48.1,0-87.2-39.1-87.2-87.2c0-48.1,39.1-87.2,87.2-87.2s87.2,39.1,87.2,87.2
		C1718.4,318.3,1679.3,357.4,1631.2,357.4z M1631.2,188c-45.3,0-82.2,36.9-82.2,82.2s36.9,82.2,82.2,82.2s82.2-36.9,82.2-82.2
		S1676.5,188,1631.2,188z"/>
</g>
<g>
	<circle fill="#88EADB" cx="2078.7" cy="381.6" r="84.7"/>
	<path d="M2078.7,468.9c-48.1,0-87.2-39.1-87.2-87.2s39.1-87.2,87.2-87.2s87.2,39.1,87.2,87.2S2126.8,468.9,2078.7,468.9z
		 M2078.7,299.4c-45.3,0-82.2,36.9-82.2,82.2s36.9,82.2,82.2,82.2s82.2-36.9,82.2-82.2S2124,299.4,2078.7,299.4z"/>
</g>
<g>
	<circle fill="#85ACDD" cx="2285.7" cy="420.7" r="84.7"/>
	<path d="M2285.7,507.9c-48.1,0-87.2-39.1-87.2-87.2s39.1-87.2,87.2-87.2s87.2,39.1,87.2,87.2S2333.8,507.9,2285.7,507.9z
		 M2285.7,338.4c-45.3,0-82.2,36.9-82.2,82.2s36.9,82.2,82.2,82.2s82.2-36.9,82.2-82.2S2331,338.4,2285.7,338.4z"/>
</g>
<g>
	<circle fill="#85ACDD" cx="2407.5" cy="286.1" r="84.7"/>
	<path d="M2407.5,373.3c-48.1,0-87.2-39.1-87.2-87.2s39.1-87.2,87.2-87.2s87.2,39.1,87.2,87.2S2455.6,373.3,2407.5,373.3z
		 M2407.5,203.9c-45.3,0-82.2,36.9-82.2,82.2s36.9,82.2,82.2,82.2s82.2-36.9,82.2-82.2S2452.9,203.9,2407.5,203.9z"/>
</g>
<g>
	<circle fill="#85ACDD" cx="1116" cy="2136.5" r="84.7"/>
	<path d="M1116,2223.7c-48.1,0-87.2-39.1-87.2-87.2s39.1-87.2,87.2-87.2s87.2,39.1,87.2,87.2S1164.1,2223.7,1116,2223.7z
		 M1116,2054.3c-45.3,0-82.2,36.9-82.2,82.2s36.9,82.2,82.2,82.2s82.2-36.9,82.2-82.2S1161.4,2054.3,1116,2054.3z"/>
</g>
<g>
	<circle fill="#85ACDD" cx="1345.4" cy="2083.2" r="84.7"/>
	<path d="M1345.4,2170.4c-48.1,0-87.2-39.1-87.2-87.2s39.1-87.2,87.2-87.2s87.2,39.1,87.2,87.2S1393.5,2170.4,1345.4,2170.4z
		 M1345.4,2000.9c-45.3,0-82.2,36.9-82.2,82.2s36.9,82.2,82.2,82.2s82.2-36.9,82.2-82.2S1390.7,2000.9,1345.4,2000.9z"/>
</g>
<g>
	<circle fill="#85ACDD" cx="1295.2" cy="2195.4" r="84.7"/>
	<path d="M1295.2,2282.6c-48.1,0-87.2-39.1-87.2-87.2s39.1-87.2,87.2-87.2s87.2,39.1,87.2,87.2S1343.3,2282.6,1295.2,2282.6z
		 M1295.2,2113.2c-45.3,0-82.2,36.9-82.2,82.2s36.9,82.2,82.2,82.2s82.2-36.9,82.2-82.2S1340.5,2113.2,1295.2,2113.2z"/>
</g>
<g>
	<circle fill="#88EADB" cx="1210.8" cy="2083.2" r="84.7"/>
	<path d="M1210.8,2170.4c-48.1,0-87.2-39.1-87.2-87.2s39.1-87.2,87.2-87.2s87.2,39.1,87.2,87.2S1258.9,2170.4,1210.8,2170.4z
		 M1210.8,2000.9c-45.3,0-82.2,36.9-82.2,82.2s36.9,82.2,82.2,82.2s82.2-36.9,82.2-82.2S1256.1,2000.9,1210.8,2000.9z"/>
</g>
<g>
	<circle fill="#85ACDD" cx="1160.6" cy="2252.8" r="84.7"/>
	<path d="M1160.6,2340c-48.1,0-87.2-39.1-87.2-87.2s39.1-87.2,87.2-87.2s87.2,39.1,87.2,87.2S1208.7,2340,1160.6,2340z
		 M1160.6,2170.5c-45.3,0-82.2,36.9-82.2,82.2s36.9,82.2,82.2,82.2s82.2-36.9,82.2-82.2S1206,2170.5,1160.6,2170.5z"/>
</g>
<g>
	<circle fill="#85ACDD" cx="807.9" cy="2111" r="84.7"/>
	<path d="M807.9,2198.2c-48.1,0-87.2-39.1-87.2-87.2s39.1-87.2,87.2-87.2s87.2,39.1,87.2,87.2S856,2198.2,807.9,2198.2z
		 M807.9,2028.8c-45.3,0-82.2,36.9-82.2,82.2s36.9,82.2,82.2,82.2s82.2-36.9,82.2-82.2S853.2,2028.8,807.9,2028.8z"/>
</g>
<g>
	<circle fill="#85ACDD" cx="305.5" cy="2011.5" r="84.7"/>
	<path d="M305.5,2098.7c-48.1,0-87.2-39.1-87.2-87.2s39.1-87.2,87.2-87.2s87.2,39.1,87.2,87.2S353.6,2098.7,305.5,2098.7z
		 M305.5,1929.3c-45.3,0-82.2,36.9-82.2,82.2s36.9,82.2,82.2,82.2s82.2-36.9,82.2-82.2S350.8,1929.3,305.5,1929.3z"/>
</g>
<g>
	<circle fill="#88EADB" cx="214.7" cy="1929.5" r="84.7"/>
	<path d="M214.7,2016.7c-48.1,0-87.2-39.1-87.2-87.2s39.1-87.2,87.2-87.2s87.2,39.1,87.2,87.2S262.8,2016.7,214.7,2016.7z
		 M214.7,1847.3c-45.3,0-82.2,36.9-82.2,82.2s36.9,82.2,82.2,82.2s82.2-36.9,82.2-82.2S260.1,1847.3,214.7,1847.3z"/>
</g>
<g>
	<circle fill="#88EADB" cx="578.6" cy="2322" r="84.7"/>
	<path d="M578.6,2409.2c-48.1,0-87.2-39.1-87.2-87.2c0-48.1,39.1-87.2,87.2-87.2s87.2,39.1,87.2,87.2
		C665.8,2370.1,626.7,2409.2,578.6,2409.2z M578.6,2239.8c-45.3,0-82.2,36.9-82.2,82.2s36.9,82.2,82.2,82.2s82.2-36.9,82.2-82.2
		S623.9,2239.8,578.6,2239.8z"/>
</g>
<g>
	<circle fill="#88EADB" cx="747.4" cy="2220.9" r="84.7"/>
	<path d="M747.4,2308.1c-48.1,0-87.2-39.1-87.2-87.2s39.1-87.2,87.2-87.2s87.2,39.1,87.2,87.2S795.5,2308.1,747.4,2308.1z
		 M747.4,2138.7c-45.3,0-82.2,36.9-82.2,82.2s36.9,82.2,82.2,82.2s82.2-36.9,82.2-82.2S792.7,2138.7,747.4,2138.7z"/>
</g>
<g>
	<circle fill="#85ACDD" cx="862.1" cy="2220.9" r="84.7"/>
	<path d="M862.1,2308.1c-48.1,0-87.2-39.1-87.2-87.2s39.1-87.2,87.2-87.2s87.2,39.1,87.2,87.2S910.1,2308.1,862.1,2308.1z
		 M862.1,2138.7c-45.3,0-82.2,36.9-82.2,82.2s36.9,82.2,82.2,82.2s82.2-36.9,82.2-82.2S907.4,2138.7,862.1,2138.7z"/>
</g>
<g>
	<circle fill="#85ACDD" cx="698" cy="2322" r="84.7"/>
	<path d="M698,2409.2c-48.1,0-87.2-39.1-87.2-87.2c0-48.1,39.1-87.2,87.2-87.2s87.2,39.1,87.2,87.2
		C785.3,2370.1,746.1,2409.2,698,2409.2z M698,2239.8c-45.3,0-82.2,36.9-82.2,82.2s36.9,82.2,82.2,82.2s82.2-36.9,82.2-82.2
		S743.4,2239.8,698,2239.8z"/>
</g>
<g>
	<circle fill="#85ACDD" cx="831.8" cy="2344.3" r="84.7"/>
	<path d="M831.8,2431.5c-48.1,0-87.2-39.1-87.2-87.2s39.1-87.2,87.2-87.2s87.2,39.1,87.2,87.2S879.9,2431.5,831.8,2431.5z
		 M831.8,2262.1c-45.3,0-82.2,36.9-82.2,82.2s36.9,82.2,82.2,82.2s82.2-36.9,82.2-82.2S877.1,2262.1,831.8,2262.1z"/>
</g>
<g>
	<circle fill="#85ACDD" cx="991" cy="2126.2" r="84.7"/>
	<path d="M991,2213.4c-48.1,0-87.2-39.1-87.2-87.2s39.1-87.2,87.2-87.2s87.2,39.1,87.2,87.2S1039.1,2213.4,991,2213.4z M991,2043.9
		c-45.3,0-82.2,36.9-82.2,82.2s36.9,82.2,82.2,82.2s82.2-36.9,82.2-82.2S1036.4,2043.9,991,2043.9z"/>
</g>
<g>
	<circle fill="#88EADB" cx="921.8" cy="2111" r="84.7"/>
	<path d="M921.8,2198.2c-48.1,0-87.2-39.1-87.2-87.2s39.1-87.2,87.2-87.2s87.2,39.1,87.2,87.2S969.9,2198.2,921.8,2198.2z
		 M921.8,2028.8c-45.3,0-82.2,36.9-82.2,82.2s36.9,82.2,82.2,82.2s82.2-36.9,82.2-82.2S967.1,2028.8,921.8,2028.8z"/>
</g>
<g>
	<circle fill="#85ACDD" cx="621.6" cy="2210.6" r="84.7"/>
	<path d="M621.6,2297.8c-48.1,0-87.2-39.1-87.2-87.2s39.1-87.2,87.2-87.2s87.2,39.1,87.2,87.2S669.7,2297.8,621.6,2297.8z
		 M621.6,2128.3c-45.3,0-82.2,36.9-82.2,82.2s36.9,82.2,82.2,82.2s82.2-36.9,82.2-82.2S666.9,2128.3,621.6,2128.3z"/>
</g>
<g>
	<circle fill="#85ACDD" cx="526.1" cy="2220.9" r="84.7"/>
	<path d="M526.1,2308.1c-48.1,0-87.2-39.1-87.2-87.2s39.1-87.2,87.2-87.2s87.2,39.1,87.2,87.2S574.1,2308.1,526.1,2308.1z
		 M526.1,2138.7c-45.3,0-82.2,36.9-82.2,82.2s36.9,82.2,82.2,82.2s82.2-36.9,82.2-82.2S571.4,2138.7,526.1,2138.7z"/>
</g>
<g>
	<circle fill="#85ACDD" cx="2481.6" cy="354.6" r="84.7"/>
	<path d="M2481.6,441.8c-48.1,0-87.2-39.1-87.2-87.2s39.1-87.2,87.2-87.2s87.2,39.1,87.2,87.2S2529.7,441.8,2481.6,441.8z
		 M2481.6,272.4c-45.3,0-82.2,36.9-82.2,82.2s36.9,82.2,82.2,82.2s82.2-36.9,82.2-82.2S2526.9,272.4,2481.6,272.4z"/>
</g>
<g>
	<circle fill="#85ACDD" cx="2414.7" cy="396.8" r="84.7"/>
	<path d="M2414.7,484c-48.1,0-87.2-39.1-87.2-87.2s39.1-87.2,87.2-87.2s87.2,39.1,87.2,87.2S2462.8,484,2414.7,484z M2414.7,314.6
		c-45.3,0-82.2,36.9-82.2,82.2s36.9,82.2,82.2,82.2s82.2-36.9,82.2-82.2S2460,314.6,2414.7,314.6z"/>
</g>
<g>
	<circle fill="#88EADB" cx="264.9" cy="1013.8" r="84.7"/>
	<path d="M264.9,1101.1c-48.1,0-87.2-39.1-87.2-87.2s39.1-87.2,87.2-87.2s87.2,39.1,87.2,87.2S313,1101.1,264.9,1101.1z
		 M264.9,931.6c-45.3,0-82.2,36.9-82.2,82.2s36.9,82.2,82.2,82.2s82.2-36.9,82.2-82.2S310.2,931.6,264.9,931.6z"/>
</g>
<g>
	<circle fill="#85ACDD" cx="1631.2" cy="377.7" r="84.7"/>
	<path d="M1631.2,464.9c-48.1,0-87.2-39.1-87.2-87.2s39.1-87.2,87.2-87.2s87.2,39.1,87.2,87.2S1679.3,464.9,1631.2,464.9z
		 M1631.2,295.4c-45.3,0-82.2,36.9-82.2,82.2s36.9,82.2,82.2,82.2s82.2-36.9,82.2-82.2S1676.5,295.4,1631.2,295.4z"/>
</g>
<g>
	<circle fill="#85ACDD" cx="1479.9" cy="381.6" r="84.7"/>
	<path d="M1479.9,468.9c-48.1,0-87.2-39.1-87.2-87.2s39.1-87.2,87.2-87.2s87.2,39.1,87.2,87.2S1528,468.9,1479.9,468.9z
		 M1479.9,299.4c-45.3,0-82.2,36.9-82.2,82.2s36.9,82.2,82.2,82.2s82.2-36.9,82.2-82.2S1525.3,299.4,1479.9,299.4z"/>
</g>
<g>
	<circle fill="#85ACDD" cx="1395.5" cy="270.2" r="84.7"/>
	<path d="M1395.5,357.4c-48.1,0-87.2-39.1-87.2-87.2c0-48.1,39.1-87.2,87.2-87.2s87.2,39.1,87.2,87.2
		C1482.7,318.3,1443.6,357.4,1395.5,357.4z M1395.5,188c-45.3,0-82.2,36.9-82.2,82.2s36.9,82.2,82.2,82.2s82.2-36.9,82.2-82.2
		S1440.9,188,1395.5,188z"/>
</g>
<g>
	<circle fill="#85ACDD" cx="790.4" cy="270.2" r="84.7"/>
	<path d="M790.4,357.4c-48.1,0-87.2-39.1-87.2-87.2c0-48.1,39.1-87.2,87.2-87.2s87.2,39.1,87.2,87.2
		C877.6,318.3,838.5,357.4,790.4,357.4z M790.4,188c-45.3,0-82.2,36.9-82.2,82.2s36.9,82.2,82.2,82.2s82.2-36.9,82.2-82.2
		S835.7,188,790.4,188z"/>
</g>
<g>
	<circle fill="#85ACDD" cx="383.5" cy="620.5" r="84.7"/>
	<path d="M383.5,707.7c-48.1,0-87.2-39.1-87.2-87.2s39.1-87.2,87.2-87.2s87.2,39.1,87.2,87.2S431.6,707.7,383.5,707.7z M383.5,538.3
		c-45.3,0-82.2,36.9-82.2,82.2s36.9,82.2,82.2,82.2s82.2-36.9,82.2-82.2S428.9,538.3,383.5,538.3z"/>
</g>
<g>
	<circle fill="#85ACDD" cx="180.5" cy="604.6" r="84.7"/>
	<path d="M180.5,691.8c-48.1,0-87.2-39.1-87.2-87.2s39.1-87.2,87.2-87.2s87.2,39.1,87.2,87.2S228.6,691.8,180.5,691.8z M180.5,522.4
		c-45.3,0-82.2,36.9-82.2,82.2s36.9,82.2,82.2,82.2s82.2-36.9,82.2-82.2S225.8,522.4,180.5,522.4z"/>
</g>
<g>
	<circle fill="#85ACDD" cx="244.2" cy="794.1" r="84.7"/>
	<path d="M244.2,881.3c-48.1,0-87.2-39.1-87.2-87.2s39.1-87.2,87.2-87.2s87.2,39.1,87.2,87.2S292.3,881.3,244.2,881.3z M244.2,711.9
		c-45.3,0-82.2,36.9-82.2,82.2s36.9,82.2,82.2,82.2s82.2-36.9,82.2-82.2S289.5,711.9,244.2,711.9z"/>
</g>
<g>
	<circle fill="#85ACDD" cx="264.9" cy="663.5" r="84.7"/>
	<path d="M264.9,750.7c-48.1,0-87.2-39.1-87.2-87.2s39.1-87.2,87.2-87.2s87.2,39.1,87.2,87.2S313,750.7,264.9,750.7z M264.9,581.3
		c-45.3,0-82.2,36.9-82.2,82.2s36.9,82.2,82.2,82.2s82.2-36.9,82.2-82.2S310.2,581.3,264.9,581.3z"/>
</g>
<g>
	<circle fill="#85ACDD" cx="1226.7" cy="2174.7" r="84.7"/>
	<path d="M1226.7,2261.9c-48.1,0-87.2-39.1-87.2-87.2s39.1-87.2,87.2-87.2s87.2,39.1,87.2,87.2S1274.8,2261.9,1226.7,2261.9z
		 M1226.7,2092.5c-45.3,0-82.2,36.9-82.2,82.2s36.9,82.2,82.2,82.2s82.2-36.9,82.2-82.2S1272.1,2092.5,1226.7,2092.5z"/>
</g>
<g>
	<g>
		<polygon fill="#FFEB97" points="460.6,65.7 482,153 566,184.9 489.6,232.2 485.2,321.9 416.6,263.8 329.9,287.4 364,204.3 
			314.8,129.1 404.4,135.8 		"/>
		<path d="M487.4,327.1L416,266.6l-90.3,24.5l35.5-86.6l-51.3-78.3l93.3,6.9l58.6-72.9l22.2,90.9l87.5,33.2L492,233.6L487.4,327.1z
			 M417.2,261.1l65.7,55.6l4.2-86l73.2-45.3l-80.5-30.6l-20.4-83.6l-53.9,67.1l-85.8-6.4l47.1,72l-32.6,79.7L417.2,261.1z"/>
	</g>
	<g>
		<polygon fill="#848188" points="453.2,99.3 468.9,163.5 530.7,186.9 474.5,221.7 471.3,287.7 420.8,245 357,262.3 382.1,201.2 
			345.9,145.9 411.8,150.8 		"/>
		<path d="M473.5,292.9l-53.3-45.1l-67.4,18.3l26.5-64.6L341,143l69.6,5.2l43.8-54.4l16.6,67.8l65.3,24.8l-59.4,36.7L473.5,292.9z
			 M421.4,242.2l47.6,40.3l3-62.3l53-32.8l-58.3-22.1L452,104.8l-39.1,48.6l-62.2-4.6l34.1,52.2l-23.6,57.7L421.4,242.2z"/>
	</g>
	<g>
		<polygon fill="#F9A0BB" points="446.8,128.2 457.7,172.7 500.5,189 461.5,213.1 459.3,258.9 424.3,229.2 380.1,241.3 397.5,198.8 
			372.4,160.5 418.1,163.9 		"/>
		<path d="M461.6,264l-37.8-32l-47.9,13l18.8-45.9l-27.2-41.5l49.5,3.7l31.1-38.6l11.8,48.2l46.4,17.6L464,214.5L461.6,264z
			 M424.9,226.5l32.1,27.2l2.1-42l35.8-22.1l-39.3-14.9l-10-40.9l-26.4,32.8l-42-3.1l23,35.2l-15.9,38.9L424.9,226.5z"/>
	</g>
</g>
<g>
	<g>
		<polygon fill="#FFEB97" points="1013.5,276.3 1060.1,353.1 1149.8,358.2 1091.1,426.3 1114,513.2 1031.1,478.5 955.5,527 
			963,437.5 893.4,380.6 980.9,360 		"/>
		<path d="M952.6,531.9l7.7-93.3l-72.4-59.3l91.1-21.5l34-87.2l48.6,80l93.4,5.4l-61.1,70.9l23.8,90.5l-86.3-36.2L952.6,531.9z
			 M898.9,381.9l66.6,54.5l-7.1,85.8l72.4-46.5l79.4,33.3l-21.9-83.3l56.2-65.2l-85.9-4.9l-44.7-73.6l-31.2,80.2L898.9,381.9z"/>
	</g>
	<g>
		<polygon fill="#848188" points="1016.5,310.5 1050.7,367 1116.7,370.8 1073.6,420.9 1090.4,484.8 1029.4,459.2 973.8,494.9 
			979.3,429.1 928.1,387.3 992.5,372.1 		"/>
		<path d="M970.9,499.8l5.8-69.6L922.6,386l68-16l25.3-65.1l36.2,59.7l69.7,4l-45.6,52.9l17.7,67.5l-64.4-27L970.9,499.8z
			 M933.7,388.5l48.2,39.5l-5.2,62.1l52.4-33.7l57.5,24.1l-15.8-60.3l40.7-47.2l-62.2-3.6l-32.3-53.3l-22.6,58.1L933.7,388.5z"/>
	</g>
	<g>
		<polygon fill="#F9A0BB" points="1019,340 1042.8,379.2 1088.6,381.8 1058.7,416.5 1070.3,460.9 1028,443.1 989.5,467.9 
			993.3,422.2 957.8,393.2 1002.4,382.7 		"/>
		<path d="M986.6,472.8l4.1-49.4l-38.4-31.4l48.3-11.4l18-46.2l25.7,42.4l49.5,2.8l-32.4,37.6l12.6,48l-45.7-19.2L986.6,472.8z
			 M963.3,394.5l32.6,26.6l-3.5,41.9l35.4-22.7l38.8,16.3l-10.7-40.7l27.5-31.9l-42-2.4l-21.8-36l-15.3,39.2L963.3,394.5z"/>
	</g>
</g>
<g>
	<g>
		<polygon fill="#FFEB97" points="2129.3,5.6 2177.9,81.2 2267.7,84 2210.8,153.6 2235.9,239.8 2152.2,207.3 2077.9,257.7 
			2083,168.1 2012,113 2098.9,90.1 		"/>
		<path d="M2075.1,262.7l5.3-93.4l-74-57.4l90.5-23.8L2128.7,0l50.6,78.7l93.5,2.9l-59.2,72.5l26.1,89.9l-87.2-33.9L2075.1,262.7z
			 M2017.5,114.1l68,52.8l-4.9,85.9l71.2-48.4l80.2,31.2l-24-82.7l54.5-66.7l-86-2.7L2130,11.2l-29.2,81L2017.5,114.1z"/>
	</g>
	<g>
		<polygon fill="#848188" points="2133.2,39.8 2168.9,95.3 2235,97.4 2193.2,148.6 2211.6,212 2150,188.1 2095.3,225.2 
			2099.1,159.2 2046.9,118.7 2110.8,101.9 		"/>
		<path d="M2092.6,230.1l4-69.7l-55.2-42.8l67.5-17.8l23.7-65.7l37.8,58.7l69.8,2.2l-44.2,54.1l19.5,67.1l-65.1-25.3L2092.6,230.1z
			 M2052.4,119.9l49.3,38.2l-3.6,62.2l51.6-35l58.1,22.6l-17.4-59.9l39.5-48.3l-62.3-2l-33.7-52.4l-21.1,58.6L2052.4,119.9z"/>
	</g>
	<g>
		<polygon fill="#F9A0BB" points="2136.5,69.1 2161.3,107.7 2207.1,109.1 2178.1,144.6 2190.9,188.6 2148.2,172 2110.3,197.8 
			2112.9,152 2076.7,123.9 2121,112.3 		"/>
		<path d="M2107.5,202.7l2.8-49.5l-39.2-30.4l48-12.6l16.8-46.7l26.8,41.7l49.6,1.6l-31.4,38.4l13.8,47.6l-46.2-18L2107.5,202.7z
			 M2082.2,125.1l33.3,25.8l-2.4,42l34.8-23.7l39.2,15.3l-11.7-40.4l26.6-32.6l-42.1-1.3l-22.8-35.4l-14.3,39.6L2082.2,125.1z"/>
	</g>
</g>
<g>
	<g>
		<polygon fill="#FFEB97" points="1768.2,234.2 1822.9,305.4 1912.7,300.8 1861.8,374.8 1894,458.7 1807.8,433.2 1738,489.7 
			1735.6,399.9 1660.3,351 1744.9,321 		"/>
		<path d="M1735.6,494.9l-2.5-93.6l-78.5-51l88.2-31.3l24.2-90.4l57,74.2l93.5-4.9l-53,77.2l33.5,87.4l-89.7-26.5L1735.6,494.9z
			 M1665.9,351.7l72.2,46.9l2.3,86.1l66.9-54.2l82.6,24.4l-30.8-80.4l48.7-71l-86,4.5l-52.4-68.3l-22.3,83.2L1665.9,351.7z"/>
	</g>
	<g>
		<polygon fill="#848188" points="1774.9,267.9 1815.2,320.3 1881.2,316.8 1843.8,371.3 1867.4,433 1804.1,414.3 1752.7,455.9 
			1750.9,389.8 1695.5,353.8 1757.8,331.7 		"/>
		<path d="M1750.3,461l-1.9-69.8l-58.6-38l65.8-23.3l18.1-67.5l42.5,55.4l69.7-3.6l-39.5,57.6l25,65.2l-67-19.8L1750.3,461z
			 M1701.1,354.5l52.3,34l1.7,62.3l48.4-39.2l59.8,17.7L1841,371l35.3-51.4l-62.2,3.3l-38-49.4l-16.1,60.2L1701.1,354.5z"/>
	</g>
	<g>
		<polygon fill="#F9A0BB" points="1780.7,296.9 1808.6,333.2 1854.4,330.9 1828.4,368.6 1844.9,411.4 1800.9,398.4 1765.3,427.3 
			1764.1,381.5 1725.6,356.5 1768.8,341.2 		"/>
		<path d="M1762.9,432.4l-1.3-49.6l-41.6-27l46.7-16.6l12.8-47.9l30.2,39.3l49.5-2.6l-28.1,40.9l17.8,46.3l-47.6-14.1L1762.9,432.4z
			 M1731.2,357.1l35.3,22.9l1.1,42.1l32.7-26.5l40.4,11.9l-15.1-39.3l23.8-34.7l-42,2.2l-25.6-33.4l-10.9,40.6L1731.2,357.1z"/>
	</g>
</g>
<g>
	<g>
		<polygon fill="#FFEB97" points="2561.9,136.4 2593.7,220.4 2681,241.9 2610.9,298.1 2617.5,387.7 2542.3,338.4 2459.2,372.3 
			2482.8,285.7 2424.8,217 2514.6,212.8 		"/>
		<path d="M2620.3,392.5l-78.3-51.3l-86.7,35.4l24.6-90.3l-60.4-71.5l93.5-4.5l49.3-79.5l33.1,87.5l90.9,22.3l-73,58.6L2620.3,392.5
			z M2542.6,335.6l72,47.2l-6.3-85.9l67.2-53.9l-83.6-20.5l-30.5-80.5l-45.4,73.2l-86,4.1l55.6,65.8l-22.7,83.1L2542.6,335.6z"/>
	</g>
	<g>
		<polygon fill="#848188" points="2558.6,170.6 2582,232.4 2646.2,248.2 2594.6,289.5 2599.5,355.4 2544.2,319.2 2483,344.1 
			2500.4,280.4 2457.8,229.9 2523.8,226.8 		"/>
		<path d="M2602.3,360.3l-58.4-38.3l-64.7,26.4l18.4-67.4l-45.1-53.3l69.8-3.3l36.8-59.4l24.7,65.3l67.8,16.7l-54.5,43.7
			L2602.3,360.3z M2544.5,316.4l52.1,34.2l-4.6-62.2l48.6-39l-60.5-14.9l-22.1-58.3l-32.8,53l-62.3,3l40.2,47.6l-16.4,60.1
			L2544.5,316.4z"/>
	</g>
	<g>
		<polygon fill="#F9A0BB" points="2555.7,200 2572,242.9 2616.5,253.8 2580.7,282.5 2584.1,328.2 2545.8,303.1 2503.3,320.4 
			2515.4,276.2 2485.8,241.2 2531.6,239 		"/>
		<path d="M2586.9,333.1l-41.5-27.2l-45.9,18.7l13.1-47.8l-32-37.9l49.5-2.4l26.1-42.1l17.6,46.4l48.2,11.8l-38.7,31L2586.9,333.1z
			 M2546,300.3l35.2,23.1l-3.1-42l32.8-26.3l-40.9-10l-14.9-39.4l-22.2,35.8l-42,2l27.2,32.1l-11.1,40.6L2546,300.3z"/>
	</g>
</g>
<g>
	<g>
		<polygon fill="#FFEB97" points="1355.6,87.2 1389,170.6 1476.6,190.4 1407.6,247.9 1415.8,337.4 1339.8,289.5 1257.3,325 
			1279.3,237.9 1220.1,170.4 1309.7,164.4 		"/>
		<path d="M1418.8,342.2l-79.2-49.9l-86,37l23-90.7l-61.7-70.4l93.4-6.2l47.8-80.4l34.7,86.9l91.3,20.6l-71.9,59.9L1418.8,342.2z
			 M1340,286.7l72.8,45.9l-7.9-85.7l66.1-55.1l-84-19l-32-79.9l-44,74l-85.9,5.7l56.8,64.7l-21.1,83.5L1340,286.7z"/>
	</g>
	<g>
		<polygon fill="#848188" points="1353,121.5 1377.5,182.8 1442,197.4 1391.2,239.7 1397.2,305.5 1341.3,270.3 1280.6,296.4 
			1296.8,232.3 1253.3,182.6 1319.2,178.3 		"/>
		<path d="M1400.2,310.3l-59.1-37.2l-64.2,27.6l17.1-67.7l-46.1-52.5l69.7-4.6l35.7-60l25.9,64.8l68.1,15.4l-53.7,44.7L1400.2,310.3
			z M1341.5,267.5l52.7,33.2l-5.7-62.1l47.9-39.9l-60.8-13.7l-23.1-57.9l-31.9,53.6l-62.2,4.1l41.1,46.9l-15.3,60.4L1341.5,267.5z"
			/>
	</g>
	<g>
		<polygon fill="#F9A0BB" points="1350.7,150.9 1367.7,193.5 1412.4,203.6 1377.2,233 1381.4,278.6 1342.6,254.2 1300.5,272.3 
			1311.7,227.8 1281.5,193.4 1327.2,190.3 		"/>
		<path d="M1384.3,283.4l-42-26.4l-45.6,19.6l12.2-48.1l-32.7-37.3l49.5-3.3l25.3-42.6l18.4,46l48.4,10.9l-38.1,31.7L1384.3,283.4z
			 M1342.8,251.4l35.6,22.4l-3.9-41.9l32.3-26.9l-41-9.3l-15.6-39.1l-21.5,36.2l-42,2.8l27.8,31.6l-10.3,40.8L1342.8,251.4z"/>
	</g>
</g>
<g>
	<g>
		<polygon fill="#FFEB97" points="2999.9,218.3 3046.9,294.9 3136.6,299.7 3078.3,368 3101.5,454.8 3018.5,420.4 2943.1,469.3 
			2950.1,379.8 2880.3,323.2 2967.7,302.2 		"/>
		<path d="M2940.2,474.2l7.3-93.3l-72.7-58.9l91-21.9l33.6-87.4l48.9,79.8l93.5,5l-60.8,71.2l24.2,90.4l-86.5-35.8L2940.2,474.2z
			 M2885.9,324.4l66.9,54.2l-6.8,85.8l72.2-46.8l79.5,32.9l-22.2-83.2l55.9-65.5l-86-4.6l-45-73.4l-30.9,80.4L2885.9,324.4z"/>
	</g>
	<g>
		<polygon fill="#848188" points="3003.1,252.6 3037.6,308.9 3103.6,312.4 3060.7,362.7 3077.7,426.5 3016.7,401.2 2961.3,437.2 
			2966.4,371.3 2915.1,329.7 2979.4,314.2 		"/>
		<path d="M2958.4,442l5.5-69.6l-54.2-44l67.9-16.3l25.1-65.2l36.5,59.5l69.7,3.7l-45.4,53.1l18,67.5L3017,404L2958.4,442z
			 M2920.6,330.9l48.4,39.3l-4.9,62.1l52.3-33.9l57.6,23.9l-16.1-60.2l40.5-47.4l-62.2-3.3l-32.6-53.1l-22.4,58.2L2920.6,330.9z"/>
	</g>
	<g>
		<polygon fill="#F9A0BB" points="3005.8,282 3029.7,321.1 3075.5,323.5 3045.7,358.4 3057.6,402.7 3015.2,385.1 2976.8,410.1 
			2980.4,364.4 2944.8,335.5 2989.3,324.8 		"/>
		<path d="M2973.9,414.9l3.9-49.4l-38.5-31.2l48.2-11.6l17.8-46.3l25.9,42.3l49.5,2.6l-32.2,37.7l12.8,47.9l-45.8-19L2973.9,414.9z
			 M2950.3,336.7l32.7,26.5l-3.3,42l35.3-22.9l38.9,16.1l-10.9-40.7l27.3-32l-42-2.2l-22-35.9l-15.1,39.3L2950.3,336.7z"/>
	</g>
</g>
<g>
	<g>
		<polygon fill="#FFEB97" points="3546.3,774.4 3577.8,858.6 3665,880.3 3594.8,936.3 3601.1,1025.9 3526.1,976.4 3442.8,1010.1 
			3466.7,923.5 3409,854.7 3498.7,850.6 		"/>
		<path d="M3603.9,1030.7l-78.1-51.6l-86.8,35.1l24.9-90.2l-60.2-71.7l93.5-4.2l49.6-79.4l32.9,87.6l90.8,22.6l-73.2,58.3
			L3603.9,1030.7z M3526.4,973.6l71.8,47.4l-6-85.9l67.3-53.7l-83.5-20.8l-30.2-80.6l-45.6,73l-86,3.8l55.4,65.9l-22.9,83
			L3526.4,973.6z"/>
	</g>
	<g>
		<polygon fill="#848188" points="3542.9,808.6 3566.1,870.5 3630.2,886.5 3578.5,927.7 3583.2,993.6 3528,957.2 3466.8,981.9 
			3484.3,918.2 3441.8,867.6 3507.9,864.7 		"/>
		<path d="M3586,998.5l-58.3-38.5l-64.7,26.2l18.6-67.3l-44.9-53.5l69.8-3.1l37-59.2l24.5,65.4l67.8,16.9l-54.6,43.5L3586,998.5z
			 M3528.3,954.3l52,34.3l-4.4-62.2l48.7-38.9l-60.5-15.1l-21.9-58.4l-33,52.9l-62.3,2.8l40.1,47.7l-16.6,60.1L3528.3,954.3z"/>
	</g>
	<g>
		<polygon fill="#F9A0BB" points="3539.9,838.1 3556,881 3600.5,892 3564.7,920.6 3567.9,966.3 3529.6,941.1 3487.1,958.3 
			3499.3,914.1 3469.9,879 3515.6,876.9 		"/>
		<path d="M3570.7,971.2l-41.4-27.3l-46,18.6l13.2-47.8l-31.9-38l49.5-2.2l26.3-42.1l17.4,46.4l48.1,12l-38.8,30.9L3570.7,971.2z
			 M3529.9,938.3l35.1,23.2l-3-42l32.9-26.2l-40.8-10.2l-14.8-39.4l-22.3,35.7l-42,1.9l27.1,32.2l-11.2,40.6L3529.9,938.3z"/>
	</g>
</g>
<g>
	<g>
		<polygon fill="#FFEB97" points="3384.1,1060.8 3423.9,1141.4 3512.8,1154.3 3448.4,1217 3463.6,1305.6 3384.1,1263.8 
			3304.6,1305.6 3319.8,1217 3255.4,1154.3 3344.3,1141.4 		"/>
		<path d="M3466.9,1310.1l-82.8-43.6l-82.8,43.6l15.8-92.2l-67-65.3l92.6-13.5l41.4-83.9l41.4,83.9l92.6,13.5l-67,65.3
			L3466.9,1310.1z M3384.1,1260.9l76.2,40.1l-14.6-84.8l61.6-60.1l-85.2-12.4l-38.1-77.2l-38.1,77.2l-85.2,12.4l61.6,60.1
			l-14.6,84.8L3384.1,1260.9z"/>
	</g>
	<g>
		<polygon fill="#848188" points="3384.1,1095.2 3413.4,1154.5 3478.8,1164 3431.4,1210.1 3442.6,1275.2 3384.1,1244.5 
			3325.6,1275.2 3336.8,1210.1 3289.5,1164 3354.9,1154.5 		"/>
		<path d="M3445.9,1279.8l-61.8-32.5l-61.8,32.5l11.8-68.8l-50-48.7l69.1-10l30.9-62.6l30.9,62.6l69.1,10l-50,48.7L3445.9,1279.8z
			 M3384.1,1241.6l55.2,29l-10.5-61.4l44.6-43.5l-61.7-9l-27.6-55.9l-27.6,55.9l-61.7,9l44.6,43.5l-10.5,61.4L3384.1,1241.6z"/>
	</g>
	<g>
		<polygon fill="#F9A0BB" points="3384.1,1124.8 3404.4,1165.9 3449.8,1172.5 3416.9,1204.5 3424.7,1249.6 3384.1,1228.3 
			3343.5,1249.6 3351.3,1204.5 3318.5,1172.5 3363.8,1165.9 		"/>
		<path d="M3428,1254.2l-43.9-23.1l-43.9,23.1l8.4-48.9l-35.5-34.6l49.1-7.1l21.9-44.5l21.9,44.5l49.1,7.1l-35.5,34.6L3428,1254.2z
			 M3384.1,1225.5l37.3,19.6l-7.1-41.5l30.1-29.4l-41.6-6.1l-18.6-37.7l-18.6,37.7l-41.6,6.1l30.1,29.4l-7.1,41.5L3384.1,1225.5z"/>
	</g>
</g>
<g>
	<g>
		<polygon fill="#FFEB97" points="3519.4,1724.1 3570.4,1798.1 3660.2,1798 3605.7,1869.3 3633.5,1954.7 3548.8,1924.9 
			3476.2,1977.8 3478.4,1888 3405.6,1835.3 3491.7,1809.6 		"/>
		<path d="M3473.6,1982.8l2.3-93.6l-75.8-54.9l89.7-26.8l28.8-89l53.2,77l93.6-0.1l-56.8,74.4l29,89l-88.3-31.1L3473.6,1982.8z
			 M3411.2,1836.2l69.7,50.5l-2.1,86.1l69.6-50.7l81.2,28.6l-26.7-81.8l52.3-68.4l-86.1,0.1l-48.9-70.9l-26.5,81.9L3411.2,1836.2z"
			/>
	</g>
	<g>
		<polygon fill="#848188" points="3524.3,1758.1 3561.9,1812.5 3628,1812.4 3587.8,1864.9 3608.3,1927.8 3546,1905.8 3492.6,1944.7 
			3494.2,1878.7 3440.7,1839.9 3504,1821 		"/>
		<path d="M3490,1949.7l1.7-69.8l-56.6-41l66.9-20l21.5-66.4l39.7,57.5l69.8-0.1l-42.4,55.5l21.7,66.4l-65.9-23.2L3490,1949.7z
			 M3446.2,1840.8l50.5,36.6l-1.5,62.3l50.4-36.7l58.8,20.7l-19.3-59.3l37.9-49.5l-62.3,0.1l-35.4-51.3L3506,1823L3446.2,1840.8z"/>
	</g>
	<g>
		<polygon fill="#F9A0BB" points="3528.6,1787.4 3554.7,1825.1 3600.5,1825.1 3572.7,1861.5 3586.9,1905 3543.7,1889.8 
			3506.6,1916.8 3507.7,1871 3470.6,1844.1 3514.5,1831 		"/>
		<path d="M3504,1921.8l1.2-49.6l-40.2-29.1l47.5-14.2l15.3-47.2l28.2,40.8l49.6-0.1l-30.1,39.4l15.4,47.1l-46.8-16.5L3504,1921.8z
			 M3476.2,1845l34.1,24.7l-1,42.1l34-24.8l39.7,14l-13.1-40l25.6-33.4l-42.1,0.1l-23.9-34.6l-13,40L3476.2,1845z"/>
	</g>
</g>
<g>
	<g>
		<polygon fill="#FFEB97" points="3002.8,2173.8 3031.9,2258.8 3118.4,2283 3046.6,2337 3050.3,2426.7 2976.8,2375.1 2892.6,2406.4 
			2919,2320.5 2863.2,2250.1 2953,2248.6 		"/>
		<path d="M3053,2431.7l-76.6-53.8l-87.7,32.6l27.5-89.5l-58.1-73.4l93.6-1.5l51.8-77.9l30.3,88.5l90.1,25.2l-74.8,56.2L3053,2431.7
			z M2977.2,2372.3l70.4,49.5l-3.6-86l68.8-51.7l-82.9-23.2l-27.9-81.4l-47.7,71.7l-86.1,1.4l53.4,67.5l-25.3,82.3L2977.2,2372.3z"
			/>
	</g>
	<g>
		<polygon fill="#848188" points="2998.4,2207.9 3019.8,2270.4 3083.4,2288.2 3030.6,2327.9 3033.3,2393.9 2979.3,2356 2917.3,2379 
			2936.7,2315.8 2895.7,2264 2961.8,2262.9 		"/>
		<path d="M3036,2398.9l-57.1-40.1l-65.5,24.3l20.5-66.8l-43.4-54.7l69.8-1.1l38.7-58.2l22.6,66.1l67.3,18.8l-55.8,41.9L3036,2398.9
			z M2979.6,2353.2l51,35.8l-2.6-62.3l49.8-37.4l-60-16.8l-20.2-59l-34.5,51.9l-62.3,1l38.7,48.9l-18.3,59.6L2979.6,2353.2z"/>
	</g>
	<g>
		<polygon fill="#F9A0BB" points="2994.6,2237.2 3009.4,2280.6 3053.6,2293 3016.9,2320.5 3018.8,2366.3 2981.3,2339.9 
			2938.4,2355.9 2951.8,2312.1 2923.4,2276.1 2969.2,2275.4 		"/>
		<path d="M3021.5,2371.2l-40.6-28.5l-46.5,17.3l14.6-47.4l-30.8-38.9l49.6-0.8l27.5-41.3l16.1,46.9l47.8,13.4l-39.6,29.8
			L3021.5,2371.2z M2981.7,2337.1l34.4,24.2l-1.7-42l33.6-25.3l-40.5-11.3l-13.6-39.8l-23.3,35l-42.1,0.7l26.1,33l-12.4,40.2
			L2981.7,2337.1z"/>
	</g>
</g>
<g>
	<g>
		<polygon fill="#FFEB97" points="2504.8,2004.7 2558,2077.1 2647.8,2074.4 2595.3,2147.3 2625.7,2231.9 2540.1,2204.5 
			2469.1,2259.5 2468.6,2169.7 2394.4,2119.1 2479.7,2091 		"/>
		<path d="M2466.6,2264.6l-0.5-93.6l-77.4-52.7l88.9-29.4l26.2-89.9l55.4,75.4l93.5-2.9l-54.6,76l31.6,88.1l-89.2-28.5
			L2466.6,2264.6z M2400,2119.9l71.2,48.4l0.4,86.1l68.1-52.7l82,26.2l-29.1-81l50.2-69.9l-86,2.6l-51-69.4l-24.1,82.7L2400,2119.9z
			"/>
	</g>
	<g>
		<polygon fill="#848188" points="2510.8,2038.5 2549.9,2091.8 2616,2089.8 2577.4,2143.4 2599.7,2205.6 2536.8,2185.5 2484.5,2226 
			2484.2,2159.9 2429.6,2122.7 2492.3,2102 		"/>
		<path d="M2482,2231.1l-0.4-69.8l-57.7-39.3l66.3-21.9l19.5-67l41.3,56.3l69.8-2.1l-40.8,56.7l23.6,65.7l-66.5-21.2L2482,2231.1z
			 M2435.2,2123.5l51.5,35.1l0.3,62.3l49.3-38.2l59.4,19l-21.1-58.7l36.4-50.6l-62.3,1.9l-36.9-50.2l-17.4,59.8L2435.2,2123.5z"/>
	</g>
	<g>
		<polygon fill="#F9A0BB" points="2515.9,2067.7 2543.1,2104.6 2588.9,2103.2 2562.1,2140.4 2577.6,2183.6 2534,2169.6 
			2497.7,2197.7 2497.5,2151.8 2459.6,2126.1 2503.1,2111.7 		"/>
		<path d="M2495.2,2202.8l-0.3-49.6l-41-27.9l47.1-15.6l13.9-47.6l29.3,40l49.6-1.5l-28.9,40.3l16.8,46.7l-47.2-15.1L2495.2,2202.8z
			 M2465.2,2126.8l34.8,23.7l0.2,42.1l33.3-25.8l40.1,12.8l-14.2-39.6l24.6-34.2l-42.1,1.3l-24.9-33.9l-11.8,40.4L2465.2,2126.8z"/>
	</g>
</g>
<g>
	<g>
		<polygon fill="#FFEB97" points="1984.1,2180.4 2015.8,2264.5 2103,2286.1 2032.8,2342.2 2039.3,2431.8 1964.2,2382.4 1881,2416.2 
			1904.8,2329.6 1846.9,2260.8 1936.6,2256.7 		"/>
		<path d="M2042.1,2436.6l-78.2-51.5l-86.7,35.2l24.8-90.2l-60.3-71.6l93.5-4.3l49.4-79.5l33,87.6l90.9,22.5l-73.1,58.4
			L2042.1,2436.6z M1964.5,2379.6l71.9,47.3l-6.2-85.9l67.2-53.8l-83.6-20.7l-30.4-80.6l-45.5,73.1l-86,4l55.5,65.8l-22.8,83
			L1964.5,2379.6z"/>
	</g>
	<g>
		<polygon fill="#848188" points="1980.7,2214.6 2004,2276.5 2068.2,2292.3 2016.6,2333.6 2021.3,2399.5 1966.1,2363.2 1904.9,2388 
			1922.4,2324.3 1879.8,2273.8 1945.8,2270.7 		"/>
		<path d="M2024.2,2404.4l-58.3-38.4l-64.7,26.3l18.5-67.3l-45-53.4l69.8-3.2l36.9-59.3l24.6,65.4l67.8,16.8l-54.5,43.6
			L2024.2,2404.4z M1966.4,2360.4l52.1,34.3l-4.5-62.2l48.7-38.9l-60.5-15l-22-58.3l-32.9,52.9l-62.3,2.9l40.2,47.7l-16.5,60.1
			L1966.4,2360.4z"/>
	</g>
	<g>
		<polygon fill="#F9A0BB" points="1977.8,2244.1 1994,2286.9 2038.5,2297.9 2002.7,2326.6 2006,2372.3 1967.7,2347.1 1925.2,2364.3 
			1937.4,2320.1 1907.8,2285.1 1953.6,2283 		"/>
		<path d="M2008.8,2377.2l-41.4-27.3l-45.9,18.7l13.1-47.8l-31.9-37.9l49.5-2.3l26.2-42.1l17.5,46.4l48.1,11.9l-38.7,31
			L2008.8,2377.2z M1968,2344.3l35.2,23.1l-3-42l32.9-26.3l-40.9-10.1l-14.8-39.4l-22.2,35.7l-42,1.9l27.1,32.2l-11.1,40.6
			L1968,2344.3z"/>
	</g>
</g>
<g>
	<g>
		<polygon fill="#FFEB97" points="1478.5,1944.8 1519.3,2024.9 1608.4,2036.6 1544.9,2100.2 1561.2,2188.5 1481.2,2147.8 
			1402.2,2190.6 1416.2,2101.9 1351.1,2040 1439.8,2025.9 		"/>
		<path d="M1399,2195.2l14.6-92.4l-67.9-64.4l92.4-14.7l40.3-84.5l42.5,83.4l92.8,12.2l-66.1,66.2l17,92l-83.4-42.4L1399,2195.2z
			 M1356.5,2041.7l62.4,59.3l-13.4,85l75.7-41.1l76.7,39l-15.7-84.6l60.8-60.9l-85.4-11.2l-39.1-76.7l-37.1,77.7L1356.5,2041.7z"/>
	</g>
	<g>
		<polygon fill="#848188" points="1478.9,1979.2 1509,2038.1 1574.5,2046.7 1527.8,2093.4 1539.8,2158.4 1480.9,2128.5 1422.8,2160 
			1433.1,2094.7 1385.2,2049.2 1450.5,2038.8 		"/>
		<path d="M1419.6,2164.6l10.9-69l-50.7-48.1l69-11l30.1-63l31.7,62.2l69.2,9.1l-49.4,49.4l12.7,68.7l-62.2-31.7L1419.6,2164.6z
			 M1390.6,2050.9l45.2,42.9l-9.7,61.6l54.8-29.7l55.6,28.3l-11.4-61.3l44.1-44.1l-61.8-8.1l-28.3-55.5l-26.8,56.3L1390.6,2050.9z"
			/>
	</g>
	<g>
		<polygon fill="#F9A0BB" points="1479.3,2008.8 1500.2,2049.6 1545.6,2055.6 1513.2,2088 1521.6,2133.1 1480.7,2112.3 
			1440.4,2134.2 1447.6,2088.9 1414.3,2057.3 1459.6,2050.1 		"/>
		<path d="M1437.2,2138.8l7.7-49l-36-34.1l49-7.8l21.4-44.8l22.5,44.2l49.2,6.5l-35,35.1l9,48.8l-44.2-22.5L1437.2,2138.8z
			 M1419.7,2059l30.5,29l-6.6,41.6l37-20.1l37.5,19.1l-7.7-41.4l29.7-29.8l-41.7-5.5l-19.1-37.5l-18.1,38L1419.7,2059z"/>
	</g>
</g>
<g>
	<g>
		<polygon fill="#FFEB97" points="665,2048.2 688.3,2135 772.9,2165 697.6,2213.9 695.2,2303.7 625.4,2247.2 539.3,2272.7 
			571.4,2188.8 520.5,2114.8 610.3,2119.4 		"/>
		<path d="M697.6,2308.9l-72.8-58.9l-89.7,26.6l33.5-87.4l-53-77.1l93.5,4.9l57-74.2l24.3,90.4l88.2,31.3l-78.5,51L697.6,2308.9z
			 M625.9,2244.4l66.9,54.1l2.3-86.1l72.2-46.9l-81.1-28.8l-0.3-1.3l-22-81.9l-52.4,68.3l-86-4.5l48.7,71l-30.8,80.4L625.9,2244.4z"
			/>
	</g>
	<g>
		<polygon fill="#848188" points="658.3,2081.9 675.4,2145.7 737.7,2167.8 682.3,2203.8 680.5,2269.9 629.2,2228.3 565.8,2247 
			589.5,2185.3 552,2130.9 618,2134.3 		"/>
		<path d="M682.9,2275l-54.3-43.9l-67,19.8l25-65.2l-39.5-57.6l69.7,3.6l42.5-55.4l18.1,67.4l65.8,23.3l-58.6,38.1L682.9,2275z
			 M629.7,2225.5l48.5,39.2l1.6-62.3l52.3-34l-58.8-20.8l-16.2-60.2l-38,49.4l-62.2-3.2l35.3,51.4l-22.3,58.2L629.7,2225.5z"/>
	</g>
	<g>
		<polygon fill="#F9A0BB" points="652.5,2110.9 664.4,2155.2 707.6,2170.5 669.2,2195.4 667.9,2241.3 632.3,2212.4 588.4,2225.4 
			604.8,2182.6 578.8,2144.9 624.6,2147.2 		"/>
		<path d="M670.3,2246.4l-38.5-31.2l-47.5,14.1L602,2183l-28.1-40.9l49.5,2.6l30.2-39.3l12.9,47.9l46.7,16.6l-41.6,27L670.3,2246.4z
			 M632.9,2209.7l32.7,26.5l1.1-42.1l35.3-22.9l-39.7-14.1l-10.9-40.6l-25.6,33.4l-42-2.2l23.8,34.7l-15.1,39.3L632.9,2209.7z"/>
	</g>
</g>
<g>
	<g>
		<polygon fill="#FFEB97" points="126,1546.3 172.3,1623.3 262,1628.8 203,1696.6 225.4,1783.6 142.7,1748.5 66.9,1796.7 
			74.8,1707.2 5.5,1650 93,1629.8 		"/>
		<path d="M64,1801.5l8.2-93.2L0,1648.7l91.2-21l34.4-87.1l48.2,80.2l93.4,5.8l-61.4,70.6l23.4,90.6l-86.1-36.6L64,1801.5z
			 M11,1651.3l66.4,54.8l-7.5,85.8l72.6-46.2l79.2,33.6l-21.5-83.4l56.5-65l-85.9-5.3l-44.3-73.8L94.9,1632L11,1651.3z"/>
	</g>
	<g>
		<polygon fill="#848188" points="128.9,1580.5 162.9,1637.1 228.8,1641.2 185.5,1691.1 202,1755.1 141.2,1729.3 85.4,1764.7 
			91.2,1698.9 40.2,1656.8 104.6,1642 		"/>
		<path d="M82.5,1769.5l6.1-69.6l-53.9-44.5l68-15.7l25.6-65l36,59.9l69.7,4.3l-45.8,52.7l17.4,67.6l-64.3-27.3L82.5,1769.5z
			 M45.7,1658.1l48.1,39.7l-5.4,62.1l52.6-33.5l57.4,24.4l-15.6-60.4l40.9-47l-62.2-3.8l-32.1-53.4l-22.9,58L45.7,1658.1z"/>
	</g>
	<g>
		<polygon fill="#F9A0BB" points="131.3,1610 154.9,1649.3 200.6,1652.1 170.6,1686.7 182,1731.1 139.8,1713.2 101.1,1737.8 
			105.1,1692.1 69.8,1662.9 114.5,1652.6 		"/>
		<path d="M98.2,1742.6l4.3-49.4l-38.2-31.6l48.3-11.2l18.2-46.1l25.5,42.5l49.5,3.1l-32.5,37.4l12.4,48l-45.6-19.4L98.2,1742.6z
			 M75.3,1664.2l32.5,26.8l-3.7,41.9l35.5-22.6l38.7,16.4l-10.5-40.8l27.6-31.8l-42-2.6l-21.7-36.1l-15.5,39.1L75.3,1664.2z"/>
	</g>
</g>
<g>
	<g>
		<polygon fill="#FFEB97" points="377.9,1019.3 397.6,1106.9 481,1140.4 403.7,1186.2 397.6,1275.9 330.1,1216.5 243,1238.4 
			278.6,1155.9 230.9,1079.8 320.3,1088.2 		"/>
		<path d="M399.7,1281.1l-70.2-61.8l-90.8,22.8l37.1-85.9l-49.7-79.3l93.2,8.7l60-71.8l20.5,91.3l86.8,34.9l-80.5,47.7L399.7,1281.1
			z M330.8,1213.8l64.6,56.9l5.8-85.9l74.1-43.9l-79.9-32.1l-18.8-84l-55.2,66.1l-85.7-8l45.8,72.9l-34.1,79L330.8,1213.8z"/>
	</g>
	<g>
		<polygon fill="#848188" points="369.8,1052.7 384.3,1117.1 445.6,1141.8 388.8,1175.5 384.3,1241.4 334.7,1197.7 270.6,1213.8 
			296.8,1153.2 261.7,1097.2 327.5,1103.4 		"/>
		<path d="M386.4,1246.6l-52.4-46.1l-67.7,17l27.7-64.1l-37.1-59.2l69.5,6.5l44.8-53.6l15.3,68.1l64.8,26l-60.1,35.6L386.4,1246.6z
			 M335.3,1195l46.8,41.2l4.2-62.2l53.6-31.8l-57.8-23.2l-13.6-60.8l-40,47.8l-62.1-5.8l33.1,52.8l-24.7,57.2L335.3,1195z"/>
	</g>
	<g>
		<polygon fill="#F9A0BB" points="362.9,1081.4 372.9,1126.1 415.4,1143.2 376,1166.6 372.9,1212.3 338.5,1182 294,1193.2 
			312.2,1151.1 287.8,1112.3 333.5,1116.6 		"/>
		<path d="M375,1217.5l-37.2-32.8l-48.1,12.1l19.7-45.5l-26.4-42l49.4,4.6l31.8-38l10.9,48.4l46,18.5l-42.7,25.3L375,1217.5z
			 M339.1,1179.3l31.6,27.8l2.9-42l36.2-21.4l-39-15.7l-9.2-41.1l-27,32.3l-41.9-3.9l22.4,35.6l-16.7,38.6L339.1,1179.3z"/>
	</g>
</g>
<g>
	<g>
		<polygon fill="#FFEB97" points="138.9,568.5 191.4,641.4 281.2,639.5 228.1,711.9 257.7,796.8 172.4,768.7 100.9,823 101.2,733.2 
			27.4,681.9 113,654.5 		"/>
		<path d="M98.4,828.1l0.4-93.6l-76.9-53.4l89.1-28.6l27-89.6l54.7,75.9l93.6-2l-55.3,75.5l30.8,88.4l-88.9-29.3L98.4,828.1z
			 M33,682.8l70.7,49.1l-0.4,86.1l68.5-52.1l81.8,26.9l-28.4-81.3l50.9-69.4l-86.1,1.8l-50.3-69.9L115,656.5L33,682.8z"/>
	</g>
	<g>
		<polygon fill="#848188" points="144.6,602.4 183.2,656 249.3,654.6 210.2,707.9 232,770.3 169.2,749.6 116.6,789.6 116.9,723.5 
			62.6,685.8 125.5,665.7 		"/>
		<path d="M114.1,794.7l0.3-69.8L57,685l66.5-21.3l20.1-66.9l40.8,56.7l69.8-1.5L213,708.3l23,65.9l-66.3-21.9L114.1,794.7z
			 M68.2,686.7l51.2,35.5l-0.3,62.3l49.6-37.7l59.2,19.5l-20.5-58.9l36.8-50.3l-62.3,1.3L145.5,608l-18,59.7L68.2,686.7z"/>
	</g>
	<g>
		<polygon fill="#F9A0BB" points="149.5,631.6 176.3,668.8 222.1,667.8 195,704.7 210.1,748 166.5,733.7 130.1,761.4 130.2,715.6 
			92.6,689.4 136.2,675.5 		"/>
		<path d="M127.5,766.5l0.2-49.6L87,688.6l47.2-15.1l14.3-47.5l29,40.2l49.6-1.1l-29.3,40l16.3,46.8L167,736.5L127.5,766.5z
			 M98.2,690.3l34.6,24l-0.2,42.1l33.5-25.5l40,13.2l-13.9-39.7l24.9-33.9l-42.1,0.9l-24.6-34.1l-12.1,40.3L98.2,690.3z"/>
	</g>
</g>
</svg>
